<?xml version="1.0" encoding="utf-8"?>
<!DOCTYPE svg PUBLIC "-//W3C//DTD SVG 1.1//EN" "http://www.w3.org/Graphics/SVG/1.1/DTD/svg11.dtd">
<svg version="1.1" xmlns="http://www.w3.org/2000/svg" xmlns:xlink="http://www.w3.org/1999/xlink" x="0px" y="0px" width="210px" height="141px" viewBox="0 0 210 141" xml:space="preserve">
<g transform="translate(-215,-217)">
    <text transform="matrix(1 0 0 1 281.814 356.7715)" opacity="0.8" fill="#FFFFFF" font-family="'HelveticaNeue-Light'" font-size="25.77">Fürfeld</text>
    <g opacity="0.9">
        <path fill="#FFD800" d="M283.526,276.75c-0.808,0.04-1.616,0.084-2.426,0.127C281.559,277.363,282.624,277.372,283.526,276.75z
            "/>
        <path fill="#FFD800" d="M355.931,282.731c-0.13,0.277-0.232,0.495-0.417,0.882c-0.186-0.387-0.293-0.616-0.416-0.874
            c-1.24,0.146-1.977,0.852-2.35,2.104c0.213,0.105,0.426,0.206,0.782,0.379c-0.319,0.173-0.523,0.279-0.778,0.419
            c0.087,1.184,0.769,1.9,1.937,2.333c0.154-0.207,0.313-0.417,0.554-0.741c0.142,0.333,0.231,0.548,0.34,0.8
            c1.214-0.151,1.992-0.808,2.388-2.025c-0.229-0.151-0.445-0.296-0.811-0.531c0.375-0.125,0.592-0.197,0.834-0.276
            C357.896,283.931,357.186,283.192,355.931,282.731z M355.427,286.643c-0.768,0.036-1.416-0.632-1.401-1.393
            c0.014-0.741,0.601-1.319,1.351-1.331c0.793-0.01,1.449,0.62,1.387,1.381C356.702,286.111,356.259,286.603,355.427,286.643z"/>
        <path fill="#FFD800" d="M281.544,284.849c0.199-0.702-0.934-1.819-2.229-2.111c-0.113,0.224-0.232,0.461-0.419,0.827
            c-0.188-0.33-0.305-0.537-0.441-0.777c-1.203,0.22-1.805,1.007-2.109,2.205c0.259,0.131,0.491,0.249,0.845,0.431
            c-0.313,0.222-0.526,0.37-0.764,0.542c0.263,0.992,0.843,1.683,1.853,1.895c0.216,0.044,0.51-0.286,0.796-0.455
            c0.998,0.815,2.173,0.066,2.522-1.771c-0.224-0.068-0.45-0.135-0.94-0.279C281.086,285.108,281.309,284.982,281.544,284.849z
             M279.08,286.669c-0.721,0.049-1.417-0.602-1.453-1.354c-0.04-0.747,0.587-1.424,1.344-1.454
            c0.778-0.034,1.433,0.566,1.454,1.331C280.445,285.935,279.82,286.621,279.08,286.669z"/>
        <path fill="#FFD800" d="M282.475,266.339c-5.002-0.119-8.365,2.545-9.357,7.472c-0.123,0.618-0.205,1.244-0.331,2.029
            c2.501-0.131,4.807-0.25,7.114-0.373c1.006-0.054,2.01-0.15,3.018-0.163c0.748-0.012,1.061-0.221,0.996-1.061
            c-0.177-2.275-0.281-4.556-0.362-6.837C283.524,266.637,283.249,266.357,282.475,266.339z"/>
        <path fill="#FFD800" d="M312.06,283.301c-0.229-1.252-1.014-1.91-2.309-2.238c-0.101,0.292-0.183,0.517-0.324,0.92
            c-0.22-0.364-0.353-0.582-0.5-0.823c-1.219,0.273-1.882,1.055-2.119,2.335c0.222,0.081,0.442,0.161,0.818,0.294
            c-0.302,0.207-0.492,0.334-0.731,0.497c0.211,1.17,0.96,1.814,2.167,2.124c0.134-0.226,0.27-0.451,0.477-0.797
            c0.173,0.313,0.285,0.518,0.418,0.757c1.192-0.275,1.896-1.013,2.166-2.263c-0.246-0.127-0.476-0.246-0.861-0.443
            C311.619,283.502,311.827,283.405,312.06,283.301z M309.657,285.004c-0.76,0.119-1.474-0.479-1.539-1.236
            c-0.065-0.738,0.462-1.375,1.204-1.461c0.789-0.095,1.506,0.465,1.526,1.224C310.87,284.344,310.483,284.877,309.657,285.004z"
            />
        <path fill="#FFD800" d="M323.923,286.198c0.208,0.068,0.536-0.228,0.84-0.369c0.907,0.919,2.152,0.297,2.693-1.495
            c-0.216-0.089-0.435-0.182-0.906-0.377c0.45-0.197,0.685-0.3,0.933-0.408c0.275-0.679-0.738-1.907-1.995-2.332
            c-0.135,0.21-0.278,0.434-0.505,0.779c-0.152-0.351-0.246-0.567-0.357-0.821c-1.218,0.097-1.899,0.815-2.326,1.973
            c0.243,0.157,0.463,0.301,0.796,0.516c-0.334,0.188-0.563,0.316-0.815,0.459C322.434,285.135,322.943,285.886,323.923,286.198z
             M325.028,282.296c0.779,0.049,1.365,0.711,1.307,1.477c-0.058,0.742-0.751,1.358-1.491,1.328
            c-0.723-0.026-1.348-0.745-1.307-1.498C323.58,282.858,324.271,282.248,325.028,282.296z"/>
        <path fill="#FFD800" d="M330.302,275.701c-0.808-0.043-1.615-0.085-2.429-0.129
            C328.28,276.105,329.339,276.225,330.302,275.701z"/>
        <path fill="#FFD800" d="M319.788,218.44c-30.574,0-55.36,24.785-55.36,55.358c0,30.576,24.786,55.361,55.36,55.361
            s55.361-24.785,55.361-55.361C375.149,243.225,350.362,218.44,319.788,218.44z M343.959,251.185l1.397,1.35l-3.716,0.374
            L343.959,251.185z M333.848,246.124l1.292,0.59l-3.985,4.527L333.848,246.124z M336.804,252.588v1.778L327,260.67
            L336.804,252.588z M332.121,251.67l1.294,0.701l-4.308,4.254L332.121,251.67z M326.953,246.79l2.045,0.863l-2.045,11.311
            V246.79z M325.086,250.921l0.756,7.005l-2.963-6.304L325.086,250.921z M319.627,238.4l0.107,6.786l-2.801-6.461L319.627,238.4z
             M317.078,245.604l7.431,12.551l-9.426-11.42L317.078,245.604z M323.021,257.833l-5.765-3.179l0.322-1.403L323.021,257.833z
             M316.717,255.604l-5.333-3.07l-0.161-1.671L316.717,255.604z M309.499,243.968l2.372,3.718l-4.526-3.609L309.499,243.968z
             M279.417,291.156c-3.246,0.206-5.993-2.18-6.221-5.409c-0.222-3.106,2.192-5.938,5.257-6.161
            c3.355-0.243,6.134,2.165,6.34,5.499C284.979,288.143,282.484,290.962,279.417,291.156z M309.899,289.528
            c-3.216,0.251-5.968-2.154-6.198-5.414c-0.222-3.163,2.198-5.936,5.369-6.152c3.187-0.214,5.979,2.263,6.181,5.478
            C315.442,286.53,313.02,289.286,309.899,289.528z M355.195,291.167c-3.226-0.085-5.712-2.767-5.601-6.034
            c0.111-3.167,2.808-5.675,5.982-5.557c3.19,0.119,5.71,2.873,5.576,6.095C361.021,288.763,358.324,291.249,355.195,291.167z
             M365.994,280.215c-0.286,4.743-2.275,4.284-3.165,4.214c-0.742-0.063-1.161-0.202-1.42-1.031
            c-0.8-2.589-3.135-4.301-5.785-4.419c-2.602-0.115-5.038,1.365-6.091,3.831c-0.32,0.743-0.718,0.878-1.444,0.836
            c-5.271-0.301-10.54-0.574-15.809-0.821c-0.734-0.035-1.114-0.212-1.326-1.001c-0.692-2.543-2.955-4.301-5.599-4.494
            c-2.687-0.197-5.048,1.174-6.205,3.606c-0.315,0.658,0.023,1.026,0.207,1.167c0.748-2.403,3.031-4.191,5.599-4.11
            c3.364,0.106,5.879,2.794,5.73,6.128c-0.132,3.063-2.905,5.607-5.979,5.48c-3.248-0.137-5.729-2.799-5.623-6.032
            c0.016-0.499,0.124-0.979,0.264-1.441c-0.08-0.032-0.196-0.078-0.408-0.146c-0.215-0.068-0.395-0.182-0.56-0.307
            c-0.556,0.385-1.189,0.345-1.591,0.353c-0.746,0.021-1.179-0.078-1.52-0.876c-1.068-2.488-3.57-3.947-6.217-3.789
            c-2.598,0.157-4.868,1.883-5.658,4.45c-0.24,0.771-0.622,0.945-1.35,0.98c-5.27,0.251-10.539,0.529-15.809,0.835
            c-0.731,0.044-1.128-0.095-1.424-0.855c-0.952-2.456-3.384-3.971-6.035-3.886c-2.694,0.085-4.896,1.695-5.797,4.238
            c-0.454,1.282-1.013,1.588-2.389,1.301c-1.334-0.278-1.907-1.869-0.913-2.791c0.59-0.546,0.685-1.087,0.606-1.779
            c-0.339-2.903,0.101-5.702,1.283-8.365c1.839-4.153,4.797-6.926,9.486-7.451c1.157-0.127,2.328-0.131,3.633-0.199
            c-0.081-1.553-0.141-3.121-0.256-4.684c-0.054-0.73,0.181-0.998,0.938-1.036c10.672-0.538,21.346-1.098,32.016-1.682
            c0.757-0.04,0.997,0.186,1.028,0.927c0.111,2.718,0.281,5.436,0.423,8.151c0.174,3.3,0.347,6.6,0.542,9.899
            c0.559-2.183,1.921-4.252,3.04-6.197c2.264-3.936,4.343-6.386,9.061-6.414c1.164-0.008,0.025,0.112,1.329,0.179
            c0.081-1.554,0.188-3.12,0.234-4.685c0.022-0.732,0.282-0.973,1.038-0.934c10.673,0.579,21.344,1.139,32.02,1.675
            c0.758,0.038,0.971,0.29,0.923,1.028c-0.173,2.716-0.288,5.435-0.428,8.154c-0.209,3.994-0.437,7.986-0.602,11.98
            L365.994,280.215z"/>
        <path fill="#FFD800" d="M330.344,265.235c-4.962-0.64-6.28,1.657-7.782,6.455c-0.186,0.6-0.334,1.214-0.542,1.983
            c2.505,0.131,2.505,0.253,4.81,0.372c1.007,0.053,2.017,0.061,3.02,0.153c0.745,0.068,1.077-0.111,1.102-0.952
            c0.062-2.281,0.194-4.561,0.354-6.838C331.357,265.645,331.11,265.336,330.344,265.235z"/>
    </g>
</g>
</svg>
