<?xml version="1.0" encoding="utf-8"?>
<!DOCTYPE svg PUBLIC "-//W3C//DTD SVG 1.1//EN" "http://www.w3.org/Graphics/SVG/1.1/DTD/svg11.dtd">
<svg version="1.1" xmlns="http://www.w3.org/2000/svg" xmlns:xlink="http://www.w3.org/1999/xlink" x="0px" y="0px" width="210px" height="141px" viewBox="0 0 210 141" xml:space="preserve">
<g transform="translate(-215,-732)">
	<text transform="matrix(1 0 0 1 259.8735 869.8223)" opacity="0.8" fill="#FFFFFF" font-family="'HelveticaNeue-Light'" font-size="25.77">Hohenlohe</text>
    <g opacity="0.9">
        <path fill="#FFD800" d="M283.8,791.674c-0.809,0.042-1.616,0.086-2.427,0.128C281.832,792.288,282.897,792.297,283.8,791.674z"
            />
        <path fill="#FFD800" d="M356.204,797.654c-0.13,0.28-0.232,0.497-0.417,0.884c-0.185-0.388-0.293-0.616-0.415-0.873
            c-1.24,0.146-1.978,0.852-2.35,2.103c0.212,0.104,0.426,0.205,0.782,0.378c-0.32,0.174-0.523,0.281-0.779,0.418
            c0.088,1.186,0.769,1.902,1.937,2.336c0.154-0.21,0.313-0.418,0.554-0.741c0.142,0.332,0.231,0.547,0.341,0.797
            c1.214-0.149,1.991-0.806,2.388-2.024c-0.229-0.15-0.446-0.296-0.811-0.531c0.374-0.125,0.591-0.196,0.833-0.275
            C358.169,798.855,357.46,798.116,356.204,797.654z M355.701,801.567c-0.769,0.036-1.417-0.631-1.402-1.395
            c0.014-0.739,0.601-1.317,1.351-1.328c0.794-0.012,1.45,0.62,1.388,1.381C356.977,801.037,356.532,801.528,355.701,801.567z"/>
        <path fill="#FFD800" d="M281.818,799.774c0.199-0.703-0.934-1.821-2.229-2.111c-0.113,0.223-0.232,0.46-0.42,0.827
            c-0.188-0.331-0.304-0.539-0.441-0.777c-1.203,0.22-1.804,1.007-2.109,2.203c0.259,0.131,0.491,0.25,0.845,0.431
            c-0.313,0.222-0.526,0.371-0.765,0.542c0.263,0.993,0.844,1.685,1.854,1.894c0.216,0.044,0.51-0.284,0.796-0.454
            c0.999,0.816,2.173,0.066,2.523-1.768c-0.224-0.069-0.45-0.136-0.941-0.282C281.359,800.033,281.582,799.907,281.818,799.774z
             M279.353,801.595c-0.721,0.048-1.417-0.603-1.453-1.355c-0.04-0.747,0.587-1.424,1.344-1.454
            c0.778-0.034,1.433,0.564,1.454,1.332C280.718,800.858,280.094,801.546,279.353,801.595z"/>
        <path fill="#FFD800" d="M282.748,781.264c-5.002-0.12-8.365,2.545-9.356,7.471c-0.123,0.617-0.206,1.244-0.331,2.03
            c2.501-0.131,4.807-0.249,7.114-0.372c1.006-0.055,2.01-0.151,3.018-0.164c0.748-0.011,1.06-0.223,0.996-1.061
            c-0.177-2.274-0.281-4.557-0.363-6.838C283.798,781.562,283.522,781.282,282.748,781.264z"/>
        <path fill="#FFD800" d="M312.333,798.226c-0.229-1.252-1.014-1.911-2.309-2.239c-0.101,0.292-0.184,0.519-0.324,0.92
            c-0.22-0.363-0.353-0.58-0.5-0.823c-1.22,0.275-1.882,1.055-2.12,2.337c0.223,0.08,0.442,0.159,0.818,0.294
            c-0.301,0.206-0.492,0.333-0.73,0.497c0.211,1.17,0.96,1.813,2.167,2.123c0.135-0.226,0.271-0.451,0.478-0.798
            c0.173,0.315,0.285,0.519,0.418,0.759c1.192-0.277,1.896-1.013,2.166-2.264c-0.246-0.126-0.476-0.246-0.861-0.442
            C311.893,798.427,312.1,798.331,312.333,798.226z M309.93,799.93c-0.76,0.116-1.474-0.479-1.539-1.237
            c-0.065-0.739,0.462-1.375,1.204-1.462c0.79-0.096,1.506,0.464,1.527,1.226C311.143,799.27,310.756,799.803,309.93,799.93z"/>
        <path fill="#FFD800" d="M324.196,801.123c0.208,0.067,0.536-0.228,0.841-0.368c0.906,0.917,2.151,0.295,2.692-1.496
            c-0.216-0.089-0.434-0.18-0.906-0.376c0.45-0.197,0.685-0.301,0.934-0.41c0.274-0.677-0.739-1.907-1.995-2.331
            c-0.135,0.208-0.279,0.433-0.506,0.779c-0.151-0.352-0.245-0.567-0.357-0.82c-1.218,0.096-1.899,0.813-2.326,1.973
            c0.244,0.157,0.463,0.299,0.797,0.516c-0.335,0.188-0.563,0.314-0.815,0.458C322.707,800.061,323.217,800.811,324.196,801.123z
             M325.303,797.221c0.779,0.048,1.365,0.712,1.307,1.476c-0.059,0.743-0.751,1.359-1.492,1.33
            c-0.723-0.028-1.347-0.746-1.307-1.5C323.854,797.781,324.545,797.171,325.303,797.221z"/>
        <path fill="#FFD800" d="M330.575,790.625c-0.808-0.041-1.614-0.083-2.428-0.128
            C328.554,791.03,329.613,791.149,330.575,790.625z"/>
        <path fill="#FFD800" d="M320.062,733.364c-30.575,0-55.361,24.786-55.361,55.359c0,30.574,24.786,55.36,55.361,55.36
            s55.361-24.786,55.361-55.36C375.423,758.15,350.637,733.364,320.062,733.364z M344.232,766.109l1.398,1.348l-3.717,0.377
            L344.232,766.109z M334.122,761.048l1.291,0.59l-3.985,4.528L334.122,761.048z M337.077,767.514v1.776l-9.804,6.304
            L337.077,767.514z M332.396,766.595l1.293,0.701l-4.307,4.254L332.396,766.595z M327.228,761.716l2.044,0.862l-2.044,11.311
            V761.716z M325.359,765.847l0.757,7.002l-2.964-6.303L325.359,765.847z M319.901,753.324l0.106,6.786l-2.8-6.463
            L319.901,753.324z M317.352,760.528l7.431,12.552l-9.427-11.42L317.352,760.528z M323.295,772.756l-5.765-3.178l0.322-1.401
            L323.295,772.756z M316.991,770.528l-5.334-3.071l-0.16-1.67L316.991,770.528z M309.772,758.892l2.371,3.719l-4.526-3.609
            L309.772,758.892z M279.689,806.081c-3.245,0.205-5.992-2.18-6.221-5.408c-0.222-3.109,2.192-5.938,5.256-6.161
            c3.355-0.245,6.135,2.164,6.34,5.497C285.253,803.068,282.758,805.887,279.689,806.081z M310.172,804.453
            c-3.216,0.252-5.969-2.155-6.198-5.414c-0.221-3.163,2.198-5.936,5.369-6.152c3.187-0.214,5.979,2.264,6.181,5.479
            C315.716,801.454,313.293,804.211,310.172,804.453z M355.47,806.092c-3.227-0.085-5.713-2.767-5.602-6.033
            c0.112-3.167,2.808-5.677,5.982-5.557c3.19,0.118,5.71,2.873,5.576,6.094C361.294,803.688,358.598,806.174,355.47,806.092z
             M366.268,795.139c-0.286,4.744-2.275,4.285-3.165,4.213c-0.741-0.061-1.16-0.2-1.419-1.029c-0.801-2.589-3.136-4.3-5.785-4.42
            c-2.603-0.115-5.038,1.365-6.092,3.832c-0.319,0.742-0.717,0.876-1.444,0.835c-5.271-0.3-10.539-0.573-15.808-0.82
            c-0.735-0.035-1.114-0.212-1.327-1c-0.691-2.543-2.954-4.302-5.598-4.495c-2.687-0.196-5.048,1.174-6.205,3.605
            c-0.315,0.658,0.023,1.027,0.206,1.169c0.748-2.404,3.031-4.193,5.6-4.113c3.363,0.109,5.878,2.797,5.73,6.131
            c-0.132,3.063-2.906,5.604-5.98,5.479c-3.247-0.137-5.729-2.797-5.622-6.03c0.016-0.5,0.124-0.979,0.264-1.442
            c-0.08-0.032-0.196-0.078-0.408-0.147c-0.215-0.067-0.395-0.18-0.56-0.306c-0.556,0.385-1.189,0.344-1.592,0.354
            c-0.746,0.019-1.179-0.08-1.52-0.876c-1.067-2.487-3.569-3.949-6.216-3.789c-2.598,0.156-4.868,1.883-5.658,4.448
            c-0.24,0.771-0.622,0.947-1.35,0.98c-5.27,0.253-10.539,0.53-15.809,0.836c-0.731,0.044-1.128-0.095-1.424-0.857
            c-0.953-2.454-3.384-3.968-6.035-3.883c-2.694,0.084-4.896,1.693-5.797,4.235c-0.454,1.284-1.013,1.591-2.39,1.302
            c-1.334-0.277-1.907-1.868-0.913-2.789c0.59-0.546,0.685-1.089,0.606-1.78c-0.339-2.905,0.101-5.702,1.283-8.365
            c1.839-4.153,4.797-6.927,9.486-7.451c1.157-0.127,2.328-0.131,3.633-0.199c-0.081-1.552-0.141-3.12-0.256-4.684
            c-0.054-0.729,0.181-0.998,0.938-1.036c10.672-0.538,21.346-1.097,32.016-1.682c0.757-0.04,0.997,0.185,1.028,0.926
            c0.11,2.718,0.281,5.437,0.422,8.153c0.174,3.298,0.348,6.599,0.542,9.897c0.559-2.182,1.922-4.252,3.04-6.196
            c2.263-3.936,4.343-6.387,9.06-6.414c1.165-0.008,0.026,0.111,1.33,0.179c0.08-1.553,0.188-3.119,0.234-4.685
            c0.022-0.732,0.281-0.973,1.038-0.935c10.672,0.581,21.344,1.141,32.019,1.676c0.758,0.039,0.971,0.289,0.924,1.028
            c-0.174,2.716-0.288,5.435-0.429,8.153c-0.209,3.994-0.437,7.987-0.602,11.982L366.268,795.139z"/>
        <path fill="#FFD800" d="M330.617,780.161c-4.961-0.642-6.28,1.657-7.782,6.455c-0.185,0.6-0.334,1.214-0.541,1.981
            c2.504,0.132,2.504,0.255,4.81,0.372c1.007,0.053,2.017,0.062,3.019,0.154c0.745,0.068,1.077-0.111,1.102-0.952
            c0.063-2.28,0.195-4.561,0.355-6.837C331.631,780.568,331.385,780.261,330.617,780.161z"/>
    </g>
</g>
</svg>
