<?xml version="1.0" encoding="utf-8"?>
<!DOCTYPE svg PUBLIC "-//W3C//DTD SVG 1.1//EN" "http://www.w3.org/Graphics/SVG/1.1/DTD/svg11.dtd">
<svg version="1.1" xmlns="http://www.w3.org/2000/svg" xmlns:xlink="http://www.w3.org/1999/xlink" x="0px" y="0px" width="210px" height="141px" viewBox="0 0 210 141" xml:space="preserve">
<g transform="translate(-215,-392)">
	<text transform="matrix(1 0 0 1 232.9058 528.3408)" opacity="0.8" fill="#FFFFFF" font-family="'HelveticaNeue-Light'" font-size="25.77">Neckartalstraße</text>
    <g opacity="0.9">
        <path fill="#FFD800" d="M283.8,450.479c-0.809,0.041-1.616,0.085-2.427,0.128C281.832,451.095,282.897,451.104,283.8,450.479z"
            />
        <path fill="#FFD800" d="M356.203,456.461c-0.13,0.278-0.232,0.496-0.417,0.882c-0.185-0.387-0.293-0.616-0.415-0.873
            c-1.24,0.148-1.978,0.852-2.35,2.103c0.212,0.104,0.426,0.205,0.782,0.378c-0.32,0.173-0.523,0.282-0.779,0.419
            c0.088,1.185,0.769,1.902,1.937,2.336c0.154-0.21,0.313-0.42,0.554-0.74c0.142,0.33,0.231,0.544,0.341,0.797
            c1.214-0.151,1.991-0.807,2.388-2.024c-0.229-0.152-0.446-0.296-0.811-0.533c0.374-0.125,0.591-0.195,0.833-0.275
            C358.168,457.66,357.459,456.923,356.203,456.461z M355.7,460.372c-0.769,0.037-1.417-0.631-1.402-1.393
            c0.014-0.74,0.601-1.319,1.351-1.331c0.793-0.01,1.45,0.621,1.388,1.381C356.976,459.843,356.531,460.332,355.7,460.372z"/>
        <path fill="#FFD800" d="M281.818,458.58c0.199-0.703-0.934-1.821-2.229-2.112c-0.113,0.224-0.232,0.46-0.42,0.826
            c-0.188-0.33-0.304-0.536-0.441-0.777c-1.203,0.22-1.804,1.008-2.109,2.205c0.259,0.131,0.491,0.251,0.845,0.431
            c-0.313,0.222-0.526,0.371-0.765,0.542c0.263,0.991,0.844,1.683,1.854,1.894c0.216,0.044,0.51-0.284,0.796-0.454
            c0.999,0.815,2.173,0.065,2.523-1.768c-0.224-0.07-0.45-0.137-0.941-0.282C281.359,458.84,281.582,458.713,281.818,458.58z
             M279.353,460.399c-0.721,0.049-1.417-0.602-1.453-1.354c-0.04-0.748,0.587-1.424,1.344-1.455
            c0.778-0.034,1.433,0.566,1.454,1.333C280.718,459.664,280.094,460.352,279.353,460.399z"/>
        <path fill="#FFD800" d="M282.748,440.068c-5.002-0.119-8.365,2.544-9.356,7.472c-0.123,0.617-0.206,1.243-0.331,2.029
            c2.501-0.129,4.807-0.249,7.114-0.371c1.006-0.055,2.01-0.152,3.018-0.164c0.748-0.012,1.06-0.222,0.996-1.062
            c-0.177-2.275-0.281-4.556-0.363-6.838C283.798,440.367,283.522,440.087,282.748,440.068z"/>
        <path fill="#FFD800" d="M312.333,457.029c-0.229-1.251-1.014-1.909-2.309-2.237c-0.101,0.291-0.184,0.519-0.324,0.921
            c-0.22-0.363-0.353-0.583-0.5-0.823c-1.22,0.272-1.882,1.053-2.12,2.335c0.223,0.081,0.442,0.159,0.818,0.293
            c-0.301,0.207-0.492,0.335-0.73,0.498c0.211,1.171,0.96,1.814,2.167,2.123c0.135-0.226,0.271-0.45,0.478-0.797
            c0.173,0.315,0.285,0.519,0.418,0.758c1.192-0.276,1.896-1.012,2.166-2.263c-0.246-0.126-0.476-0.247-0.861-0.443
            C311.893,457.231,312.1,457.137,312.333,457.029z M309.93,458.733c-0.76,0.118-1.474-0.478-1.539-1.234
            c-0.065-0.74,0.462-1.378,1.204-1.464c0.79-0.094,1.506,0.465,1.527,1.226C311.143,458.074,310.756,458.608,309.93,458.733z"/>
        <path fill="#FFD800" d="M324.195,459.929c0.208,0.066,0.536-0.228,0.841-0.369c0.906,0.919,2.151,0.295,2.692-1.495
            c-0.216-0.089-0.434-0.181-0.906-0.377c0.45-0.197,0.685-0.302,0.934-0.409c0.274-0.678-0.739-1.908-1.995-2.332
            c-0.135,0.209-0.279,0.433-0.506,0.778c-0.151-0.349-0.245-0.565-0.357-0.819c-1.218,0.096-1.899,0.814-2.326,1.974
            c0.244,0.156,0.463,0.3,0.797,0.515c-0.335,0.188-0.563,0.315-0.815,0.459C322.706,458.864,323.216,459.615,324.195,459.929z
             M325.302,456.025c0.779,0.049,1.364,0.711,1.307,1.477c-0.059,0.742-0.751,1.357-1.492,1.33
            c-0.723-0.029-1.347-0.747-1.307-1.5C323.853,456.587,324.544,455.977,325.302,456.025z"/>
        <path fill="#FFD800" d="M330.574,449.431c-0.808-0.043-1.614-0.085-2.428-0.129
            C328.553,449.836,329.612,449.954,330.574,449.431z"/>
        <path fill="#FFD800" d="M320.061,392.169c-30.574,0-55.36,24.786-55.36,55.361c0,30.572,24.786,55.358,55.36,55.358
            c30.575,0,55.361-24.786,55.361-55.358C375.422,416.955,350.636,392.169,320.061,392.169z M344.231,424.915l1.398,1.348
            l-3.717,0.376L344.231,424.915z M334.121,419.854l1.291,0.59l-3.985,4.526L334.121,419.854z M337.076,426.317v1.778
            l-9.804,6.304L337.076,426.317z M332.395,425.399l1.293,0.702l-4.307,4.253L332.395,425.399z M327.227,420.521l2.044,0.862
            l-2.044,11.311V420.521z M325.358,424.653l0.757,7.001l-2.964-6.302L325.358,424.653z M319.9,412.129l0.106,6.787l-2.8-6.463
            L319.9,412.129z M317.351,419.334l7.431,12.551l-9.426-11.42L317.351,419.334z M323.294,431.562l-5.765-3.178l0.322-1.401
            L323.294,431.562z M316.991,429.334l-5.334-3.071l-0.16-1.67L316.991,429.334z M309.772,417.698l2.371,3.717l-4.526-3.61
            L309.772,417.698z M279.689,464.887c-3.245,0.205-5.992-2.18-6.221-5.409c-0.222-3.107,2.192-5.938,5.256-6.16
            c3.355-0.246,6.135,2.165,6.34,5.497C285.253,461.873,282.758,464.693,279.689,464.887z M310.172,463.259
            c-3.216,0.25-5.969-2.154-6.198-5.414c-0.221-3.163,2.198-5.936,5.369-6.153c3.187-0.215,5.979,2.263,6.181,5.478
            C315.716,460.26,313.293,463.016,310.172,463.259z M355.469,464.897c-3.227-0.087-5.713-2.768-5.602-6.034
            c0.112-3.167,2.808-5.676,5.982-5.558c3.19,0.119,5.71,2.875,5.576,6.096C361.293,462.492,358.597,464.979,355.469,464.897z
             M366.267,453.944c-0.286,4.743-2.275,4.286-3.165,4.214c-0.741-0.062-1.16-0.201-1.419-1.031
            c-0.801-2.588-3.136-4.3-5.785-4.418c-2.603-0.116-5.038,1.365-6.092,3.83c-0.319,0.743-0.718,0.877-1.444,0.836
            c-5.271-0.301-10.539-0.574-15.808-0.821c-0.735-0.034-1.115-0.213-1.327-1c-0.691-2.542-2.954-4.303-5.598-4.494
            c-2.687-0.197-5.049,1.173-6.205,3.606c-0.315,0.657,0.023,1.024,0.206,1.168c0.748-2.406,3.031-4.194,5.599-4.113
            c3.364,0.107,5.879,2.796,5.731,6.13c-0.132,3.063-2.906,5.605-5.98,5.479c-3.248-0.135-5.729-2.797-5.622-6.03
            c0.016-0.499,0.124-0.979,0.264-1.443c-0.08-0.032-0.196-0.077-0.408-0.145c-0.215-0.069-0.395-0.181-0.56-0.308
            c-0.556,0.385-1.189,0.345-1.592,0.354c-0.745,0.019-1.178-0.078-1.519-0.876c-1.067-2.487-3.569-3.948-6.216-3.788
            c-2.598,0.155-4.868,1.882-5.658,4.448c-0.24,0.771-0.622,0.947-1.35,0.98c-5.27,0.252-10.539,0.53-15.809,0.835
            c-0.731,0.045-1.128-0.095-1.424-0.856c-0.953-2.454-3.384-3.968-6.035-3.883c-2.694,0.084-4.896,1.693-5.797,4.235
            c-0.454,1.284-1.013,1.59-2.39,1.302c-1.334-0.277-1.907-1.869-0.913-2.789c0.59-0.548,0.685-1.089,0.606-1.78
            c-0.339-2.905,0.101-5.702,1.283-8.366c1.839-4.151,4.797-6.925,9.486-7.45c1.157-0.127,2.328-0.131,3.633-0.2
            c-0.081-1.552-0.141-3.121-0.256-4.684c-0.054-0.729,0.181-0.998,0.938-1.035c10.672-0.54,21.346-1.099,32.015-1.682
            c0.757-0.04,0.997,0.185,1.028,0.926c0.11,2.718,0.281,5.436,0.422,8.152c0.174,3.299,0.348,6.6,0.542,9.898
            c0.559-2.183,1.922-4.252,3.04-6.197c2.263-3.936,4.343-6.386,9.06-6.415c1.165-0.007,0.026,0.112,1.33,0.182
            c0.08-1.555,0.188-3.12,0.234-4.687c0.022-0.73,0.281-0.974,1.038-0.934c10.672,0.58,21.344,1.142,32.019,1.677
            c0.758,0.037,0.971,0.288,0.923,1.025c-0.173,2.717-0.287,5.438-0.428,8.155c-0.209,3.993-0.437,7.986-0.602,11.982
            L366.267,453.944z"/>
        <path fill="#FFD800" d="M330.616,438.965c-4.961-0.64-6.28,1.659-7.782,6.456c-0.185,0.6-0.334,1.214-0.541,1.982
            c2.504,0.132,2.504,0.253,4.81,0.373c1.007,0.051,2.017,0.061,3.019,0.153c0.745,0.068,1.077-0.112,1.102-0.951
            c0.063-2.282,0.195-4.562,0.355-6.84C331.63,439.374,331.384,439.067,330.616,438.965z"/>
    </g>
</g>
</svg>
