<?xml version="1.0" encoding="utf-8"?>
<!-- Generator: Adobe Illustrator 16.0.3, SVG Export Plug-In . SVG Version: 6.00 Build 0)  -->
<!DOCTYPE svg PUBLIC "-//W3C//DTD SVG 1.1//EN" "http://www.w3.org/Graphics/SVG/1.1/DTD/svg11.dtd">
<svg version="1.1" xmlns="http://www.w3.org/2000/svg" xmlns:xlink="http://www.w3.org/1999/xlink" x="0px" y="0px" width="640px"
	 height="1136px" viewBox="0 0 640 1136" enable-background="new 0 0 640 1136" xml:space="preserve">
<g id="Ebene_2">
	<g id="IMG_x5F_5816.psd">
		
			<image overflow="visible" width="779" height="1382" id="IMG_x5F_5816" xlink:href="98E3ED2B.jpg"  transform="matrix(0.8235 0 0 0.8235 -0.0024 -0.0029)">
		</image>
	</g>
</g>
<g id="Ebene_1">
	<rect x="210.789" y="963.455" opacity="0.5" width="218" height="174.545"/>
	<g>
		
			<image overflow="visible" opacity="0.15" width="133" height="155" xlink:href="98E3ED29.png"  transform="matrix(1 0 0 1 253 727)">
		</image>
		<g>
			<g>
				
					<text transform="matrix(1 0 0 1 259.8735 869.8223)" opacity="0.8" fill="#FFFFFF" font-family="'HelveticaNeue-Light'" font-size="25.77">Hohenlohe</text>
				<g opacity="0.9">
					<path fill="#FFD800" d="M283.8,791.674c-0.809,0.042-1.616,0.086-2.427,0.128C281.832,792.288,282.897,792.297,283.8,791.674z"
						/>
					<path fill="#FFD800" d="M356.204,797.654c-0.13,0.28-0.232,0.497-0.417,0.884c-0.185-0.388-0.293-0.616-0.415-0.873
						c-1.24,0.146-1.978,0.852-2.35,2.103c0.212,0.104,0.426,0.205,0.782,0.378c-0.32,0.174-0.523,0.281-0.779,0.418
						c0.088,1.186,0.769,1.902,1.937,2.336c0.154-0.21,0.313-0.418,0.554-0.741c0.142,0.332,0.231,0.547,0.341,0.797
						c1.214-0.149,1.991-0.806,2.388-2.024c-0.229-0.15-0.446-0.296-0.811-0.531c0.374-0.125,0.591-0.196,0.833-0.275
						C358.169,798.855,357.46,798.116,356.204,797.654z M355.701,801.567c-0.769,0.036-1.417-0.631-1.402-1.395
						c0.014-0.739,0.601-1.317,1.351-1.328c0.794-0.012,1.45,0.62,1.388,1.381C356.977,801.037,356.532,801.528,355.701,801.567z"/>
					<path fill="#FFD800" d="M281.818,799.774c0.199-0.703-0.934-1.821-2.229-2.111c-0.113,0.223-0.232,0.46-0.42,0.827
						c-0.188-0.331-0.304-0.539-0.441-0.777c-1.203,0.22-1.804,1.007-2.109,2.203c0.259,0.131,0.491,0.25,0.845,0.431
						c-0.313,0.222-0.526,0.371-0.765,0.542c0.263,0.993,0.844,1.685,1.854,1.894c0.216,0.044,0.51-0.284,0.796-0.454
						c0.999,0.816,2.173,0.066,2.523-1.768c-0.224-0.069-0.45-0.136-0.941-0.282C281.359,800.033,281.582,799.907,281.818,799.774z
						 M279.353,801.595c-0.721,0.048-1.417-0.603-1.453-1.355c-0.04-0.747,0.587-1.424,1.344-1.454
						c0.778-0.034,1.433,0.564,1.454,1.332C280.718,800.858,280.094,801.546,279.353,801.595z"/>
					<path fill="#FFD800" d="M282.748,781.264c-5.002-0.12-8.365,2.545-9.356,7.471c-0.123,0.617-0.206,1.244-0.331,2.03
						c2.501-0.131,4.807-0.249,7.114-0.372c1.006-0.055,2.01-0.151,3.018-0.164c0.748-0.011,1.06-0.223,0.996-1.061
						c-0.177-2.274-0.281-4.557-0.363-6.838C283.798,781.562,283.522,781.282,282.748,781.264z"/>
					<path fill="#FFD800" d="M312.333,798.226c-0.229-1.252-1.014-1.911-2.309-2.239c-0.101,0.292-0.184,0.519-0.324,0.92
						c-0.22-0.363-0.353-0.58-0.5-0.823c-1.22,0.275-1.882,1.055-2.12,2.337c0.223,0.08,0.442,0.159,0.818,0.294
						c-0.301,0.206-0.492,0.333-0.73,0.497c0.211,1.17,0.96,1.813,2.167,2.123c0.135-0.226,0.271-0.451,0.478-0.798
						c0.173,0.315,0.285,0.519,0.418,0.759c1.192-0.277,1.896-1.013,2.166-2.264c-0.246-0.126-0.476-0.246-0.861-0.442
						C311.893,798.427,312.1,798.331,312.333,798.226z M309.93,799.93c-0.76,0.116-1.474-0.479-1.539-1.237
						c-0.065-0.739,0.462-1.375,1.204-1.462c0.79-0.096,1.506,0.464,1.527,1.226C311.143,799.27,310.756,799.803,309.93,799.93z"/>
					<path fill="#FFD800" d="M324.196,801.123c0.208,0.067,0.536-0.228,0.841-0.368c0.906,0.917,2.151,0.295,2.692-1.496
						c-0.216-0.089-0.434-0.18-0.906-0.376c0.45-0.197,0.685-0.301,0.934-0.41c0.274-0.677-0.739-1.907-1.995-2.331
						c-0.135,0.208-0.279,0.433-0.506,0.779c-0.151-0.352-0.245-0.567-0.357-0.82c-1.218,0.096-1.899,0.813-2.326,1.973
						c0.244,0.157,0.463,0.299,0.797,0.516c-0.335,0.188-0.563,0.314-0.815,0.458C322.707,800.061,323.217,800.811,324.196,801.123z
						 M325.303,797.221c0.779,0.048,1.365,0.712,1.307,1.476c-0.059,0.743-0.751,1.359-1.492,1.33
						c-0.723-0.028-1.347-0.746-1.307-1.5C323.854,797.781,324.545,797.171,325.303,797.221z"/>
					<path fill="#FFD800" d="M330.575,790.625c-0.808-0.041-1.614-0.083-2.428-0.128
						C328.554,791.03,329.613,791.149,330.575,790.625z"/>
					<path fill="#FFD800" d="M320.062,733.364c-30.575,0-55.361,24.786-55.361,55.359c0,30.574,24.786,55.36,55.361,55.36
						s55.361-24.786,55.361-55.36C375.423,758.15,350.637,733.364,320.062,733.364z M344.232,766.109l1.398,1.348l-3.717,0.377
						L344.232,766.109z M334.122,761.048l1.291,0.59l-3.985,4.528L334.122,761.048z M337.077,767.514v1.776l-9.804,6.304
						L337.077,767.514z M332.396,766.595l1.293,0.701l-4.307,4.254L332.396,766.595z M327.228,761.716l2.044,0.862l-2.044,11.311
						V761.716z M325.359,765.847l0.757,7.002l-2.964-6.303L325.359,765.847z M319.901,753.324l0.106,6.786l-2.8-6.463
						L319.901,753.324z M317.352,760.528l7.431,12.552l-9.427-11.42L317.352,760.528z M323.295,772.756l-5.765-3.178l0.322-1.401
						L323.295,772.756z M316.991,770.528l-5.334-3.071l-0.16-1.67L316.991,770.528z M309.772,758.892l2.371,3.719l-4.526-3.609
						L309.772,758.892z M279.689,806.081c-3.245,0.205-5.992-2.18-6.221-5.408c-0.222-3.109,2.192-5.938,5.256-6.161
						c3.355-0.245,6.135,2.164,6.34,5.497C285.253,803.068,282.758,805.887,279.689,806.081z M310.172,804.453
						c-3.216,0.252-5.969-2.155-6.198-5.414c-0.221-3.163,2.198-5.936,5.369-6.152c3.187-0.214,5.979,2.264,6.181,5.479
						C315.716,801.454,313.293,804.211,310.172,804.453z M355.47,806.092c-3.227-0.085-5.713-2.767-5.602-6.033
						c0.112-3.167,2.808-5.677,5.982-5.557c3.19,0.118,5.71,2.873,5.576,6.094C361.294,803.688,358.598,806.174,355.47,806.092z
						 M366.268,795.139c-0.286,4.744-2.275,4.285-3.165,4.213c-0.741-0.061-1.16-0.2-1.419-1.029c-0.801-2.589-3.136-4.3-5.785-4.42
						c-2.603-0.115-5.038,1.365-6.092,3.832c-0.319,0.742-0.717,0.876-1.444,0.835c-5.271-0.3-10.539-0.573-15.808-0.82
						c-0.735-0.035-1.114-0.212-1.327-1c-0.691-2.543-2.954-4.302-5.598-4.495c-2.687-0.196-5.048,1.174-6.205,3.605
						c-0.315,0.658,0.023,1.027,0.206,1.169c0.748-2.404,3.031-4.193,5.6-4.113c3.363,0.109,5.878,2.797,5.73,6.131
						c-0.132,3.063-2.906,5.604-5.98,5.479c-3.247-0.137-5.729-2.797-5.622-6.03c0.016-0.5,0.124-0.979,0.264-1.442
						c-0.08-0.032-0.196-0.078-0.408-0.147c-0.215-0.067-0.395-0.18-0.56-0.306c-0.556,0.385-1.189,0.344-1.592,0.354
						c-0.746,0.019-1.179-0.08-1.52-0.876c-1.067-2.487-3.569-3.949-6.216-3.789c-2.598,0.156-4.868,1.883-5.658,4.448
						c-0.24,0.771-0.622,0.947-1.35,0.98c-5.27,0.253-10.539,0.53-15.809,0.836c-0.731,0.044-1.128-0.095-1.424-0.857
						c-0.953-2.454-3.384-3.968-6.035-3.883c-2.694,0.084-4.896,1.693-5.797,4.235c-0.454,1.284-1.013,1.591-2.39,1.302
						c-1.334-0.277-1.907-1.868-0.913-2.789c0.59-0.546,0.685-1.089,0.606-1.78c-0.339-2.905,0.101-5.702,1.283-8.365
						c1.839-4.153,4.797-6.927,9.486-7.451c1.157-0.127,2.328-0.131,3.633-0.199c-0.081-1.552-0.141-3.12-0.256-4.684
						c-0.054-0.729,0.181-0.998,0.938-1.036c10.672-0.538,21.346-1.097,32.016-1.682c0.757-0.04,0.997,0.185,1.028,0.926
						c0.11,2.718,0.281,5.437,0.422,8.153c0.174,3.298,0.348,6.599,0.542,9.897c0.559-2.182,1.922-4.252,3.04-6.196
						c2.263-3.936,4.343-6.387,9.06-6.414c1.165-0.008,0.026,0.111,1.33,0.179c0.08-1.553,0.188-3.119,0.234-4.685
						c0.022-0.732,0.281-0.973,1.038-0.935c10.672,0.581,21.344,1.141,32.019,1.676c0.758,0.039,0.971,0.289,0.924,1.028
						c-0.174,2.716-0.288,5.435-0.429,8.153c-0.209,3.994-0.437,7.987-0.602,11.982L366.268,795.139z"/>
					<path fill="#FFD800" d="M330.617,780.161c-4.961-0.642-6.28,1.657-7.782,6.455c-0.185,0.6-0.334,1.214-0.541,1.981
						c2.504,0.132,2.504,0.255,4.81,0.372c1.007,0.053,2.017,0.062,3.019,0.154c0.745,0.068,1.077-0.111,1.102-0.952
						c0.063-2.28,0.195-4.561,0.355-6.837C331.631,780.568,331.385,780.261,330.617,780.161z"/>
				</g>
			</g>
		</g>
	</g>
	
		<text transform="matrix(1 0 0 1 254.7886 1006.9844)" opacity="0.8" fill="#FFFFFF" font-family="'HelveticaNeue-Light'" font-size="25">Tour starten</text>
	
		<text transform="matrix(1 0 0 1 -292.2119 -8.0146)" opacity="0.8" fill="#FFFFFF" font-family="'HelveticaNeue-Light'" font-size="25">Tour starten</text>
	<line opacity="0.8" fill="none" stroke="#FFFFFF" stroke-miterlimit="10" x1="53.831" y1="917.979" x2="585.746" y2="917.979"/>
	<g opacity="0.8">
		<polyline opacity="0.8" fill="none" stroke="#FFFFFF" stroke-linecap="round" stroke-miterlimit="10" points="406.166,1014.595 
			319.789,1067.405 233.411,1014.595 		"/>
		<polyline opacity="0.8" fill="none" stroke="#FFFFFF" stroke-linecap="round" stroke-miterlimit="10" points="406.166,1038.227 
			319.789,1091.037 233.411,1038.227 		"/>
		<polyline opacity="0.8" fill="none" stroke="#FFFFFF" stroke-linecap="round" stroke-miterlimit="10" points="406.166,1061.858 
			319.789,1114.672 233.411,1061.858 		"/>
	</g>
	<g>
		
			<image overflow="visible" opacity="0.15" width="124" height="154" xlink:href="98E3ED2F.png"  transform="matrix(1 0 0 1 258 41)">
		</image>
		<g>
			<g>
				
					<text transform="matrix(1 0 0 1 267.2676 183.0425)" opacity="0.8" fill="#FFFFFF" font-family="'HelveticaNeue-Light'" font-size="25.77">Steinsfurt</text>
				<g opacity="0.9">
					<path fill="#FFD800" d="M283.526,105.552c-0.808,0.042-1.616,0.084-2.426,0.128
						C281.559,106.167,282.624,106.175,283.526,105.552z"/>
					<path fill="#FFD800" d="M355.931,111.533c-0.13,0.279-0.232,0.498-0.417,0.883c-0.186-0.387-0.293-0.616-0.416-0.874
						c-1.24,0.148-1.977,0.852-2.35,2.103c0.213,0.105,0.426,0.206,0.782,0.378c-0.319,0.173-0.523,0.282-0.778,0.419
						c0.087,1.186,0.769,1.903,1.937,2.335c0.154-0.209,0.313-0.418,0.554-0.74c0.142,0.332,0.231,0.546,0.34,0.798
						c1.214-0.151,1.992-0.807,2.388-2.025c-0.229-0.152-0.445-0.296-0.811-0.532c0.375-0.125,0.592-0.197,0.834-0.276
						C357.896,112.733,357.186,111.994,355.931,111.533z M355.427,115.446c-0.768,0.036-1.416-0.631-1.401-1.394
						c0.014-0.74,0.601-1.319,1.351-1.33c0.793-0.011,1.449,0.62,1.387,1.38C356.702,114.916,356.259,115.406,355.427,115.446z"/>
					<path fill="#FFD800" d="M281.544,113.652c0.199-0.703-0.934-1.821-2.229-2.112c-0.113,0.223-0.232,0.459-0.419,0.827
						c-0.188-0.33-0.305-0.538-0.441-0.777c-1.203,0.219-1.805,1.007-2.109,2.204c0.259,0.132,0.491,0.25,0.845,0.431
						c-0.313,0.222-0.526,0.372-0.764,0.541c0.263,0.993,0.843,1.685,1.853,1.894c0.216,0.045,0.51-0.283,0.796-0.455
						c0.998,0.816,2.173,0.067,2.522-1.768c-0.224-0.069-0.45-0.135-0.94-0.281C281.086,113.912,281.309,113.785,281.544,113.652z
						 M279.08,115.472c-0.721,0.049-1.417-0.602-1.453-1.355c-0.04-0.746,0.587-1.423,1.344-1.454
						c0.778-0.035,1.433,0.566,1.454,1.332C280.445,114.737,279.82,115.424,279.08,115.472z"/>
					<path fill="#FFD800" d="M282.475,95.141c-5.002-0.119-8.365,2.545-9.357,7.472c-0.123,0.618-0.205,1.243-0.331,2.029
						c2.501-0.13,4.807-0.249,7.114-0.371c1.006-0.054,2.01-0.151,3.018-0.164c0.748-0.011,1.061-0.222,0.996-1.062
						c-0.177-2.274-0.281-4.556-0.362-6.837C283.524,95.44,283.249,95.159,282.475,95.141z"/>
					<path fill="#FFD800" d="M312.06,112.103c-0.229-1.251-1.014-1.911-2.309-2.238c-0.101,0.292-0.183,0.519-0.324,0.92
						c-0.22-0.364-0.353-0.582-0.5-0.823c-1.219,0.274-1.882,1.054-2.119,2.336c0.222,0.081,0.442,0.16,0.818,0.293
						c-0.302,0.208-0.492,0.335-0.731,0.498c0.211,1.171,0.96,1.814,2.167,2.123c0.134-0.225,0.27-0.45,0.477-0.797
						c0.173,0.316,0.285,0.519,0.418,0.759c1.192-0.278,1.896-1.013,2.166-2.264c-0.246-0.126-0.476-0.247-0.861-0.443
						C311.619,112.304,311.827,112.208,312.06,112.103z M309.657,113.807c-0.76,0.117-1.474-0.479-1.539-1.236
						c-0.065-0.739,0.462-1.377,1.204-1.463c0.789-0.094,1.506,0.465,1.526,1.225C310.87,113.147,310.483,113.682,309.657,113.807z"
						/>
					<path fill="#FFD800" d="M323.923,115.001c0.208,0.067,0.536-0.229,0.84-0.369c0.907,0.918,2.152,0.296,2.693-1.495
						c-0.216-0.089-0.435-0.181-0.906-0.377c0.45-0.196,0.685-0.301,0.933-0.409c0.275-0.678-0.738-1.909-1.995-2.332
						c-0.135,0.209-0.278,0.433-0.505,0.779c-0.152-0.35-0.246-0.566-0.357-0.82c-1.218,0.096-1.899,0.815-2.326,1.974
						c0.243,0.157,0.463,0.299,0.796,0.516c-0.334,0.187-0.563,0.315-0.815,0.459C322.434,113.938,322.943,114.688,323.923,115.001z
						 M325.028,111.099c0.779,0.048,1.365,0.711,1.307,1.476c-0.058,0.742-0.751,1.358-1.491,1.33
						c-0.723-0.029-1.348-0.746-1.307-1.499C323.58,111.659,324.271,111.05,325.028,111.099z"/>
					<path fill="#FFD800" d="M330.302,104.503c-0.808-0.042-1.615-0.085-2.429-0.128
						C328.28,104.909,329.339,105.027,330.302,104.503z"/>
					<path fill="#FFD800" d="M319.788,47.242c-30.574,0-55.36,24.786-55.36,55.361c0,30.573,24.786,55.359,55.36,55.359
						s55.361-24.786,55.361-55.359C375.149,72.028,350.362,47.242,319.788,47.242z M343.959,79.987l1.397,1.348l-3.716,0.376
						L343.959,79.987z M333.848,74.925l1.292,0.591l-3.985,4.526L333.848,74.925z M336.804,81.392v1.776L327,89.472L336.804,81.392z
						 M332.121,80.472l1.294,0.702l-4.308,4.254L332.121,80.472z M326.953,75.594l2.045,0.862l-2.045,11.312V75.594z
						 M325.086,79.726l0.756,7.001l-2.963-6.301L325.086,79.726z M319.627,67.201l0.107,6.788l-2.801-6.462L319.627,67.201z
						 M317.078,74.406l7.431,12.551l-9.426-11.419L317.078,74.406z M323.021,86.636l-5.765-3.179l0.322-1.402L323.021,86.636z
						 M316.717,84.406l-5.333-3.071l-0.161-1.67L316.717,84.406z M309.499,72.77l2.372,3.718l-4.526-3.61L309.499,72.77z
						 M279.417,119.96c-3.246,0.205-5.993-2.181-6.221-5.41c-0.222-3.107,2.192-5.937,5.257-6.16
						c3.355-0.245,6.134,2.164,6.34,5.497C284.979,116.946,282.484,119.765,279.417,119.96z M309.899,118.331
						c-3.216,0.252-5.968-2.154-6.198-5.414c-0.222-3.163,2.198-5.936,5.369-6.153c3.187-0.214,5.979,2.264,6.181,5.479
						C315.442,115.333,313.02,118.089,309.899,118.331z M355.195,119.97c-3.226-0.086-5.712-2.768-5.601-6.034
						c0.111-3.168,2.808-5.676,5.982-5.558c3.19,0.119,5.71,2.875,5.576,6.095C361.021,117.564,358.324,120.053,355.195,119.97z
						 M365.994,109.018c-0.286,4.742-2.275,4.285-3.165,4.213c-0.742-0.061-1.161-0.201-1.42-1.031
						c-0.8-2.588-3.135-4.3-5.785-4.419c-2.602-0.115-5.038,1.366-6.091,3.831c-0.32,0.743-0.718,0.878-1.444,0.836
						c-5.271-0.301-10.54-0.575-15.809-0.821c-0.734-0.035-1.114-0.213-1.326-1c-0.692-2.543-2.955-4.302-5.599-4.495
						c-2.687-0.196-5.048,1.173-6.205,3.606c-0.315,0.657,0.023,1.025,0.207,1.168c0.748-2.405,3.031-4.193,5.599-4.113
						c3.364,0.108,5.879,2.797,5.73,6.131c-0.132,3.063-2.905,5.604-5.979,5.478c-3.248-0.135-5.729-2.797-5.623-6.03
						c0.016-0.501,0.124-0.979,0.264-1.443c-0.08-0.033-0.196-0.078-0.408-0.146c-0.215-0.068-0.395-0.18-0.56-0.308
						c-0.556,0.386-1.189,0.345-1.591,0.354c-0.746,0.019-1.179-0.079-1.52-0.875c-1.068-2.489-3.57-3.949-6.217-3.79
						c-2.598,0.156-4.868,1.882-5.658,4.449c-0.24,0.771-0.622,0.947-1.35,0.98c-5.27,0.252-10.539,0.53-15.809,0.834
						c-0.731,0.045-1.128-0.094-1.424-0.855c-0.952-2.456-3.384-3.969-6.035-3.884c-2.694,0.084-4.896,1.694-5.797,4.236
						c-0.454,1.283-1.013,1.589-2.389,1.301c-1.334-0.278-1.907-1.869-0.913-2.79c0.59-0.546,0.685-1.089,0.606-1.781
						c-0.339-2.905,0.101-5.702,1.283-8.365c1.839-4.152,4.797-6.926,9.486-7.45c1.157-0.128,2.328-0.131,3.633-0.2
						c-0.081-1.552-0.141-3.121-0.256-4.684c-0.054-0.729,0.181-0.998,0.938-1.036c10.672-0.539,21.346-1.098,32.016-1.682
						c0.757-0.04,0.997,0.187,1.028,0.927c0.111,2.717,0.281,5.435,0.423,8.152c0.174,3.299,0.347,6.599,0.542,9.898
						c0.559-2.183,1.921-4.252,3.04-6.196c2.264-3.936,4.343-6.387,9.061-6.416c1.164-0.007,0.025,0.112,1.329,0.18
						c0.081-1.553,0.188-3.119,0.234-4.685c0.022-0.732,0.282-0.974,1.038-0.934c10.673,0.58,21.344,1.14,32.02,1.675
						c0.758,0.039,0.971,0.289,0.923,1.027c-0.173,2.716-0.288,5.436-0.428,8.155c-0.209,3.994-0.437,7.986-0.602,11.981
						L365.994,109.018z"/>
					<path fill="#FFD800" d="M330.344,94.039c-4.962-0.642-6.28,1.658-7.782,6.455c-0.186,0.6-0.334,1.214-0.542,1.982
						c2.505,0.132,2.505,0.254,4.81,0.374c1.007,0.052,2.017,0.061,3.02,0.153c0.745,0.068,1.077-0.11,1.102-0.952
						c0.062-2.281,0.194-4.561,0.354-6.837C331.357,94.448,331.11,94.14,330.344,94.039z"/>
				</g>
			</g>
		</g>
	</g>
	<g>
		
			<image overflow="visible" opacity="0.15" width="124" height="157" xlink:href="98E3ED28.png"  transform="matrix(1 0 0 1 258 212)">
		</image>
		<g>
			<g>
				
					<text transform="matrix(1 0 0 1 281.814 356.7715)" opacity="0.8" fill="#FFFFFF" font-family="'HelveticaNeue-Light'" font-size="25.77">Fürfeld</text>
				<g opacity="0.9">
					<path fill="#FFD800" d="M283.526,276.75c-0.808,0.04-1.616,0.084-2.426,0.127C281.559,277.363,282.624,277.372,283.526,276.75z
						"/>
					<path fill="#FFD800" d="M355.931,282.731c-0.13,0.277-0.232,0.495-0.417,0.882c-0.186-0.387-0.293-0.616-0.416-0.874
						c-1.24,0.146-1.977,0.852-2.35,2.104c0.213,0.105,0.426,0.206,0.782,0.379c-0.319,0.173-0.523,0.279-0.778,0.419
						c0.087,1.184,0.769,1.9,1.937,2.333c0.154-0.207,0.313-0.417,0.554-0.741c0.142,0.333,0.231,0.548,0.34,0.8
						c1.214-0.151,1.992-0.808,2.388-2.025c-0.229-0.151-0.445-0.296-0.811-0.531c0.375-0.125,0.592-0.197,0.834-0.276
						C357.896,283.931,357.186,283.192,355.931,282.731z M355.427,286.643c-0.768,0.036-1.416-0.632-1.401-1.393
						c0.014-0.741,0.601-1.319,1.351-1.331c0.793-0.01,1.449,0.62,1.387,1.381C356.702,286.111,356.259,286.603,355.427,286.643z"/>
					<path fill="#FFD800" d="M281.544,284.849c0.199-0.702-0.934-1.819-2.229-2.111c-0.113,0.224-0.232,0.461-0.419,0.827
						c-0.188-0.33-0.305-0.537-0.441-0.777c-1.203,0.22-1.805,1.007-2.109,2.205c0.259,0.131,0.491,0.249,0.845,0.431
						c-0.313,0.222-0.526,0.37-0.764,0.542c0.263,0.992,0.843,1.683,1.853,1.895c0.216,0.044,0.51-0.286,0.796-0.455
						c0.998,0.815,2.173,0.066,2.522-1.771c-0.224-0.068-0.45-0.135-0.94-0.279C281.086,285.108,281.309,284.982,281.544,284.849z
						 M279.08,286.669c-0.721,0.049-1.417-0.602-1.453-1.354c-0.04-0.747,0.587-1.424,1.344-1.454
						c0.778-0.034,1.433,0.566,1.454,1.331C280.445,285.935,279.82,286.621,279.08,286.669z"/>
					<path fill="#FFD800" d="M282.475,266.339c-5.002-0.119-8.365,2.545-9.357,7.472c-0.123,0.618-0.205,1.244-0.331,2.029
						c2.501-0.131,4.807-0.25,7.114-0.373c1.006-0.054,2.01-0.15,3.018-0.163c0.748-0.012,1.061-0.221,0.996-1.061
						c-0.177-2.275-0.281-4.556-0.362-6.837C283.524,266.637,283.249,266.357,282.475,266.339z"/>
					<path fill="#FFD800" d="M312.06,283.301c-0.229-1.252-1.014-1.91-2.309-2.238c-0.101,0.292-0.183,0.517-0.324,0.92
						c-0.22-0.364-0.353-0.582-0.5-0.823c-1.219,0.273-1.882,1.055-2.119,2.335c0.222,0.081,0.442,0.161,0.818,0.294
						c-0.302,0.207-0.492,0.334-0.731,0.497c0.211,1.17,0.96,1.814,2.167,2.124c0.134-0.226,0.27-0.451,0.477-0.797
						c0.173,0.313,0.285,0.518,0.418,0.757c1.192-0.275,1.896-1.013,2.166-2.263c-0.246-0.127-0.476-0.246-0.861-0.443
						C311.619,283.502,311.827,283.405,312.06,283.301z M309.657,285.004c-0.76,0.119-1.474-0.479-1.539-1.236
						c-0.065-0.738,0.462-1.375,1.204-1.461c0.789-0.095,1.506,0.465,1.526,1.224C310.87,284.344,310.483,284.877,309.657,285.004z"
						/>
					<path fill="#FFD800" d="M323.923,286.198c0.208,0.068,0.536-0.228,0.84-0.369c0.907,0.919,2.152,0.297,2.693-1.495
						c-0.216-0.089-0.435-0.182-0.906-0.377c0.45-0.197,0.685-0.3,0.933-0.408c0.275-0.679-0.738-1.907-1.995-2.332
						c-0.135,0.21-0.278,0.434-0.505,0.779c-0.152-0.351-0.246-0.567-0.357-0.821c-1.218,0.097-1.899,0.815-2.326,1.973
						c0.243,0.157,0.463,0.301,0.796,0.516c-0.334,0.188-0.563,0.316-0.815,0.459C322.434,285.135,322.943,285.886,323.923,286.198z
						 M325.028,282.296c0.779,0.049,1.365,0.711,1.307,1.477c-0.058,0.742-0.751,1.358-1.491,1.328
						c-0.723-0.026-1.348-0.745-1.307-1.498C323.58,282.858,324.271,282.248,325.028,282.296z"/>
					<path fill="#FFD800" d="M330.302,275.701c-0.808-0.043-1.615-0.085-2.429-0.129
						C328.28,276.105,329.339,276.225,330.302,275.701z"/>
					<path fill="#FFD800" d="M319.788,218.44c-30.574,0-55.36,24.785-55.36,55.358c0,30.576,24.786,55.361,55.36,55.361
						s55.361-24.785,55.361-55.361C375.149,243.225,350.362,218.44,319.788,218.44z M343.959,251.185l1.397,1.35l-3.716,0.374
						L343.959,251.185z M333.848,246.124l1.292,0.59l-3.985,4.527L333.848,246.124z M336.804,252.588v1.778L327,260.67
						L336.804,252.588z M332.121,251.67l1.294,0.701l-4.308,4.254L332.121,251.67z M326.953,246.79l2.045,0.863l-2.045,11.311
						V246.79z M325.086,250.921l0.756,7.005l-2.963-6.304L325.086,250.921z M319.627,238.4l0.107,6.786l-2.801-6.461L319.627,238.4z
						 M317.078,245.604l7.431,12.551l-9.426-11.42L317.078,245.604z M323.021,257.833l-5.765-3.179l0.322-1.403L323.021,257.833z
						 M316.717,255.604l-5.333-3.07l-0.161-1.671L316.717,255.604z M309.499,243.968l2.372,3.718l-4.526-3.609L309.499,243.968z
						 M279.417,291.156c-3.246,0.206-5.993-2.18-6.221-5.409c-0.222-3.106,2.192-5.938,5.257-6.161
						c3.355-0.243,6.134,2.165,6.34,5.499C284.979,288.143,282.484,290.962,279.417,291.156z M309.899,289.528
						c-3.216,0.251-5.968-2.154-6.198-5.414c-0.222-3.163,2.198-5.936,5.369-6.152c3.187-0.214,5.979,2.263,6.181,5.478
						C315.442,286.53,313.02,289.286,309.899,289.528z M355.195,291.167c-3.226-0.085-5.712-2.767-5.601-6.034
						c0.111-3.167,2.808-5.675,5.982-5.557c3.19,0.119,5.71,2.873,5.576,6.095C361.021,288.763,358.324,291.249,355.195,291.167z
						 M365.994,280.215c-0.286,4.743-2.275,4.284-3.165,4.214c-0.742-0.063-1.161-0.202-1.42-1.031
						c-0.8-2.589-3.135-4.301-5.785-4.419c-2.602-0.115-5.038,1.365-6.091,3.831c-0.32,0.743-0.718,0.878-1.444,0.836
						c-5.271-0.301-10.54-0.574-15.809-0.821c-0.734-0.035-1.114-0.212-1.326-1.001c-0.692-2.543-2.955-4.301-5.599-4.494
						c-2.687-0.197-5.048,1.174-6.205,3.606c-0.315,0.658,0.023,1.026,0.207,1.167c0.748-2.403,3.031-4.191,5.599-4.11
						c3.364,0.106,5.879,2.794,5.73,6.128c-0.132,3.063-2.905,5.607-5.979,5.48c-3.248-0.137-5.729-2.799-5.623-6.032
						c0.016-0.499,0.124-0.979,0.264-1.441c-0.08-0.032-0.196-0.078-0.408-0.146c-0.215-0.068-0.395-0.182-0.56-0.307
						c-0.556,0.385-1.189,0.345-1.591,0.353c-0.746,0.021-1.179-0.078-1.52-0.876c-1.068-2.488-3.57-3.947-6.217-3.789
						c-2.598,0.157-4.868,1.883-5.658,4.45c-0.24,0.771-0.622,0.945-1.35,0.98c-5.27,0.251-10.539,0.529-15.809,0.835
						c-0.731,0.044-1.128-0.095-1.424-0.855c-0.952-2.456-3.384-3.971-6.035-3.886c-2.694,0.085-4.896,1.695-5.797,4.238
						c-0.454,1.282-1.013,1.588-2.389,1.301c-1.334-0.278-1.907-1.869-0.913-2.791c0.59-0.546,0.685-1.087,0.606-1.779
						c-0.339-2.903,0.101-5.702,1.283-8.365c1.839-4.153,4.797-6.926,9.486-7.451c1.157-0.127,2.328-0.131,3.633-0.199
						c-0.081-1.553-0.141-3.121-0.256-4.684c-0.054-0.73,0.181-0.998,0.938-1.036c10.672-0.538,21.346-1.098,32.016-1.682
						c0.757-0.04,0.997,0.186,1.028,0.927c0.111,2.718,0.281,5.436,0.423,8.151c0.174,3.3,0.347,6.6,0.542,9.899
						c0.559-2.183,1.921-4.252,3.04-6.197c2.264-3.936,4.343-6.386,9.061-6.414c1.164-0.008,0.025,0.112,1.329,0.179
						c0.081-1.554,0.188-3.12,0.234-4.685c0.022-0.732,0.282-0.973,1.038-0.934c10.673,0.579,21.344,1.139,32.02,1.675
						c0.758,0.038,0.971,0.29,0.923,1.028c-0.173,2.716-0.288,5.435-0.428,8.154c-0.209,3.994-0.437,7.986-0.602,11.98
						L365.994,280.215z"/>
					<path fill="#FFD800" d="M330.344,265.235c-4.962-0.64-6.28,1.657-7.782,6.455c-0.186,0.6-0.334,1.214-0.542,1.983
						c2.505,0.131,2.505,0.253,4.81,0.372c1.007,0.053,2.017,0.061,3.02,0.153c0.745,0.068,1.077-0.111,1.102-0.952
						c0.062-2.281,0.194-4.561,0.354-6.838C331.357,265.645,331.11,265.336,330.344,265.235z"/>
				</g>
			</g>
		</g>
	</g>
	<g>
		
			<image overflow="visible" opacity="0.15" width="187" height="154" xlink:href="98E3ED2B.png"  transform="matrix(1 0 0 1 226 386)">
		</image>
		<g>
			<g>
				
					<text transform="matrix(1 0 0 1 232.9058 528.3408)" opacity="0.8" fill="#FFFFFF" font-family="'HelveticaNeue-Light'" font-size="25.77">Neckartalstraße</text>
				<g opacity="0.9">
					<path fill="#FFD800" d="M283.8,450.479c-0.809,0.041-1.616,0.085-2.427,0.128C281.832,451.095,282.897,451.104,283.8,450.479z"
						/>
					<path fill="#FFD800" d="M356.203,456.461c-0.13,0.278-0.232,0.496-0.417,0.882c-0.185-0.387-0.293-0.616-0.415-0.873
						c-1.24,0.148-1.978,0.852-2.35,2.103c0.212,0.104,0.426,0.205,0.782,0.378c-0.32,0.173-0.523,0.282-0.779,0.419
						c0.088,1.185,0.769,1.902,1.937,2.336c0.154-0.21,0.313-0.42,0.554-0.74c0.142,0.33,0.231,0.544,0.341,0.797
						c1.214-0.151,1.991-0.807,2.388-2.024c-0.229-0.152-0.446-0.296-0.811-0.533c0.374-0.125,0.591-0.195,0.833-0.275
						C358.168,457.66,357.459,456.923,356.203,456.461z M355.7,460.372c-0.769,0.037-1.417-0.631-1.402-1.393
						c0.014-0.74,0.601-1.319,1.351-1.331c0.793-0.01,1.45,0.621,1.388,1.381C356.976,459.843,356.531,460.332,355.7,460.372z"/>
					<path fill="#FFD800" d="M281.818,458.58c0.199-0.703-0.934-1.821-2.229-2.112c-0.113,0.224-0.232,0.46-0.42,0.826
						c-0.188-0.33-0.304-0.536-0.441-0.777c-1.203,0.22-1.804,1.008-2.109,2.205c0.259,0.131,0.491,0.251,0.845,0.431
						c-0.313,0.222-0.526,0.371-0.765,0.542c0.263,0.991,0.844,1.683,1.854,1.894c0.216,0.044,0.51-0.284,0.796-0.454
						c0.999,0.815,2.173,0.065,2.523-1.768c-0.224-0.07-0.45-0.137-0.941-0.282C281.359,458.84,281.582,458.713,281.818,458.58z
						 M279.353,460.399c-0.721,0.049-1.417-0.602-1.453-1.354c-0.04-0.748,0.587-1.424,1.344-1.455
						c0.778-0.034,1.433,0.566,1.454,1.333C280.718,459.664,280.094,460.352,279.353,460.399z"/>
					<path fill="#FFD800" d="M282.748,440.068c-5.002-0.119-8.365,2.544-9.356,7.472c-0.123,0.617-0.206,1.243-0.331,2.029
						c2.501-0.129,4.807-0.249,7.114-0.371c1.006-0.055,2.01-0.152,3.018-0.164c0.748-0.012,1.06-0.222,0.996-1.062
						c-0.177-2.275-0.281-4.556-0.363-6.838C283.798,440.367,283.522,440.087,282.748,440.068z"/>
					<path fill="#FFD800" d="M312.333,457.029c-0.229-1.251-1.014-1.909-2.309-2.237c-0.101,0.291-0.184,0.519-0.324,0.921
						c-0.22-0.363-0.353-0.583-0.5-0.823c-1.22,0.272-1.882,1.053-2.12,2.335c0.223,0.081,0.442,0.159,0.818,0.293
						c-0.301,0.207-0.492,0.335-0.73,0.498c0.211,1.171,0.96,1.814,2.167,2.123c0.135-0.226,0.271-0.45,0.478-0.797
						c0.173,0.315,0.285,0.519,0.418,0.758c1.192-0.276,1.896-1.012,2.166-2.263c-0.246-0.126-0.476-0.247-0.861-0.443
						C311.893,457.231,312.1,457.137,312.333,457.029z M309.93,458.733c-0.76,0.118-1.474-0.478-1.539-1.234
						c-0.065-0.74,0.462-1.378,1.204-1.464c0.79-0.094,1.506,0.465,1.527,1.226C311.143,458.074,310.756,458.608,309.93,458.733z"/>
					<path fill="#FFD800" d="M324.195,459.929c0.208,0.066,0.536-0.228,0.841-0.369c0.906,0.919,2.151,0.295,2.692-1.495
						c-0.216-0.089-0.434-0.181-0.906-0.377c0.45-0.197,0.685-0.302,0.934-0.409c0.274-0.678-0.739-1.908-1.995-2.332
						c-0.135,0.209-0.279,0.433-0.506,0.778c-0.151-0.349-0.245-0.565-0.357-0.819c-1.218,0.096-1.899,0.814-2.326,1.974
						c0.244,0.156,0.463,0.3,0.797,0.515c-0.335,0.188-0.563,0.315-0.815,0.459C322.706,458.864,323.216,459.615,324.195,459.929z
						 M325.302,456.025c0.779,0.049,1.364,0.711,1.307,1.477c-0.059,0.742-0.751,1.357-1.492,1.33
						c-0.723-0.029-1.347-0.747-1.307-1.5C323.853,456.587,324.544,455.977,325.302,456.025z"/>
					<path fill="#FFD800" d="M330.574,449.431c-0.808-0.043-1.614-0.085-2.428-0.129
						C328.553,449.836,329.612,449.954,330.574,449.431z"/>
					<path fill="#FFD800" d="M320.061,392.169c-30.574,0-55.36,24.786-55.36,55.361c0,30.572,24.786,55.358,55.36,55.358
						c30.575,0,55.361-24.786,55.361-55.358C375.422,416.955,350.636,392.169,320.061,392.169z M344.231,424.915l1.398,1.348
						l-3.717,0.376L344.231,424.915z M334.121,419.854l1.291,0.59l-3.985,4.526L334.121,419.854z M337.076,426.317v1.778
						l-9.804,6.304L337.076,426.317z M332.395,425.399l1.293,0.702l-4.307,4.253L332.395,425.399z M327.227,420.521l2.044,0.862
						l-2.044,11.311V420.521z M325.358,424.653l0.757,7.001l-2.964-6.302L325.358,424.653z M319.9,412.129l0.106,6.787l-2.8-6.463
						L319.9,412.129z M317.351,419.334l7.431,12.551l-9.426-11.42L317.351,419.334z M323.294,431.562l-5.765-3.178l0.322-1.401
						L323.294,431.562z M316.991,429.334l-5.334-3.071l-0.16-1.67L316.991,429.334z M309.772,417.698l2.371,3.717l-4.526-3.61
						L309.772,417.698z M279.689,464.887c-3.245,0.205-5.992-2.18-6.221-5.409c-0.222-3.107,2.192-5.938,5.256-6.16
						c3.355-0.246,6.135,2.165,6.34,5.497C285.253,461.873,282.758,464.693,279.689,464.887z M310.172,463.259
						c-3.216,0.25-5.969-2.154-6.198-5.414c-0.221-3.163,2.198-5.936,5.369-6.153c3.187-0.215,5.979,2.263,6.181,5.478
						C315.716,460.26,313.293,463.016,310.172,463.259z M355.469,464.897c-3.227-0.087-5.713-2.768-5.602-6.034
						c0.112-3.167,2.808-5.676,5.982-5.558c3.19,0.119,5.71,2.875,5.576,6.096C361.293,462.492,358.597,464.979,355.469,464.897z
						 M366.267,453.944c-0.286,4.743-2.275,4.286-3.165,4.214c-0.741-0.062-1.16-0.201-1.419-1.031
						c-0.801-2.588-3.136-4.3-5.785-4.418c-2.603-0.116-5.038,1.365-6.092,3.83c-0.319,0.743-0.718,0.877-1.444,0.836
						c-5.271-0.301-10.539-0.574-15.808-0.821c-0.735-0.034-1.115-0.213-1.327-1c-0.691-2.542-2.954-4.303-5.598-4.494
						c-2.687-0.197-5.049,1.173-6.205,3.606c-0.315,0.657,0.023,1.024,0.206,1.168c0.748-2.406,3.031-4.194,5.599-4.113
						c3.364,0.107,5.879,2.796,5.731,6.13c-0.132,3.063-2.906,5.605-5.98,5.479c-3.248-0.135-5.729-2.797-5.622-6.03
						c0.016-0.499,0.124-0.979,0.264-1.443c-0.08-0.032-0.196-0.077-0.408-0.145c-0.215-0.069-0.395-0.181-0.56-0.308
						c-0.556,0.385-1.189,0.345-1.592,0.354c-0.745,0.019-1.178-0.078-1.519-0.876c-1.067-2.487-3.569-3.948-6.216-3.788
						c-2.598,0.155-4.868,1.882-5.658,4.448c-0.24,0.771-0.622,0.947-1.35,0.98c-5.27,0.252-10.539,0.53-15.809,0.835
						c-0.731,0.045-1.128-0.095-1.424-0.856c-0.953-2.454-3.384-3.968-6.035-3.883c-2.694,0.084-4.896,1.693-5.797,4.235
						c-0.454,1.284-1.013,1.59-2.39,1.302c-1.334-0.277-1.907-1.869-0.913-2.789c0.59-0.548,0.685-1.089,0.606-1.78
						c-0.339-2.905,0.101-5.702,1.283-8.366c1.839-4.151,4.797-6.925,9.486-7.45c1.157-0.127,2.328-0.131,3.633-0.2
						c-0.081-1.552-0.141-3.121-0.256-4.684c-0.054-0.729,0.181-0.998,0.938-1.035c10.672-0.54,21.346-1.099,32.015-1.682
						c0.757-0.04,0.997,0.185,1.028,0.926c0.11,2.718,0.281,5.436,0.422,8.152c0.174,3.299,0.348,6.6,0.542,9.898
						c0.559-2.183,1.922-4.252,3.04-6.197c2.263-3.936,4.343-6.386,9.06-6.415c1.165-0.007,0.026,0.112,1.33,0.182
						c0.08-1.555,0.188-3.12,0.234-4.687c0.022-0.73,0.281-0.974,1.038-0.934c10.672,0.58,21.344,1.142,32.019,1.677
						c0.758,0.037,0.971,0.288,0.923,1.025c-0.173,2.717-0.287,5.438-0.428,8.155c-0.209,3.993-0.437,7.986-0.602,11.982
						L366.267,453.944z"/>
					<path fill="#FFD800" d="M330.616,438.965c-4.961-0.64-6.28,1.659-7.782,6.456c-0.185,0.6-0.334,1.214-0.541,1.982
						c2.504,0.132,2.504,0.253,4.81,0.373c1.007,0.051,2.017,0.061,3.019,0.153c0.745,0.068,1.077-0.112,1.102-0.951
						c0.063-2.282,0.195-4.562,0.355-6.84C331.63,439.374,331.384,439.067,330.616,438.965z"/>
				</g>
			</g>
		</g>
	</g>
	<g>
		
			<image overflow="visible" opacity="0.15" width="223" height="153" xlink:href="98E3ED27.png"  transform="matrix(1 0 0 1 208 557)">
		</image>
		<g>
			<g>
				<text transform="matrix(1 0 0 1 214.7632 697.9668)" opacity="0.8"><tspan x="0" y="0" fill="#FFFFFF" font-family="'HelveticaNeue-Light'" font-size="25.77">W</tspan><tspan x="22.91" y="0" fill="#FFFFFF" font-family="'HelveticaNeue-Light'" font-size="25.77">einsberger K</tspan><tspan x="163.25" y="0" fill="#FFFFFF" font-family="'HelveticaNeue-Light'" font-size="25.77">r</tspan><tspan x="170.905" y="0" fill="#FFFFFF" font-family="'HelveticaNeue-Light'" font-size="25.77">euz</tspan></text>
				<g opacity="0.9">
					<path fill="#FFD800" d="M283.799,622.048c-0.809,0.041-1.616,0.085-2.427,0.127
						C281.832,622.661,282.897,622.671,283.799,622.048z"/>
					<path fill="#FFD800" d="M356.203,628.029c-0.13,0.277-0.232,0.496-0.417,0.883c-0.185-0.388-0.293-0.616-0.415-0.874
						c-1.24,0.146-1.978,0.853-2.35,2.103c0.212,0.105,0.426,0.206,0.782,0.379c-0.32,0.173-0.523,0.282-0.779,0.419
						c0.088,1.185,0.769,1.901,1.937,2.334c0.154-0.208,0.313-0.418,0.554-0.74c0.142,0.332,0.231,0.546,0.341,0.798
						c1.214-0.151,1.991-0.808,2.388-2.025c-0.229-0.15-0.446-0.296-0.811-0.531c0.374-0.125,0.591-0.196,0.833-0.276
						C358.168,629.228,357.459,628.49,356.203,628.029z M355.7,631.941c-0.769,0.037-1.417-0.632-1.402-1.394
						c0.014-0.74,0.601-1.32,1.351-1.33c0.793-0.011,1.45,0.62,1.388,1.381C356.976,631.411,356.531,631.901,355.7,631.941z"/>
					<path fill="#FFD800" d="M281.817,630.149c0.199-0.705-0.934-1.821-2.229-2.113c-0.113,0.224-0.232,0.46-0.42,0.827
						c-0.188-0.331-0.304-0.537-0.441-0.778c-1.203,0.221-1.804,1.008-2.109,2.206c0.259,0.131,0.491,0.249,0.845,0.43
						c-0.313,0.222-0.526,0.37-0.765,0.542c0.263,0.992,0.844,1.684,1.854,1.894c0.216,0.045,0.51-0.284,0.796-0.454
						c0.999,0.815,2.173,0.066,2.523-1.768c-0.224-0.07-0.45-0.137-0.941-0.282C281.359,630.406,281.582,630.282,281.817,630.149z
						 M279.353,631.968c-0.721,0.05-1.417-0.601-1.453-1.355c-0.04-0.746,0.587-1.424,1.344-1.453
						c0.778-0.035,1.433,0.565,1.454,1.331C280.717,631.232,280.093,631.92,279.353,631.968z"/>
					<path fill="#FFD800" d="M282.747,611.637c-5.002-0.118-8.365,2.545-9.356,7.472c-0.123,0.618-0.206,1.244-0.331,2.029
						c2.501-0.13,4.807-0.249,7.114-0.371c1.006-0.055,2.01-0.151,3.018-0.164c0.748-0.011,1.06-0.222,0.996-1.063
						c-0.176-2.273-0.281-4.555-0.362-6.836C283.797,611.935,283.522,611.655,282.747,611.637z"/>
					<path fill="#FFD800" d="M312.333,628.599c-0.229-1.251-1.014-1.91-2.309-2.238c-0.101,0.292-0.184,0.518-0.324,0.92
						c-0.22-0.363-0.353-0.581-0.5-0.823c-1.22,0.274-1.882,1.055-2.12,2.336c0.223,0.081,0.442,0.16,0.818,0.294
						c-0.301,0.207-0.492,0.334-0.73,0.496c0.211,1.171,0.96,1.815,2.167,2.123c0.135-0.225,0.271-0.45,0.477-0.796
						c0.173,0.315,0.285,0.519,0.419,0.759c1.192-0.277,1.896-1.014,2.166-2.264c-0.246-0.126-0.476-0.246-0.861-0.443
						C311.892,628.8,312.1,628.704,312.333,628.599z M309.93,630.303c-0.76,0.118-1.474-0.479-1.539-1.236
						c-0.065-0.738,0.462-1.377,1.204-1.462c0.79-0.095,1.506,0.464,1.527,1.225C311.143,629.643,310.756,630.176,309.93,630.303z"
						/>
					<path fill="#FFD800" d="M324.195,631.498c0.208,0.066,0.536-0.229,0.841-0.369c0.906,0.917,2.151,0.295,2.692-1.496
						c-0.216-0.089-0.434-0.182-0.906-0.377c0.45-0.197,0.685-0.301,0.934-0.408c0.274-0.679-0.739-1.908-1.995-2.333
						c-0.135,0.21-0.279,0.434-0.506,0.779c-0.151-0.35-0.245-0.566-0.357-0.82c-1.218,0.096-1.899,0.814-2.326,1.973
						c0.244,0.157,0.463,0.3,0.797,0.516c-0.335,0.188-0.563,0.315-0.815,0.459C322.706,630.434,323.216,631.184,324.195,631.498z
						 M325.302,627.595c0.779,0.048,1.364,0.711,1.307,1.477c-0.059,0.742-0.751,1.357-1.492,1.328
						c-0.723-0.027-1.347-0.746-1.307-1.499C323.853,628.156,324.544,627.546,325.302,627.595z"/>
					<path fill="#FFD800" d="M330.574,620.999c-0.808-0.043-1.614-0.084-2.428-0.128
						C328.553,621.403,329.612,621.523,330.574,620.999z"/>
					<path fill="#FFD800" d="M320.061,563.738c-30.574,0-55.36,24.784-55.36,55.358c0,30.575,24.786,55.36,55.36,55.36
						c30.575,0,55.361-24.785,55.361-55.36C375.422,588.522,350.636,563.738,320.061,563.738z M344.231,596.484l1.398,1.348
						l-3.717,0.375L344.231,596.484z M334.121,591.421l1.291,0.592l-3.985,4.526L334.121,591.421z M337.076,597.888v1.776
						l-9.804,6.304L337.076,597.888z M332.395,596.969l1.293,0.701l-4.307,4.254L332.395,596.969z M327.227,592.089l2.044,0.863
						l-2.044,11.312V592.089z M325.358,596.222l0.757,7.002l-2.964-6.303L325.358,596.222z M319.9,583.697l0.106,6.786l-2.8-6.462
						L319.9,583.697z M317.351,590.902l7.431,12.552l-9.427-11.421L317.351,590.902z M323.294,603.131l-5.765-3.179l0.322-1.402
						L323.294,603.131z M316.991,600.902l-5.334-3.07l-0.16-1.671L316.991,600.902z M309.771,589.266l2.371,3.718l-4.526-3.609
						L309.771,589.266z M279.689,636.456c-3.245,0.204-5.992-2.18-6.221-5.41c-0.222-3.107,2.192-5.937,5.256-6.16
						c3.355-0.245,6.135,2.164,6.34,5.497C285.252,633.441,282.757,636.261,279.689,636.456z M310.172,634.826
						c-3.216,0.252-5.969-2.153-6.198-5.413c-0.221-3.163,2.198-5.937,5.369-6.152c3.187-0.215,5.979,2.263,6.181,5.478
						C315.715,631.828,313.293,634.585,310.172,634.826z M355.469,636.466c-3.227-0.086-5.713-2.768-5.602-6.034
						c0.112-3.167,2.808-5.676,5.982-5.558c3.19,0.12,5.71,2.874,5.576,6.096C361.293,634.062,358.597,636.548,355.469,636.466z
						 M366.267,625.514c-0.286,4.743-2.275,4.284-3.165,4.213c-0.741-0.062-1.16-0.202-1.419-1.031
						c-0.801-2.587-3.136-4.299-5.785-4.419c-2.603-0.115-5.038,1.366-6.092,3.831c-0.319,0.744-0.718,0.878-1.444,0.837
						c-5.271-0.301-10.539-0.574-15.808-0.821c-0.735-0.036-1.115-0.213-1.327-1.001c-0.691-2.543-2.954-4.302-5.598-4.496
						c-2.687-0.195-5.049,1.175-6.205,3.607c-0.315,0.658,0.023,1.026,0.206,1.168c0.748-2.404,3.031-4.192,5.599-4.111
						c3.364,0.107,5.879,2.795,5.731,6.129c-0.132,3.063-2.906,5.605-5.98,5.479c-3.248-0.136-5.729-2.798-5.622-6.031
						c0.016-0.5,0.124-0.979,0.264-1.442c-0.08-0.032-0.196-0.077-0.408-0.146c-0.215-0.067-0.395-0.181-0.56-0.307
						c-0.556,0.385-1.189,0.345-1.592,0.354c-0.746,0.019-1.178-0.079-1.52-0.877c-1.067-2.488-3.569-3.948-6.216-3.79
						c-2.598,0.157-4.868,1.885-5.658,4.451c-0.24,0.77-0.622,0.946-1.35,0.979c-5.27,0.252-10.539,0.53-15.809,0.834
						c-0.731,0.046-1.128-0.094-1.424-0.855c-0.953-2.454-3.384-3.968-6.035-3.884c-2.694,0.085-4.896,1.694-5.797,4.237
						c-0.454,1.283-1.012,1.589-2.389,1.302c-1.334-0.279-1.907-1.87-0.913-2.79c0.59-0.546,0.685-1.089,0.606-1.779
						c-0.339-2.905,0.101-5.704,1.283-8.366c1.839-4.153,4.797-6.926,9.486-7.451c1.157-0.128,2.328-0.131,3.633-0.2
						c-0.081-1.552-0.141-3.121-0.256-4.684c-0.054-0.729,0.181-0.998,0.938-1.035c10.672-0.539,21.346-1.099,32.016-1.683
						c0.757-0.039,0.997,0.187,1.028,0.928c0.11,2.717,0.281,5.436,0.422,8.152c0.174,3.298,0.348,6.599,0.542,9.897
						c0.559-2.183,1.922-4.252,3.04-6.196c2.263-3.936,4.343-6.386,9.06-6.415c1.165-0.007,0.026,0.112,1.33,0.179
						c0.08-1.553,0.188-3.119,0.234-4.686c0.022-0.729,0.281-0.972,1.038-0.932c10.672,0.578,21.344,1.139,32.019,1.675
						c0.758,0.038,0.971,0.289,0.923,1.027c-0.173,2.717-0.287,5.436-0.428,8.155c-0.209,3.993-0.437,7.986-0.602,11.981
						L366.267,625.514z"/>
					<path fill="#FFD800" d="M330.616,610.534c-4.961-0.642-6.28,1.657-7.782,6.455c-0.185,0.6-0.334,1.215-0.541,1.982
						c2.504,0.132,2.504,0.254,4.81,0.373c1.007,0.052,2.017,0.061,3.019,0.153c0.745,0.068,1.077-0.111,1.102-0.952
						c0.063-2.281,0.195-4.562,0.355-6.838C331.63,610.942,331.384,610.634,330.616,610.534z"/>
				</g>
			</g>
		</g>
	</g>
	<g>
		<line opacity="0.8" fill="none" stroke="#FFFFFF" stroke-miterlimit="10" x1="52.373" y1="62.772" x2="83.127" y2="62.772"/>
		<line opacity="0.8" fill="none" stroke="#FFFFFF" stroke-miterlimit="10" x1="52.373" y1="71.741" x2="83.127" y2="71.741"/>
		<line opacity="0.8" fill="none" stroke="#FFFFFF" stroke-miterlimit="10" x1="52.373" y1="80.71" x2="83.127" y2="80.71"/>
		<circle opacity="0.8" fill="none" stroke="#FFFFFF" stroke-miterlimit="10" cx="67.75" cy="71.742" r="24.5"/>
	</g>
</g>
</svg>
