<?xml version="1.0" encoding="utf-8"?>
<!DOCTYPE svg PUBLIC "-//W3C//DTD SVG 1.1//EN" "http://www.w3.org/Graphics/SVG/1.1/DTD/svg11.dtd">
<svg version="1.1" xmlns="http://www.w3.org/2000/svg" xmlns:xlink="http://www.w3.org/1999/xlink" x="0px" y="0px" width="210px" height="141px" viewBox="0 0 210 141" xml:space="preserve">
<g transform="translate(-215,-46)">
    <text transform="matrix(1 0 0 1 267.2676 183.0425)" opacity="0.8" fill="#FFFFFF" font-family="'HelveticaNeue-Light'" font-size="25.77">Steinsfurt</text>
    <g opacity="0.9">
        <path fill="#FFD800" d="M283.526,105.552c-0.808,0.042-1.616,0.084-2.426,0.128
            C281.559,106.167,282.624,106.175,283.526,105.552z"/>
        <path fill="#FFD800" d="M355.931,111.533c-0.13,0.279-0.232,0.498-0.417,0.883c-0.186-0.387-0.293-0.616-0.416-0.874
            c-1.24,0.148-1.977,0.852-2.35,2.103c0.213,0.105,0.426,0.206,0.782,0.378c-0.319,0.173-0.523,0.282-0.778,0.419
            c0.087,1.186,0.769,1.903,1.937,2.335c0.154-0.209,0.313-0.418,0.554-0.74c0.142,0.332,0.231,0.546,0.34,0.798
            c1.214-0.151,1.992-0.807,2.388-2.025c-0.229-0.152-0.445-0.296-0.811-0.532c0.375-0.125,0.592-0.197,0.834-0.276
            C357.896,112.733,357.186,111.994,355.931,111.533z M355.427,115.446c-0.768,0.036-1.416-0.631-1.401-1.394
            c0.014-0.74,0.601-1.319,1.351-1.33c0.793-0.011,1.449,0.62,1.387,1.38C356.702,114.916,356.259,115.406,355.427,115.446z"/>
        <path fill="#FFD800" d="M281.544,113.652c0.199-0.703-0.934-1.821-2.229-2.112c-0.113,0.223-0.232,0.459-0.419,0.827
            c-0.188-0.33-0.305-0.538-0.441-0.777c-1.203,0.219-1.805,1.007-2.109,2.204c0.259,0.132,0.491,0.25,0.845,0.431
            c-0.313,0.222-0.526,0.372-0.764,0.541c0.263,0.993,0.843,1.685,1.853,1.894c0.216,0.045,0.51-0.283,0.796-0.455
            c0.998,0.816,2.173,0.067,2.522-1.768c-0.224-0.069-0.45-0.135-0.94-0.281C281.086,113.912,281.309,113.785,281.544,113.652z
             M279.08,115.472c-0.721,0.049-1.417-0.602-1.453-1.355c-0.04-0.746,0.587-1.423,1.344-1.454
            c0.778-0.035,1.433,0.566,1.454,1.332C280.445,114.737,279.82,115.424,279.08,115.472z"/>
        <path fill="#FFD800" d="M282.475,95.141c-5.002-0.119-8.365,2.545-9.357,7.472c-0.123,0.618-0.205,1.243-0.331,2.029
            c2.501-0.13,4.807-0.249,7.114-0.371c1.006-0.054,2.01-0.151,3.018-0.164c0.748-0.011,1.061-0.222,0.996-1.062
            c-0.177-2.274-0.281-4.556-0.362-6.837C283.524,95.44,283.249,95.159,282.475,95.141z"/>
        <path fill="#FFD800" d="M312.06,112.103c-0.229-1.251-1.014-1.911-2.309-2.238c-0.101,0.292-0.183,0.519-0.324,0.92
            c-0.22-0.364-0.353-0.582-0.5-0.823c-1.219,0.274-1.882,1.054-2.119,2.336c0.222,0.081,0.442,0.16,0.818,0.293
            c-0.302,0.208-0.492,0.335-0.731,0.498c0.211,1.171,0.96,1.814,2.167,2.123c0.134-0.225,0.27-0.45,0.477-0.797
            c0.173,0.316,0.285,0.519,0.418,0.759c1.192-0.278,1.896-1.013,2.166-2.264c-0.246-0.126-0.476-0.247-0.861-0.443
            C311.619,112.304,311.827,112.208,312.06,112.103z M309.657,113.807c-0.76,0.117-1.474-0.479-1.539-1.236
            c-0.065-0.739,0.462-1.377,1.204-1.463c0.789-0.094,1.506,0.465,1.526,1.225C310.87,113.147,310.483,113.682,309.657,113.807z"
            />
        <path fill="#FFD800" d="M323.923,115.001c0.208,0.067,0.536-0.229,0.84-0.369c0.907,0.918,2.152,0.296,2.693-1.495
            c-0.216-0.089-0.435-0.181-0.906-0.377c0.45-0.196,0.685-0.301,0.933-0.409c0.275-0.678-0.738-1.909-1.995-2.332
            c-0.135,0.209-0.278,0.433-0.505,0.779c-0.152-0.35-0.246-0.566-0.357-0.82c-1.218,0.096-1.899,0.815-2.326,1.974
            c0.243,0.157,0.463,0.299,0.796,0.516c-0.334,0.187-0.563,0.315-0.815,0.459C322.434,113.938,322.943,114.688,323.923,115.001z
             M325.028,111.099c0.779,0.048,1.365,0.711,1.307,1.476c-0.058,0.742-0.751,1.358-1.491,1.33
            c-0.723-0.029-1.348-0.746-1.307-1.499C323.58,111.659,324.271,111.05,325.028,111.099z"/>
        <path fill="#FFD800" d="M330.302,104.503c-0.808-0.042-1.615-0.085-2.429-0.128
            C328.28,104.909,329.339,105.027,330.302,104.503z"/>
        <path fill="#FFD800" d="M319.788,47.242c-30.574,0-55.36,24.786-55.36,55.361c0,30.573,24.786,55.359,55.36,55.359
            s55.361-24.786,55.361-55.359C375.149,72.028,350.362,47.242,319.788,47.242z M343.959,79.987l1.397,1.348l-3.716,0.376
            L343.959,79.987z M333.848,74.925l1.292,0.591l-3.985,4.526L333.848,74.925z M336.804,81.392v1.776L327,89.472L336.804,81.392z
             M332.121,80.472l1.294,0.702l-4.308,4.254L332.121,80.472z M326.953,75.594l2.045,0.862l-2.045,11.312V75.594z
             M325.086,79.726l0.756,7.001l-2.963-6.301L325.086,79.726z M319.627,67.201l0.107,6.788l-2.801-6.462L319.627,67.201z
             M317.078,74.406l7.431,12.551l-9.426-11.419L317.078,74.406z M323.021,86.636l-5.765-3.179l0.322-1.402L323.021,86.636z
             M316.717,84.406l-5.333-3.071l-0.161-1.67L316.717,84.406z M309.499,72.77l2.372,3.718l-4.526-3.61L309.499,72.77z
             M279.417,119.96c-3.246,0.205-5.993-2.181-6.221-5.41c-0.222-3.107,2.192-5.937,5.257-6.16
            c3.355-0.245,6.134,2.164,6.34,5.497C284.979,116.946,282.484,119.765,279.417,119.96z M309.899,118.331
            c-3.216,0.252-5.968-2.154-6.198-5.414c-0.222-3.163,2.198-5.936,5.369-6.153c3.187-0.214,5.979,2.264,6.181,5.479
            C315.442,115.333,313.02,118.089,309.899,118.331z M355.195,119.97c-3.226-0.086-5.712-2.768-5.601-6.034
            c0.111-3.168,2.808-5.676,5.982-5.558c3.19,0.119,5.71,2.875,5.576,6.095C361.021,117.564,358.324,120.053,355.195,119.97z
             M365.994,109.018c-0.286,4.742-2.275,4.285-3.165,4.213c-0.742-0.061-1.161-0.201-1.42-1.031
            c-0.8-2.588-3.135-4.3-5.785-4.419c-2.602-0.115-5.038,1.366-6.091,3.831c-0.32,0.743-0.718,0.878-1.444,0.836
            c-5.271-0.301-10.54-0.575-15.809-0.821c-0.734-0.035-1.114-0.213-1.326-1c-0.692-2.543-2.955-4.302-5.599-4.495
            c-2.687-0.196-5.048,1.173-6.205,3.606c-0.315,0.657,0.023,1.025,0.207,1.168c0.748-2.405,3.031-4.193,5.599-4.113
            c3.364,0.108,5.879,2.797,5.73,6.131c-0.132,3.063-2.905,5.604-5.979,5.478c-3.248-0.135-5.729-2.797-5.623-6.03
            c0.016-0.501,0.124-0.979,0.264-1.443c-0.08-0.033-0.196-0.078-0.408-0.146c-0.215-0.068-0.395-0.18-0.56-0.308
            c-0.556,0.386-1.189,0.345-1.591,0.354c-0.746,0.019-1.179-0.079-1.52-0.875c-1.068-2.489-3.57-3.949-6.217-3.79
            c-2.598,0.156-4.868,1.882-5.658,4.449c-0.24,0.771-0.622,0.947-1.35,0.98c-5.27,0.252-10.539,0.53-15.809,0.834
            c-0.731,0.045-1.128-0.094-1.424-0.855c-0.952-2.456-3.384-3.969-6.035-3.884c-2.694,0.084-4.896,1.694-5.797,4.236
            c-0.454,1.283-1.013,1.589-2.389,1.301c-1.334-0.278-1.907-1.869-0.913-2.79c0.59-0.546,0.685-1.089,0.606-1.781
            c-0.339-2.905,0.101-5.702,1.283-8.365c1.839-4.152,4.797-6.926,9.486-7.45c1.157-0.128,2.328-0.131,3.633-0.2
            c-0.081-1.552-0.141-3.121-0.256-4.684c-0.054-0.729,0.181-0.998,0.938-1.036c10.672-0.539,21.346-1.098,32.016-1.682
            c0.757-0.04,0.997,0.187,1.028,0.927c0.111,2.717,0.281,5.435,0.423,8.152c0.174,3.299,0.347,6.599,0.542,9.898
            c0.559-2.183,1.921-4.252,3.04-6.196c2.264-3.936,4.343-6.387,9.061-6.416c1.164-0.007,0.025,0.112,1.329,0.18
            c0.081-1.553,0.188-3.119,0.234-4.685c0.022-0.732,0.282-0.974,1.038-0.934c10.673,0.58,21.344,1.14,32.02,1.675
            c0.758,0.039,0.971,0.289,0.923,1.027c-0.173,2.716-0.288,5.436-0.428,8.155c-0.209,3.994-0.437,7.986-0.602,11.981
            L365.994,109.018z"/>
        <path fill="#FFD800" d="M330.344,94.039c-4.962-0.642-6.28,1.658-7.782,6.455c-0.186,0.6-0.334,1.214-0.542,1.982
            c2.505,0.132,2.505,0.254,4.81,0.374c1.007,0.052,2.017,0.061,3.02,0.153c0.745,0.068,1.077-0.11,1.102-0.952
            c0.062-2.281,0.194-4.561,0.354-6.837C331.357,94.448,331.11,94.14,330.344,94.039z"/>
    </g>
</g>
</svg>
