<?xml version="1.0" encoding="utf-8"?>
<!DOCTYPE svg PUBLIC "-//W3C//DTD SVG 1.1//EN" "http://www.w3.org/Graphics/SVG/1.1/DTD/svg11.dtd">
<svg version="1.1" xmlns="http://www.w3.org/2000/svg" xmlns:xlink="http://www.w3.org/1999/xlink" x="0px" y="0px" width="210px" height="141px" viewBox="0 0 210 141" xml:space="preserve">
<g transform="translate(-215,-561)">
	<text transform="matrix(1 0 0 1 214.7632 697.9668)" opacity="0.8"><tspan x="0" y="0" fill="#FFFFFF" font-family="'HelveticaNeue-Light'" font-size="25.77">W</tspan><tspan x="22.91" y="0" fill="#FFFFFF" font-family="'HelveticaNeue-Light'" font-size="25.77">einsberger K</tspan><tspan x="163.25" y="0" fill="#FFFFFF" font-family="'HelveticaNeue-Light'" font-size="25.77">r</tspan><tspan x="170.905" y="0" fill="#FFFFFF" font-family="'HelveticaNeue-Light'" font-size="25.77">euz</tspan></text>
    <g opacity="0.9">
        <path fill="#FFD800" d="M283.799,622.048c-0.809,0.041-1.616,0.085-2.427,0.127
            C281.832,622.661,282.897,622.671,283.799,622.048z"/>
        <path fill="#FFD800" d="M356.203,628.029c-0.13,0.277-0.232,0.496-0.417,0.883c-0.185-0.388-0.293-0.616-0.415-0.874
            c-1.24,0.146-1.978,0.853-2.35,2.103c0.212,0.105,0.426,0.206,0.782,0.379c-0.32,0.173-0.523,0.282-0.779,0.419
            c0.088,1.185,0.769,1.901,1.937,2.334c0.154-0.208,0.313-0.418,0.554-0.74c0.142,0.332,0.231,0.546,0.341,0.798
            c1.214-0.151,1.991-0.808,2.388-2.025c-0.229-0.15-0.446-0.296-0.811-0.531c0.374-0.125,0.591-0.196,0.833-0.276
            C358.168,629.228,357.459,628.49,356.203,628.029z M355.7,631.941c-0.769,0.037-1.417-0.632-1.402-1.394
            c0.014-0.74,0.601-1.32,1.351-1.33c0.793-0.011,1.45,0.62,1.388,1.381C356.976,631.411,356.531,631.901,355.7,631.941z"/>
        <path fill="#FFD800" d="M281.817,630.149c0.199-0.705-0.934-1.821-2.229-2.113c-0.113,0.224-0.232,0.46-0.42,0.827
            c-0.188-0.331-0.304-0.537-0.441-0.778c-1.203,0.221-1.804,1.008-2.109,2.206c0.259,0.131,0.491,0.249,0.845,0.43
            c-0.313,0.222-0.526,0.37-0.765,0.542c0.263,0.992,0.844,1.684,1.854,1.894c0.216,0.045,0.51-0.284,0.796-0.454
            c0.999,0.815,2.173,0.066,2.523-1.768c-0.224-0.07-0.45-0.137-0.941-0.282C281.359,630.406,281.582,630.282,281.817,630.149z
             M279.353,631.968c-0.721,0.05-1.417-0.601-1.453-1.355c-0.04-0.746,0.587-1.424,1.344-1.453
            c0.778-0.035,1.433,0.565,1.454,1.331C280.717,631.232,280.093,631.92,279.353,631.968z"/>
        <path fill="#FFD800" d="M282.747,611.637c-5.002-0.118-8.365,2.545-9.356,7.472c-0.123,0.618-0.206,1.244-0.331,2.029
            c2.501-0.13,4.807-0.249,7.114-0.371c1.006-0.055,2.01-0.151,3.018-0.164c0.748-0.011,1.06-0.222,0.996-1.063
            c-0.176-2.273-0.281-4.555-0.362-6.836C283.797,611.935,283.522,611.655,282.747,611.637z"/>
        <path fill="#FFD800" d="M312.333,628.599c-0.229-1.251-1.014-1.91-2.309-2.238c-0.101,0.292-0.184,0.518-0.324,0.92
            c-0.22-0.363-0.353-0.581-0.5-0.823c-1.22,0.274-1.882,1.055-2.12,2.336c0.223,0.081,0.442,0.16,0.818,0.294
            c-0.301,0.207-0.492,0.334-0.73,0.496c0.211,1.171,0.96,1.815,2.167,2.123c0.135-0.225,0.271-0.45,0.477-0.796
            c0.173,0.315,0.285,0.519,0.419,0.759c1.192-0.277,1.896-1.014,2.166-2.264c-0.246-0.126-0.476-0.246-0.861-0.443
            C311.892,628.8,312.1,628.704,312.333,628.599z M309.93,630.303c-0.76,0.118-1.474-0.479-1.539-1.236
            c-0.065-0.738,0.462-1.377,1.204-1.462c0.79-0.095,1.506,0.464,1.527,1.225C311.143,629.643,310.756,630.176,309.93,630.303z"
            />
        <path fill="#FFD800" d="M324.195,631.498c0.208,0.066,0.536-0.229,0.841-0.369c0.906,0.917,2.151,0.295,2.692-1.496
            c-0.216-0.089-0.434-0.182-0.906-0.377c0.45-0.197,0.685-0.301,0.934-0.408c0.274-0.679-0.739-1.908-1.995-2.333
            c-0.135,0.21-0.279,0.434-0.506,0.779c-0.151-0.35-0.245-0.566-0.357-0.82c-1.218,0.096-1.899,0.814-2.326,1.973
            c0.244,0.157,0.463,0.3,0.797,0.516c-0.335,0.188-0.563,0.315-0.815,0.459C322.706,630.434,323.216,631.184,324.195,631.498z
             M325.302,627.595c0.779,0.048,1.364,0.711,1.307,1.477c-0.059,0.742-0.751,1.357-1.492,1.328
            c-0.723-0.027-1.347-0.746-1.307-1.499C323.853,628.156,324.544,627.546,325.302,627.595z"/>
        <path fill="#FFD800" d="M330.574,620.999c-0.808-0.043-1.614-0.084-2.428-0.128
            C328.553,621.403,329.612,621.523,330.574,620.999z"/>
        <path fill="#FFD800" d="M320.061,563.738c-30.574,0-55.36,24.784-55.36,55.358c0,30.575,24.786,55.36,55.36,55.36
            c30.575,0,55.361-24.785,55.361-55.36C375.422,588.522,350.636,563.738,320.061,563.738z M344.231,596.484l1.398,1.348
            l-3.717,0.375L344.231,596.484z M334.121,591.421l1.291,0.592l-3.985,4.526L334.121,591.421z M337.076,597.888v1.776
            l-9.804,6.304L337.076,597.888z M332.395,596.969l1.293,0.701l-4.307,4.254L332.395,596.969z M327.227,592.089l2.044,0.863
            l-2.044,11.312V592.089z M325.358,596.222l0.757,7.002l-2.964-6.303L325.358,596.222z M319.9,583.697l0.106,6.786l-2.8-6.462
            L319.9,583.697z M317.351,590.902l7.431,12.552l-9.427-11.421L317.351,590.902z M323.294,603.131l-5.765-3.179l0.322-1.402
            L323.294,603.131z M316.991,600.902l-5.334-3.07l-0.16-1.671L316.991,600.902z M309.771,589.266l2.371,3.718l-4.526-3.609
            L309.771,589.266z M279.689,636.456c-3.245,0.204-5.992-2.18-6.221-5.41c-0.222-3.107,2.192-5.937,5.256-6.16
            c3.355-0.245,6.135,2.164,6.34,5.497C285.252,633.441,282.757,636.261,279.689,636.456z M310.172,634.826
            c-3.216,0.252-5.969-2.153-6.198-5.413c-0.221-3.163,2.198-5.937,5.369-6.152c3.187-0.215,5.979,2.263,6.181,5.478
            C315.715,631.828,313.293,634.585,310.172,634.826z M355.469,636.466c-3.227-0.086-5.713-2.768-5.602-6.034
            c0.112-3.167,2.808-5.676,5.982-5.558c3.19,0.12,5.71,2.874,5.576,6.096C361.293,634.062,358.597,636.548,355.469,636.466z
             M366.267,625.514c-0.286,4.743-2.275,4.284-3.165,4.213c-0.741-0.062-1.16-0.202-1.419-1.031
            c-0.801-2.587-3.136-4.299-5.785-4.419c-2.603-0.115-5.038,1.366-6.092,3.831c-0.319,0.744-0.718,0.878-1.444,0.837
            c-5.271-0.301-10.539-0.574-15.808-0.821c-0.735-0.036-1.115-0.213-1.327-1.001c-0.691-2.543-2.954-4.302-5.598-4.496
            c-2.687-0.195-5.049,1.175-6.205,3.607c-0.315,0.658,0.023,1.026,0.206,1.168c0.748-2.404,3.031-4.192,5.599-4.111
            c3.364,0.107,5.879,2.795,5.731,6.129c-0.132,3.063-2.906,5.605-5.98,5.479c-3.248-0.136-5.729-2.798-5.622-6.031
            c0.016-0.5,0.124-0.979,0.264-1.442c-0.08-0.032-0.196-0.077-0.408-0.146c-0.215-0.067-0.395-0.181-0.56-0.307
            c-0.556,0.385-1.189,0.345-1.592,0.354c-0.746,0.019-1.178-0.079-1.52-0.877c-1.067-2.488-3.569-3.948-6.216-3.79
            c-2.598,0.157-4.868,1.885-5.658,4.451c-0.24,0.77-0.622,0.946-1.35,0.979c-5.27,0.252-10.539,0.53-15.809,0.834
            c-0.731,0.046-1.128-0.094-1.424-0.855c-0.953-2.454-3.384-3.968-6.035-3.884c-2.694,0.085-4.896,1.694-5.797,4.237
            c-0.454,1.283-1.012,1.589-2.389,1.302c-1.334-0.279-1.907-1.87-0.913-2.79c0.59-0.546,0.685-1.089,0.606-1.779
            c-0.339-2.905,0.101-5.704,1.283-8.366c1.839-4.153,4.797-6.926,9.486-7.451c1.157-0.128,2.328-0.131,3.633-0.2
            c-0.081-1.552-0.141-3.121-0.256-4.684c-0.054-0.729,0.181-0.998,0.938-1.035c10.672-0.539,21.346-1.099,32.016-1.683
            c0.757-0.039,0.997,0.187,1.028,0.928c0.11,2.717,0.281,5.436,0.422,8.152c0.174,3.298,0.348,6.599,0.542,9.897
            c0.559-2.183,1.922-4.252,3.04-6.196c2.263-3.936,4.343-6.386,9.06-6.415c1.165-0.007,0.026,0.112,1.33,0.179
            c0.08-1.553,0.188-3.119,0.234-4.686c0.022-0.729,0.281-0.972,1.038-0.932c10.672,0.578,21.344,1.139,32.019,1.675
            c0.758,0.038,0.971,0.289,0.923,1.027c-0.173,2.717-0.287,5.436-0.428,8.155c-0.209,3.993-0.437,7.986-0.602,11.981
            L366.267,625.514z"/>
        <path fill="#FFD800" d="M330.616,610.534c-4.961-0.642-6.28,1.657-7.782,6.455c-0.185,0.6-0.334,1.215-0.541,1.982
            c2.504,0.132,2.504,0.254,4.81,0.373c1.007,0.052,2.017,0.061,3.019,0.153c0.745,0.068,1.077-0.111,1.102-0.952
            c0.063-2.281,0.195-4.562,0.355-6.838C331.63,610.942,331.384,610.634,330.616,610.534z"/>
    </g>
</g>
</svg>
