<?xml version="1.0" encoding="utf-8"?>
<!-- Generator: Adobe Illustrator 16.0.3, SVG Export Plug-In . SVG Version: 6.00 Build 0)  -->
<!DOCTYPE svg PUBLIC "-//W3C//DTD SVG 1.1//EN" "http://www.w3.org/Graphics/SVG/1.1/DTD/svg11.dtd">
<svg version="1.1" id="Ebene_1" xmlns="http://www.w3.org/2000/svg" xmlns:xlink="http://www.w3.org/1999/xlink" x="0px" y="0px"
	 width="200px" height="200px" viewBox="0 0 78 78" xml:space="preserve">
<g transform="translate(-10, -9)">
    <rect fill="#FFF" x="14" y="36" height="25" width="71" />
    <rect fill="#FFF" x="37" y="16" height="25" width="30" />
	<path fill="#FFD800" d="M23.733,49.814c-0.56,0.029-1.12,0.059-1.682,0.089C22.37,50.24,23.108,50.247,23.733,49.814z"/>
	<path fill="#FFD800" d="M73.917,53.959c-0.091,0.193-0.161,0.346-0.289,0.612c-0.129-0.269-0.203-0.428-0.289-0.606
		c-0.859,0.103-1.369,0.591-1.628,1.458c0.147,0.072,0.295,0.142,0.542,0.263c-0.222,0.119-0.362,0.194-0.539,0.289
		c0.06,0.822,0.532,1.319,1.342,1.619c0.107-0.146,0.217-0.29,0.384-0.513c0.098,0.229,0.16,0.377,0.235,0.552
		c0.842-0.104,1.381-0.559,1.655-1.403c-0.159-0.105-0.309-0.205-0.562-0.368c0.26-0.087,0.41-0.137,0.577-0.191
		C75.278,54.792,74.786,54.279,73.917,53.959z M73.567,56.671c-0.532,0.024-0.981-0.438-0.972-0.966
		c0.01-0.513,0.417-0.914,0.937-0.922c0.55-0.008,1.005,0.43,0.961,0.957C74.451,56.304,74.145,56.644,73.567,56.671z"/>
	<path fill="#FFD800" d="M22.36,55.428c0.138-0.487-0.647-1.262-1.545-1.463c-0.079,0.154-0.161,0.317-0.291,0.572
		c-0.13-0.229-0.211-0.372-0.306-0.538c-0.834,0.152-1.251,0.698-1.461,1.527c0.18,0.091,0.34,0.174,0.585,0.298
		c-0.217,0.154-0.365,0.258-0.53,0.375c0.182,0.688,0.584,1.169,1.284,1.313c0.15,0.031,0.354-0.196,0.552-0.315
		c0.691,0.565,1.506,0.047,1.748-1.226c-0.155-0.047-0.312-0.093-0.652-0.194C22.042,55.609,22.196,55.52,22.36,55.428z
		 M20.651,56.69c-0.5,0.034-0.982-0.418-1.007-0.939c-0.027-0.517,0.407-0.986,0.932-1.008c0.54-0.023,0.993,0.392,1.008,0.923
		C21.598,56.179,21.165,56.656,20.651,56.69z"/>
	<path fill="#FFD800" d="M23.004,42.598c-3.467-0.082-5.798,1.764-6.485,5.179c-0.084,0.428-0.142,0.861-0.229,1.406
		c1.733-0.09,3.332-0.173,4.93-0.257c0.698-0.038,1.393-0.105,2.092-0.113c0.518-0.008,0.735-0.154,0.69-0.737
		c-0.123-1.576-0.195-3.157-0.251-4.738C23.732,42.805,23.542,42.611,23.004,42.598z"/>
	<path fill="#FFD800" d="M43.51,54.354c-0.159-0.867-0.703-1.324-1.601-1.551c-0.069,0.202-0.127,0.359-0.225,0.638
		c-0.152-0.252-0.245-0.403-0.347-0.571c-0.845,0.191-1.305,0.731-1.469,1.619c0.154,0.057,0.307,0.111,0.567,0.204
		c-0.209,0.144-0.341,0.231-0.506,0.345c0.146,0.812,0.666,1.257,1.502,1.471c0.093-0.155,0.187-0.312,0.331-0.552
		c0.12,0.219,0.197,0.359,0.29,0.526c0.826-0.193,1.313-0.702,1.501-1.569c-0.17-0.088-0.33-0.171-0.597-0.307
		C43.205,54.495,43.348,54.428,43.51,54.354z M41.844,55.536c-0.526,0.081-1.021-0.332-1.066-0.857
		c-0.045-0.512,0.32-0.954,0.834-1.014c0.547-0.065,1.044,0.323,1.058,0.85C42.685,55.079,42.417,55.449,41.844,55.536z"/>
	<path fill="#FFD800" d="M51.732,56.364c0.144,0.046,0.371-0.158,0.582-0.256c0.629,0.637,1.491,0.204,1.866-1.037
		c-0.149-0.061-0.301-0.124-0.628-0.261c0.313-0.137,0.475-0.209,0.646-0.283c0.191-0.47-0.512-1.323-1.383-1.616
		c-0.094,0.145-0.192,0.299-0.35,0.539c-0.105-0.242-0.171-0.392-0.248-0.568c-0.844,0.066-1.316,0.565-1.612,1.368
		c0.169,0.108,0.321,0.207,0.552,0.357c-0.231,0.13-0.39,0.218-0.565,0.317C50.7,55.626,51.054,56.147,51.732,56.364z
		 M52.498,53.659c0.54,0.033,0.946,0.493,0.906,1.022c-0.04,0.515-0.521,0.942-1.034,0.922c-0.501-0.021-0.934-0.518-0.905-1.039
		C51.494,54.047,51.973,53.625,52.498,53.659z"/>
	<path fill="#FFD800" d="M56.153,49.087c-0.56-0.029-1.119-0.06-1.684-0.089C54.752,49.368,55.486,49.451,56.153,49.087z"/>
	<path fill="#FFD800" d="M48.866,9.399c-21.191,0-38.37,17.179-38.37,38.371c0,21.19,17.179,38.369,38.37,38.369
		c21.191,0,38.371-17.179,38.371-38.369C87.237,26.579,70.058,9.399,48.866,9.399z M65.619,32.095l0.969,0.935l-2.575,0.261
		L65.619,32.095z M58.611,28.587l0.896,0.41l-2.763,3.137L58.611,28.587z M60.66,33.068V34.3l-6.795,4.369L60.66,33.068z
		 M57.414,32.431l0.897,0.487l-2.986,2.948L57.414,32.431z M53.832,29.05l1.418,0.597l-1.418,7.84V29.05z M52.538,31.914
		l0.524,4.853l-2.054-4.368L52.538,31.914z M48.755,23.233l0.074,4.704l-1.941-4.479L48.755,23.233z M46.988,28.227l5.15,8.699
		l-6.534-7.915L46.988,28.227z M51.107,36.703L47.112,34.5l0.223-0.972L51.107,36.703z M46.738,35.158l-3.696-2.128l-0.111-1.158
		L46.738,35.158z M41.735,27.093l1.644,2.577l-3.137-2.502L41.735,27.093z M20.885,59.8c-2.25,0.142-4.153-1.512-4.312-3.749
		c-0.154-2.154,1.519-4.115,3.644-4.27c2.325-0.17,4.251,1.5,4.394,3.809C24.741,57.711,23.011,59.666,20.885,59.8z M42.012,58.67
		c-2.229,0.175-4.137-1.493-4.295-3.752c-0.154-2.192,1.523-4.114,3.721-4.265c2.208-0.148,4.144,1.569,4.284,3.798
		C45.854,56.592,44.175,58.503,42.012,58.67z M73.407,59.807c-2.236-0.06-3.959-1.918-3.882-4.182
		c0.077-2.196,1.945-3.934,4.146-3.853c2.211,0.083,3.957,1.993,3.864,4.226C77.444,58.14,75.575,59.865,73.407,59.807z
		 M80.892,52.216c-0.198,3.286-1.577,2.97-2.193,2.92c-0.515-0.042-0.805-0.14-0.984-0.715c-0.555-1.794-2.173-2.979-4.01-3.063
		c-1.803-0.08-3.492,0.946-4.222,2.655c-0.222,0.516-0.497,0.608-1.001,0.58c-3.653-0.209-7.306-0.399-10.957-0.569
		c-0.509-0.024-0.772-0.147-0.919-0.693c-0.479-1.763-2.048-2.982-3.881-3.115c-1.861-0.137-3.498,0.813-4.3,2.499
		c-0.218,0.455,0.016,0.711,0.143,0.81c0.518-1.667,2.101-2.906,3.88-2.851c2.332,0.075,4.074,1.938,3.972,4.249
		c-0.091,2.123-2.014,3.885-4.145,3.797c-2.251-0.093-3.971-1.938-3.896-4.179c0.011-0.348,0.086-0.679,0.183-1
		c-0.055-0.023-0.136-0.055-0.283-0.102c-0.149-0.048-0.273-0.125-0.388-0.214c-0.385,0.268-0.824,0.239-1.103,0.246
		c-0.517,0.013-0.817-0.055-1.053-0.606c-0.74-1.726-2.474-2.737-4.309-2.627c-1.801,0.108-3.374,1.305-3.921,3.083
		c-0.167,0.535-0.431,0.657-0.936,0.68c-3.652,0.175-7.305,0.367-10.957,0.579c-0.507,0.031-0.782-0.065-0.987-0.593
		c-0.66-1.703-2.346-2.751-4.183-2.692c-1.868,0.059-3.394,1.175-4.019,2.937c-0.314,0.889-0.702,1.102-1.656,0.901
		c-0.925-0.192-1.322-1.295-0.632-1.934c0.409-0.379,0.475-0.754,0.42-1.234c-0.235-2.013,0.07-3.951,0.889-5.797
		c1.275-2.877,3.325-4.8,6.575-5.164c0.802-0.089,1.614-0.091,2.518-0.139c-0.056-1.075-0.098-2.163-0.178-3.246
		c-0.037-0.505,0.125-0.692,0.65-0.718c7.397-0.374,14.795-0.761,22.19-1.166c0.524-0.027,0.691,0.129,0.712,0.643
		c0.077,1.883,0.195,3.767,0.293,5.65c0.121,2.286,0.241,4.574,0.375,6.859c0.387-1.512,1.332-2.947,2.106-4.294
		c1.569-2.728,3.01-4.427,6.28-4.446c0.807-0.005,0.018,0.077,0.921,0.125c0.057-1.076,0.131-2.162,0.162-3.247
		c0.016-0.507,0.196-0.675,0.72-0.647c7.397,0.402,14.794,0.79,22.192,1.161c0.525,0.027,0.673,0.2,0.64,0.712
		c-0.119,1.882-0.199,3.768-0.296,5.652c-0.145,2.768-0.303,5.535-0.417,8.304L80.892,52.216z"/>
	<path fill="#FFD800" d="M56.183,41.834c-3.439-0.444-4.353,1.149-5.394,4.474c-0.129,0.416-0.232,0.842-0.376,1.374
		c1.736,0.091,1.736,0.176,3.333,0.259c0.698,0.036,1.398,0.042,2.093,0.105c0.517,0.048,0.747-0.076,0.764-0.659
		c0.043-1.581,0.135-3.161,0.246-4.739C56.885,42.118,56.714,41.904,56.183,41.834z"/>
</g>
</svg>