<?xml version="1.0" encoding="utf-8"?>
<!-- Generator: Adobe Illustrator 16.0.3, SVG Export Plug-In . SVG Version: 6.00 Build 0)  -->
<!DOCTYPE svg PUBLIC "-//W3C//DTD SVG 1.1//EN" "http://www.w3.org/Graphics/SVG/1.1/DTD/svg11.dtd">
<svg version="1.1" id="Ebene_1" xmlns="http://www.w3.org/2000/svg" xmlns:xlink="http://www.w3.org/1999/xlink" x="0px" y="0px"
	 width="320px" height="480px" viewBox="0 0 320 480" enable-background="new 0 0 320 480" xml:space="preserve">
<rect x="49" y="92.5" opacity="0.8" width="260" height="104"/>
<rect x="244.833" y="375.985" opacity="0.8" width="68.136" height="95.021"/>
<rect x="16.766" y="152.635" opacity="0.8" width="30.136" height="182.197"/>
<g opacity="0.9">
	<path fill="#FFD800" d="M23.733,49.814c-0.56,0.029-1.12,0.059-1.682,0.089C22.37,50.24,23.108,50.247,23.733,49.814z"/>
	<path fill="#FFD800" d="M73.917,53.959c-0.091,0.193-0.161,0.346-0.289,0.612c-0.129-0.269-0.203-0.428-0.289-0.606
		c-0.859,0.103-1.369,0.591-1.628,1.458c0.147,0.072,0.295,0.142,0.542,0.263c-0.222,0.119-0.362,0.194-0.539,0.289
		c0.06,0.822,0.532,1.319,1.342,1.619c0.107-0.146,0.217-0.29,0.384-0.513c0.098,0.229,0.16,0.377,0.235,0.552
		c0.842-0.104,1.381-0.559,1.655-1.403c-0.159-0.105-0.309-0.205-0.562-0.368c0.26-0.087,0.41-0.137,0.577-0.191
		C75.278,54.792,74.786,54.279,73.917,53.959z M73.567,56.671c-0.532,0.024-0.981-0.438-0.972-0.966
		c0.01-0.513,0.417-0.914,0.937-0.922c0.55-0.008,1.005,0.43,0.961,0.957C74.451,56.304,74.145,56.644,73.567,56.671z"/>
	<path fill="#FFD800" d="M22.36,55.428c0.138-0.487-0.647-1.262-1.545-1.463c-0.079,0.154-0.161,0.317-0.291,0.572
		c-0.13-0.229-0.211-0.372-0.306-0.538c-0.834,0.152-1.251,0.698-1.461,1.527c0.18,0.091,0.34,0.174,0.585,0.298
		c-0.217,0.154-0.365,0.258-0.53,0.375c0.182,0.688,0.584,1.169,1.284,1.313c0.15,0.031,0.354-0.196,0.552-0.315
		c0.691,0.565,1.506,0.047,1.748-1.226c-0.155-0.047-0.312-0.093-0.652-0.194C22.042,55.609,22.196,55.52,22.36,55.428z
		 M20.651,56.69c-0.5,0.034-0.982-0.418-1.007-0.939c-0.027-0.517,0.407-0.986,0.932-1.008c0.54-0.023,0.993,0.392,1.008,0.923
		C21.598,56.179,21.165,56.656,20.651,56.69z"/>
	<path fill="#FFD800" d="M23.004,42.598c-3.467-0.082-5.798,1.764-6.485,5.179c-0.084,0.428-0.142,0.861-0.229,1.406
		c1.733-0.09,3.332-0.173,4.93-0.257c0.698-0.038,1.393-0.105,2.092-0.113c0.518-0.008,0.735-0.154,0.69-0.737
		c-0.123-1.576-0.195-3.157-0.251-4.738C23.732,42.805,23.542,42.611,23.004,42.598z"/>
	<path fill="#FFD800" d="M43.51,54.354c-0.159-0.867-0.703-1.324-1.601-1.551c-0.069,0.202-0.127,0.359-0.225,0.638
		c-0.152-0.252-0.245-0.403-0.347-0.571c-0.845,0.191-1.305,0.731-1.469,1.619c0.154,0.057,0.307,0.111,0.567,0.204
		c-0.209,0.144-0.341,0.231-0.506,0.345c0.146,0.812,0.666,1.257,1.502,1.471c0.093-0.155,0.187-0.312,0.331-0.552
		c0.12,0.219,0.197,0.359,0.29,0.526c0.826-0.193,1.313-0.702,1.501-1.569c-0.17-0.088-0.33-0.171-0.597-0.307
		C43.205,54.495,43.348,54.428,43.51,54.354z M41.844,55.536c-0.526,0.081-1.021-0.332-1.066-0.857
		c-0.045-0.512,0.32-0.954,0.834-1.014c0.547-0.065,1.044,0.323,1.058,0.85C42.685,55.079,42.417,55.449,41.844,55.536z"/>
	<path fill="#FFD800" d="M51.732,56.364c0.144,0.046,0.371-0.158,0.582-0.256c0.629,0.637,1.491,0.204,1.866-1.037
		c-0.149-0.061-0.301-0.124-0.628-0.261c0.313-0.137,0.475-0.209,0.646-0.283c0.191-0.47-0.512-1.323-1.383-1.616
		c-0.094,0.145-0.192,0.299-0.35,0.539c-0.105-0.242-0.171-0.392-0.248-0.568c-0.844,0.066-1.316,0.565-1.612,1.368
		c0.169,0.108,0.321,0.207,0.552,0.357c-0.231,0.13-0.39,0.218-0.565,0.317C50.7,55.626,51.054,56.147,51.732,56.364z
		 M52.498,53.659c0.54,0.033,0.946,0.493,0.906,1.022c-0.04,0.515-0.521,0.942-1.034,0.922c-0.501-0.021-0.934-0.518-0.905-1.039
		C51.494,54.047,51.973,53.625,52.498,53.659z"/>
	<path fill="#FFD800" d="M56.153,49.087c-0.56-0.029-1.119-0.06-1.684-0.089C54.752,49.368,55.486,49.451,56.153,49.087z"/>
	<path fill="#FFD800" d="M48.866,9.399c-21.191,0-38.37,17.179-38.37,38.371c0,21.19,17.179,38.369,38.37,38.369
		c21.191,0,38.371-17.179,38.371-38.369C87.237,26.579,70.058,9.399,48.866,9.399z M65.619,32.095l0.969,0.935l-2.575,0.261
		L65.619,32.095z M58.611,28.587l0.896,0.41l-2.763,3.137L58.611,28.587z M60.66,33.068V34.3l-6.795,4.369L60.66,33.068z
		 M57.414,32.431l0.897,0.487l-2.986,2.948L57.414,32.431z M53.832,29.05l1.418,0.597l-1.418,7.84V29.05z M52.538,31.914
		l0.524,4.853l-2.054-4.368L52.538,31.914z M48.755,23.233l0.074,4.704l-1.941-4.479L48.755,23.233z M46.988,28.227l5.15,8.699
		l-6.534-7.915L46.988,28.227z M51.107,36.703L47.112,34.5l0.223-0.972L51.107,36.703z M46.738,35.158l-3.696-2.128l-0.111-1.158
		L46.738,35.158z M41.735,27.093l1.644,2.577l-3.137-2.502L41.735,27.093z M20.885,59.8c-2.25,0.142-4.153-1.512-4.312-3.749
		c-0.154-2.154,1.519-4.115,3.644-4.27c2.325-0.17,4.251,1.5,4.394,3.809C24.741,57.711,23.011,59.666,20.885,59.8z M42.012,58.67
		c-2.229,0.175-4.137-1.493-4.295-3.752c-0.154-2.192,1.523-4.114,3.721-4.265c2.208-0.148,4.144,1.569,4.284,3.798
		C45.854,56.592,44.175,58.503,42.012,58.67z M73.407,59.807c-2.236-0.06-3.959-1.918-3.882-4.182
		c0.077-2.196,1.945-3.934,4.146-3.853c2.211,0.083,3.957,1.993,3.864,4.226C77.444,58.14,75.575,59.865,73.407,59.807z
		 M80.892,52.216c-0.198,3.286-1.577,2.97-2.193,2.92c-0.515-0.042-0.805-0.14-0.984-0.715c-0.555-1.794-2.173-2.979-4.01-3.063
		c-1.803-0.08-3.492,0.946-4.222,2.655c-0.222,0.516-0.497,0.608-1.001,0.58c-3.653-0.209-7.306-0.399-10.957-0.569
		c-0.509-0.024-0.772-0.147-0.919-0.693c-0.479-1.763-2.048-2.982-3.881-3.115c-1.861-0.137-3.498,0.813-4.3,2.499
		c-0.218,0.455,0.016,0.711,0.143,0.81c0.518-1.667,2.101-2.906,3.88-2.851c2.332,0.075,4.074,1.938,3.972,4.249
		c-0.091,2.123-2.014,3.885-4.145,3.797c-2.251-0.093-3.971-1.938-3.896-4.179c0.011-0.348,0.086-0.679,0.183-1
		c-0.055-0.023-0.136-0.055-0.283-0.102c-0.149-0.048-0.273-0.125-0.388-0.214c-0.385,0.268-0.824,0.239-1.103,0.246
		c-0.517,0.013-0.817-0.055-1.053-0.606c-0.74-1.726-2.474-2.737-4.309-2.627c-1.801,0.108-3.374,1.305-3.921,3.083
		c-0.167,0.535-0.431,0.657-0.936,0.68c-3.652,0.175-7.305,0.367-10.957,0.579c-0.507,0.031-0.782-0.065-0.987-0.593
		c-0.66-1.703-2.346-2.751-4.183-2.692c-1.868,0.059-3.394,1.175-4.019,2.937c-0.314,0.889-0.702,1.102-1.656,0.901
		c-0.925-0.192-1.322-1.295-0.632-1.934c0.409-0.379,0.475-0.754,0.42-1.234c-0.235-2.013,0.07-3.951,0.889-5.797
		c1.275-2.877,3.325-4.8,6.575-5.164c0.802-0.089,1.614-0.091,2.518-0.139c-0.056-1.075-0.098-2.163-0.178-3.246
		c-0.037-0.505,0.125-0.692,0.65-0.718c7.397-0.374,14.795-0.761,22.19-1.166c0.524-0.027,0.691,0.129,0.712,0.643
		c0.077,1.883,0.195,3.767,0.293,5.65c0.121,2.286,0.241,4.574,0.375,6.859c0.387-1.512,1.332-2.947,2.106-4.294
		c1.569-2.728,3.01-4.427,6.28-4.446c0.807-0.005,0.018,0.077,0.921,0.125c0.057-1.076,0.131-2.162,0.162-3.247
		c0.016-0.507,0.196-0.675,0.72-0.647c7.397,0.402,14.794,0.79,22.192,1.161c0.525,0.027,0.673,0.2,0.64,0.712
		c-0.119,1.882-0.199,3.768-0.296,5.652c-0.145,2.768-0.303,5.535-0.417,8.304L80.892,52.216z"/>
	<path fill="#FFD800" d="M56.183,41.834c-3.439-0.444-4.353,1.149-5.394,4.474c-0.129,0.416-0.232,0.842-0.376,1.374
		c1.736,0.091,1.736,0.176,3.333,0.259c0.698,0.036,1.398,0.042,2.093,0.105c0.517,0.048,0.747-0.076,0.764-0.659
		c0.043-1.581,0.135-3.161,0.246-4.739C56.885,42.118,56.714,41.904,56.183,41.834z"/>
</g>
<g>
	<line opacity="0.8" fill="none" stroke="#646464" stroke-miterlimit="10" x1="116.919" y1="41.044" x2="147.674" y2="41.044"/>
	<line opacity="0.8" fill="none" stroke="#646464" stroke-miterlimit="10" x1="116.919" y1="50.013" x2="147.674" y2="50.013"/>
	<line opacity="0.8" fill="none" stroke="#646464" stroke-miterlimit="10" x1="116.919" y1="58.983" x2="147.674" y2="58.983"/>
	<circle opacity="0.8" fill="none" stroke="#646464" stroke-miterlimit="10" cx="132.297" cy="50.014" r="24.5"/>
</g>
<polyline opacity="0.8" fill="none" stroke="#FFFFFF" stroke-linecap="round" stroke-miterlimit="10" points="295.185,385.441 
	273.106,421.55 295.185,457.659 "/>
<rect x="18.508" y="344.844" opacity="0.5" width="119.106" height="95.365"/>
<text transform="matrix(1 0 0 1 42.5479 368.6279)" opacity="0.8" fill="#FFFFFF" font-family="'HelveticaNeue-Light'" font-size="13.659">Tour starten</text>
<g opacity="0.8">
	<polyline opacity="0.8" fill="none" stroke="#FFFFFF" stroke-linecap="round" stroke-miterlimit="10" points="125.254,372.785 
		78.061,401.639 30.868,372.785 	"/>
	<polyline opacity="0.8" fill="none" stroke="#FFFFFF" stroke-linecap="round" stroke-miterlimit="10" points="125.254,385.696 
		78.061,414.55 30.868,385.696 	"/>
	<polyline opacity="0.8" fill="none" stroke="#FFFFFF" stroke-linecap="round" stroke-miterlimit="10" points="125.254,398.607 
		78.061,427.463 30.868,398.607 	"/>
</g>
<g opacity="0.8">
	<circle fill="none" stroke="#FFFFFF" stroke-miterlimit="10" cx="30.392" cy="243.833" r="6.167"/>
	<path fill="#FFFFFF" d="M28.161,242.488c0.011-1.473,0.851-2.438,2.356-2.438c1.152,0,2.106,0.716,2.106,1.92
		c0,0.768-0.374,1.266-0.903,1.764c-0.882,0.883-0.934,0.758-0.965,2.023h-0.654c-0.031-1.277,0.322-1.607,1.193-2.418
		c0.384-0.363,0.674-0.799,0.674-1.338c0-0.83-0.674-1.402-1.484-1.402c-1.131,0-1.691,0.82-1.671,1.888H28.161z M29.998,246.516
		h0.872v1.1h-0.872V246.516z"/>
</g>
<g opacity="0.8">
	<circle fill="none" stroke="#FFFFFF" stroke-miterlimit="10" cx="30.392" cy="316.341" r="6.167"/>
	<path fill="#FFFFFF" d="M30.039,312.332h0.708v1.134h-0.708V312.332z M30.039,314.556h0.708v5.794h-0.708V314.556z"/>
</g>
<g opacity="0.8">
	<circle fill="none" stroke="#FFFFFF" stroke-miterlimit="10" cx="30.392" cy="171.325" r="6.167"/>
	<polyline fill="none" stroke="#FFFFFF" stroke-miterlimit="10" points="32.93,170.889 32.93,175.119 27.854,175.119 
		27.854,170.889 	"/>
	<path fill="none" stroke="#FFFFFF" stroke-miterlimit="10" d="M26.523,171.401l3.869-3.87l2.519,2.519l1.351,1.351 M32.93,168.959
		v1.117"/>
</g>
<g opacity="0.8">
	<circle fill="none" stroke="#FFFFFF" stroke-miterlimit="10" cx="30.392" cy="207.58" r="6.167"/>
	<g>
		<polygon fill="none" stroke="#FFFFFF" stroke-miterlimit="10" points="34.3,209.934 26.484,209.934 26.484,205.336 
			30.392,207.156 34.3,205.32 		"/>
		<path fill="none" stroke="#FFFFFF" stroke-miterlimit="10" d="M30.392,207.627"/>
		<line fill="none" stroke="#FFFFFF" stroke-miterlimit="10" x1="26.41" y1="205.224" x2="34.374" y2="205.224"/>
	</g>
</g>
<g opacity="0.8">
	<circle fill="none" stroke="#FFFFFF" stroke-miterlimit="10" cx="30.392" cy="280.088" r="6.167"/>
	<path fill-rule="evenodd" clip-rule="evenodd" fill="#FFFFFF" d="M30.333,283.667c-0.972-0.067-1.988-0.101-2.968-0.395
		c-0.202-0.061-0.497-0.044-0.522-0.37c-0.035-0.454,0.073-0.656,0.438-0.835c0.561-0.273,1.121-0.546,1.683-0.817
		c0.51-0.246,0.68-0.647,0.468-1.178c-0.111-0.277-0.194-0.563-0.364-0.821c-0.152-0.232-0.245-0.505-0.081-0.8
		c0.082-0.146,0.007-0.326-0.004-0.489c-0.067-0.929,0.394-1.438,1.328-1.454c0.503-0.009,0.966,0.066,1.288,0.529
		c0.176,0.253,0.184,0.524,0.191,0.808c0.007,0.265-0.047,0.522,0.057,0.797c0.084,0.223-0.046,0.475-0.175,0.688
		c-0.263,0.431-0.429,0.885-0.376,1.404c0.02,0.198,0.094,0.317,0.275,0.402c0.635,0.298,1.265,0.606,1.895,0.915
		c0.383,0.188,0.536,0.505,0.462,0.908c-0.028,0.156-0.152,0.192-0.269,0.236c-0.431,0.161-0.882,0.241-1.336,0.304
		C31.676,283.588,31.026,283.637,30.333,283.667z"/>
</g>
<g>
	<path fill="none" stroke="#C8C8C8" stroke-width="2" d="M240.229,206.594c0,0,4.202,7.842-2.521,13.725
		c-6.724,5.883-10.083,9.993-12.513,12.232c-2.428,2.243-2.986,3.548-2.986,8.03c0,4.482,1.307,10.086-0.188,16.061
		c-1.494,5.977-2.428,8.218-1.681,12.699c0.747,4.482,3.735,5.787,0.56,9.71c-3.174,3.922-3.547,6.163-7.842,7.097
		c-4.296,0.934-6.537,3.36-6.537,6.35c0,2.987,2.802,7.282,0.747,12.512c-2.054,5.229,1.682,7.097-0.373,12.138
		c-2.054,5.044-2.054,8.776-4.669,13.074c-2.613,4.295-5.229,9.148-5.602,11.391c-0.373,2.239-2.428,5.787-4.482,10.27
		c-2.055,4.481-1.682,8.776-4.109,11.953c-2.428,3.173-1.119,11.016-3.734,15.686c-2.613,4.669-6.536,8.217-7.656,10.644
		c-1.121,2.431-2.055,5.791-5.416,7.659c-3.361,1.867-7.655,2.614-8.59,5.975c-0.934,3.36-2.055,13.259-2.055,13.259"/>
	<path fill="none" stroke="#828282" stroke-width="2" d="M129.958,265.418c0,0,8.59,1.496,12.698,6.537
		c4.109,5.041,13.072,9.151,19.234,7.096c6.164-2.055,12.139-1.121,16.994,0.747c4.855,1.867,13.445,7.471,18.676,9.71
		c5.229,2.243,11.951,5.604,16.059,2.614c4.109-2.985,5.416-1.119,7.657-0.746c2.241,0.375,6.163-1.12,8.217-3.548
		c2.054-2.427,3.548-2.987,6.163-3.736c2.614-0.746,4.668-1.117,7.471-6.348c2.801-5.23,7.095-3.362,10.643-4.296
		c3.549-0.935,14.379-7.282,21.477-7.282"/>
	<circle fill="#FFF3B2" cx="220.95" cy="261.124" r="4.885"/>
	<circle fill="#FFD800" cx="189.318" cy="284.914" r="4.884"/>
	<circle fill="#FFD800" cx="240.236" cy="280.627" r="4.884"/>
	<circle fill="#FFF3B2" cx="183.421" cy="381.391" r="4.884"/>
	<text transform="matrix(1 0 0 1 216.6367 306.6729)" font-family="'HelveticaNeue-Light'" font-size="8.5131">Kreuz Weinsberg</text>
	<text transform="matrix(1 0 0 1 248.7949 286.3057)" font-family="'HelveticaNeue-Light'" font-size="8.5131">Schwabbach</text>
	<text transform="matrix(1 0 0 1 153.3882 298.9033)" font-family="'HelveticaNeue-Light'" font-size="8.5131">Neckarsulm</text>
	<text transform="matrix(1 0 0 1 170.542 264.5986)" fill="#C8C8C8" font-family="'HelveticaNeue-Light'" font-size="8.5131">Neuenstadt</text>
	<text transform="matrix(1 0 0 1 191.1777 384.6572)" fill="#C8C8C8" font-family="'HelveticaNeue-Light'" font-size="8.5131">Pleidelsheim</text>
	<polyline fill="none" stroke="#000000" stroke-linecap="round" stroke-linejoin="round" stroke-dasharray="0,1.7" points="
		272.589,308.509 215.784,308.507 206.813,293.641 	"/>
	<path fill="#828282" d="M208.927,292.886c0,1.39-1.125,2.515-2.514,2.515c-1.386,0-2.508-1.125-2.508-2.515
		c0-1.386,1.122-2.511,2.508-2.511C207.802,290.375,208.927,291.5,208.927,292.886z"/>
	<path fill="none" stroke="#FFD800" stroke-width="2" d="M187.889,284.603c4.854,1.869,4.44,2.666,9.671,4.905
		c5.229,2.243,11.951,5.604,16.059,2.614c4.109-2.985,5.416-1.119,7.657-0.746c2.241,0.375,6.163-1.12,8.217-3.548
		c2.054-2.427,3.548-2.987,6.163-3.736c2.614-0.746,4.668-1.117,7.471-6.348"/>
</g>
<g>
	<defs>
		<rect id="SVGID_1_" x="56.5" y="108.171" width="248.5" height="72.225"/>
	</defs>
	<clipPath id="SVGID_2_">
		<use xlink:href="#SVGID_1_"  overflow="visible"/>
	</clipPath>
	<g clip-path="url(#SVGID_2_)">
		<g>
			
				<image overflow="visible" opacity="0.4" width="76" height="220" xlink:href="1C6503F1.png"  transform="matrix(1 0 0 1 497.4961 97.4961)">
			</image>
			<g>
				<path fill="none" stroke="#FFFFFF" stroke-width="4" d="M561.332,106.796c0,0-0.616,5.964-4.318,19.951
					c-1.645,10.078,1.439,17.071,1.851,21.185c0,0,1.439,9.255-1.439,15.63c-2.881,6.376-5.143,11.313-5.348,18.1
					c-0.207,6.787,3.702,11.313,4.523,13.164c0.824,1.851,2.881,4.524,2.264,8.021s-2.88,5.965-5.142,9.462
					c-2.264,3.496-3.498,6.581-5.965,11.106c-2.468,4.525-3.498,7.404-7.405,10.488c0,0-5.758,2.469-13.574,3.292
					c-7.815,0.822-11.929,4.318-14.809,8.433c-2.88,4.113-3.289,10.9-3.085,17.07c0.205,6.171,3.908,7.405,5.143,14.81
					c1.232,7.403,0.204,9.668-1.439,13.369c-1.646,3.702-2.674,7.404-3.087,10.489l-0.982,5.61"/>
			</g>
		</g>
		<path fill="none" stroke="#FFFFFF" stroke-width="4" d="M51.061,107.014c7.678,4.25,26.933,17.059,35.982,19.254
			c9.05,2.193,14.672,3.565,20.02,6.992c5.348,3.428,9.873,8.639,12.341,12.341c2.467,3.703,6.993,6.583,12.614,6.583
			c5.622,0,8.091,0.821,9.461,1.096c1.371,0.274,4.388,0.821,11.381-0.412c4.25-0.959,13.574,4.114,17.275,5.486
			c3.703,1.371,9.188,0.959,13.988,1.371c4.798,0.411,15.768,2.742,34.142,7.952c18.373,5.211,24.406,5.211,29.754,5.211
			c5.349,0,15.494-2.604,19.196-2.604s9.188,0.273,15.358,3.976c6.169,3.702,12.34,12.614,17.276,16.592
			c4.936,3.976,8.639,6.17,14.396,9.187c5.759,3.016,8.091,5.209,14.533,9.186c6.446,3.977,12.752,6.033,21.803,3.566
			c9.05-2.468,9.324-1.645,17.825-2.057c8.502-0.411,12.752-1.371,16.043-1.371c3.292,0,9.462,0.273,17.551,2.33
			c8.091,2.057,6.583,2.194,13.85,3.291c7.268,1.099,8.775,1.236,14.535,3.566c5.759,2.332,10.419,4.251,13.984,6.582
			c3.566,2.332,12.479,10.01,16.181,12.34c3.702,2.332,10.833,5.896,16.728,7.542c5.897,1.646,13.713,6.033,21.116,9.324
			c7.404,3.292,14.81,4.112,19.061,4.112c4.248,0,8.501-1.644,14.122-5.621c5.623-3.976,10.559-3.7,17.826-1.508
			c7.265,2.194,16.043,2.194,22.762,0.138c6.72-2.057,8.913-5.348,12.889-12.616c3.429-5.895,11.244-6.031,15.222-6.854
			c3.975-0.822,12.613-3.84,16.041-6.171c3.427-2.331,5.622-5.485,6.855-11.655c1.234-6.17,5.897-12.752,18.373-13.986
			c12.479-1.233,17.14-2.605,23.311-5.622c6.171-3.017,12.066-7.815,18.101-8.913c6.031-1.097,13.848-4.524,16.042-5.896
			c2.194-1.372,9.461-5.346,22.624-4.798c13.165,0.547,15.632,2.467,25.642-0.687c10.011-3.154,15.357-7.953,28.657-7.404
			c6.583,0.137,6.857,2.195,19.197,3.154c12.34,0.958,17.823,2.056,25.366,4.799c7.542,2.74,14.123,7.13,21.391,8.775
			c7.267,1.645,9.599,2.33,20.705,2.604c11.105,0.276,17.55,2.059,22.622,3.566c0,0,14.398,6.17,18.375,7.678
			c3.978,1.509,13.848,6.033,19.335,8.775c5.485,2.743,9.873,5.348,15.358,8.639c5.483,3.291,14.121,6.444,21.525,6.444
			s13.572,0.824,15.081,1.372"/>
		<path fill="none" stroke="#FFFFFF" stroke-width="4" d="M561.332,106.796c0,0-0.616,5.964-4.318,19.951
			c-1.645,10.078,1.439,17.071,1.851,21.185c0,0,1.439,9.255-1.439,15.63c-2.881,6.376-5.143,11.313-5.348,18.1
			c-0.207,6.787,3.702,11.313,4.523,13.164c0.824,1.851,2.881,4.524,2.264,8.021s-2.88,5.965-5.142,9.462
			c-2.264,3.496-3.498,6.581-5.965,11.106c-2.468,4.525-3.498,7.404-7.405,10.488c0,0-5.758,2.469-13.574,3.292
			c-7.815,0.822-11.929,4.318-14.809,8.433c-2.88,4.113-3.289,10.9-3.085,17.07c0.205,6.171,3.908,7.405,5.143,14.81
			c1.232,7.403,0.204,9.668-1.439,13.369c-1.646,3.702-2.674,7.404-3.087,10.489l-0.982,5.61"/>
		<path fill="#FFD800" d="M498.513,257.853h-3.632c-1.574,0-2.85,1.276-2.85,2.848v1.12v2.513v2.849h2.85h2.512h1.12
			c1.572,0,2.849-1.275,2.849-2.849V260.7C501.361,259.129,500.085,257.853,498.513,257.853z"/>
		<path fill="#FFD800" d="M598.334,281.984h-3.631c-1.574,0-2.849,1.276-2.849,2.849v1.12v2.512v2.85h2.849h2.512h1.119
			c1.572,0,2.848-1.275,2.848-2.85v-3.632C601.182,283.261,599.906,281.984,598.334,281.984z"/>
		<path fill="#FFD800" d="M665.246,218.363h-3.632c-1.571,0-2.847,1.276-2.847,2.847v1.121v2.512v2.848h2.847h2.514h1.118
			c1.573,0,2.849-1.274,2.849-2.848v-3.633C668.095,219.639,666.819,218.363,665.246,218.363z"/>
		<path fill="#FFD800" d="M891.152,72.195h-3.632c-1.572,0-2.848,1.276-2.848,2.848v1.121v2.511v2.85h2.848h2.514h1.118
			c1.574,0,2.85-1.276,2.85-2.85v-3.632C894.002,73.471,892.727,72.195,891.152,72.195z"/>
		<path fill="#FFD800" d="M138.455,146.057h-3.632c-1.573,0-2.848,1.275-2.848,2.848v1.12v2.511v2.85h2.848h2.513h1.119
			c1.574,0,2.849-1.275,2.849-2.85v-3.63C141.304,147.333,140.028,146.057,138.455,146.057z"/>
		<g>
			<text transform="matrix(1 0 0 1 94.9219 120.0898)" fill="#FFFFFF" font-family="'HelveticaNeue-Light'" font-size="6.993">SINSHEIM</text>
		</g>
		<path fill="#FFD800" d="M445.521,199.715h-3.632c-1.574,0-2.85,1.275-2.85,2.847v1.12v2.511v2.849h2.85h2.512h1.12
			c1.572,0,2.847-1.274,2.847-2.849v-3.631C448.368,200.991,447.094,199.715,445.521,199.715z"/>
		<text transform="matrix(1 0 0 1 397.0508 208.8174)" fill="#1C0E00" font-family="'BentonSansCond-Book'" font-size="6.993">NECKARSULM</text>
		<path fill="#FFD800" d="M713.722,187.237h-3.633c-1.571,0-2.846,1.276-2.846,2.847v1.121v2.511v2.849h2.846h2.514h1.119
			c1.573,0,2.849-1.275,2.849-2.849v-3.632C716.57,188.513,715.295,187.237,713.722,187.237z"/>
		<text transform="matrix(1 0 0 1 670.1006 196.3398)" fill="#FFFFFF" font-family="'HelveticaNeue-Light'" font-size="6.993">ÖHRINGEN</text>
		<path fill="#FFD800" d="M374.459,141.51h-2.269c-0.983,0-1.781,0.797-1.781,1.779v0.701v1.57v1.78h1.781h1.568h0.7
			c0.984,0,1.78-0.796,1.78-1.78v-2.271C376.239,142.308,375.443,141.51,374.459,141.51z"/>
		<text transform="matrix(1 0 0 1 322.2842 147.1152)" fill="#FFFFFF" font-family="'HelveticaNeue-Light'" font-size="6.993">BAD WIMPFEN</text>
		<text transform="matrix(1 0 0 1 843.2666 81.2988)" fill="#FFFFFF" font-family="'HelveticaNeue-Light'" font-size="6.993">KÜNZELSAU</text>
		<path fill="#FFD800" d="M785.399,178.532h-2.268c-0.984,0-1.782,0.797-1.782,1.779v0.7v1.57v1.781h1.782h1.569h0.698
			c0.984,0,1.781-0.798,1.781-1.781v-2.27C787.181,179.329,786.384,178.532,785.399,178.532z"/>
		<text transform="matrix(1 0 0 1 738.1328 184.1367)" fill="#FFFFFF" font-family="'HelveticaNeue-Light'" font-size="6.993">NEUENSTEIN</text>
		<path fill="#FFD800" d="M896.739,146.172h-2.27c-0.983,0-1.779,0.797-1.779,1.78v0.701v1.569v1.781h1.779h1.571h0.698
			c0.984,0,1.781-0.797,1.781-1.781v-2.27C898.521,146.969,897.724,146.172,896.739,146.172z"/>
		<text transform="matrix(1 0 0 1 849.3555 151.7764)" fill="#FFFFFF" font-family="'HelveticaNeue-Light'" font-size="6.993">KUPFERZELL</text>
		<text transform="matrix(1 0 0 1 619.5713 227.4648)" fill="#FFFFFF" font-family="'HelveticaNeue-Light'" font-size="6.993">BRETZFELD</text>
		<text transform="matrix(1 0 0 1 553.0498 291.0869)" fill="#FFFFFF" font-family="'HelveticaNeue-Light'" font-size="6.993">OBERSULM</text>
		<text transform="matrix(1 0 0 1 450.6328 266.9551)" fill="#FFFFFF" font-family="'HelveticaNeue-Light'" font-size="6.993">WEINSBERG</text>
		<text transform="matrix(1 0 0 1 606.3623 228.4307)" fill="#FFFFFF" font-family="'HelveticaNeue-Light'" font-size="6.993">Bretzfeld</text>
		<path fill="#80B4D5" d="M621.077,219.394h-1.814c-0.788,0-1.424,0.639-1.424,1.422v0.561v1.256v1.424h1.424h1.255h0.56
			c0.786,0,1.424-0.638,1.424-1.424v-1.817C622.501,220.033,621.863,219.394,621.077,219.394z"/>
		<text transform="matrix(1 0 0 1 795.3799 166.3184)" fill="#FFFFFF" font-family="'HelveticaNeue-Light'" font-size="6.993">Neuenstein</text>
		<path fill="#80B4D5" d="M794.052,167.152h-1.815c-0.787,0-1.426,0.638-1.426,1.422v0.562v1.256v1.423h1.426h1.256h0.56
			c0.784,0,1.423-0.638,1.423-1.423v-1.817C795.475,167.791,794.836,167.152,794.052,167.152z"/>
		<path fill="#80B4D5" d="M72.54,116.498h-1.815c-0.788,0-1.425,0.638-1.425,1.424v0.561v1.255v1.425h1.425h1.255h0.56
			c0.786,0,1.424-0.638,1.424-1.425v-1.815C73.963,117.136,73.325,116.498,72.54,116.498z"/>
		<text transform="matrix(1 0 0 1 337.918 217.165)" fill="#FFFFFF" font-family="'HelveticaNeue-Light'" font-size="6.1703">Heilbronn/Untereisesheim</text>
		<path fill="#80B4D5" d="M410.156,211.624h-1.814c-0.788,0-1.425,0.638-1.425,1.423v0.561v1.255v1.425h1.425h1.256h0.559
			c0.786,0,1.424-0.638,1.424-1.425v-1.816C411.58,212.261,410.942,211.624,410.156,211.624z"/>
		<text transform="matrix(1 0 0 1 376.9902 225.8037)" fill="#FFFFFF" font-family="'HelveticaNeue-Light'" font-size="6.1703">Heilbronn/Neckarsulm</text>
		<path fill="#80B4D5" d="M439.98,220.262h-1.816c-0.787,0-1.425,0.638-1.425,1.424v0.561v1.255v1.426h1.425h1.256h0.561
			c0.785,0,1.423-0.639,1.423-1.426v-1.815C441.403,220.9,440.766,220.262,439.98,220.262z"/>
		<text transform="matrix(1 0 0 1 691.9463 180.4043)" fill="#FFFFFF" font-family="'HelveticaNeue-Light'" font-size="6.993">Öhringen</text>
		<path fill="#80B4D5" d="M690.62,181.24h-1.816c-0.787,0-1.425,0.637-1.425,1.423v0.562v1.255v1.425h1.425h1.257h0.56
			c0.785,0,1.424-0.638,1.424-1.425v-1.816C692.044,181.877,691.405,181.24,690.62,181.24z"/>
		<text transform="matrix(1 0 0 1 891.3271 188.3232)" fill="#FFFFFF" font-family="'HelveticaNeue-Light'" font-size="6.993">Kupferzell</text>
		<path fill="#80B4D5" d="M889.998,189.16h-1.813c-0.789,0-1.426,0.638-1.426,1.423v0.56v1.256v1.424h1.426h1.254h0.559
			c0.788,0,1.427-0.639,1.427-1.424v-1.816C891.425,189.798,890.786,189.16,889.998,189.16z"/>
		<text transform="matrix(1 0 0 1 943.708 213.1426)" fill="#FFFFFF" font-family="'HelveticaNeue-Light'" font-size="6.993">Schwäbisch Hall</text>
		<path fill="#80B4D5" d="M942.379,213.978h-1.815c-0.788,0-1.426,0.638-1.426,1.423v0.561v1.255v1.425h1.426h1.256h0.56
			c0.786,0,1.424-0.639,1.424-1.425V215.4C943.803,214.615,943.165,213.978,942.379,213.978z"/>
		<text transform="matrix(1 0 0 1 122.123 172.3867)" fill="#FFFFFF" font-family="'HelveticaNeue-Light'" font-size="6.1703">2 km</text>
		<g>
			<line fill="none" stroke="#FFFFFF" stroke-width="0.5" x1="116.699" y1="173.998" x2="142.473" y2="173.998"/>
			<line fill="none" stroke="#FFFFFF" stroke-width="0.5" x1="116.068" y1="175.708" x2="116.068" y2="172.288"/>
			<line fill="none" stroke="#FFFFFF" stroke-width="0.5" x1="143.106" y1="175.708" x2="143.106" y2="172.288"/>
		</g>
		<path fill="#FFD800" d="M438.423,284.495h-6.354c-2.752,0-4.984,2.232-4.984,4.985v1.959v4.398v4.984h4.984h4.396h1.958
			c2.753,0,4.984-2.232,4.984-4.984v-6.357C443.407,286.728,441.176,284.495,438.423,284.495z"/>
		<text transform="matrix(1 0 0 1 386.667 300.9912)" fill="#FFFFFF" font-family="'HelveticaNeue-Light'" font-size="6.993">HEILBRONN</text>
		<g>
			<rect x="187.896" y="156.705" fill-rule="evenodd" clip-rule="evenodd" fill="#FFFFFF" width="13.925" height="9.311"/>
			<polygon fill-rule="evenodd" clip-rule="evenodd" fill="#0069AB" points="201.021,164.294 194.857,165.306 188.693,164.193 
				188.695,158.424 194.86,157.413 201.023,158.424 			"/>
			<text transform="matrix(0.98 0 0 1 191.1602 163.7041)" fill="#FFFFFF" font-family="'BentonSansCond-Bold'" font-size="6.4171">A6</text>
		</g>
		
			<text transform="matrix(0.7071 -0.7071 0.7071 0.7071 531.9551 164.0547)" fill="#FFFFFF" font-family="'HelveticaNeue-Light'" font-size="6.1703">Neuenstadt</text>
		<path fill="#80B4D5" d="M557.696,136.757h-1.815c-0.788,0-1.426,0.639-1.426,1.425v0.56v1.255v1.425h1.426h1.256h0.56
			c0.785,0,1.424-0.638,1.424-1.425v-1.815C559.12,137.396,558.481,136.757,557.696,136.757z"/>
		<path fill="#80B4D5" d="M515.155,285.827h-1.816c-0.787,0-1.424,0.639-1.424,1.423v0.561v1.257v1.423h1.424h1.257h0.56
			c0.786,0,1.423-0.636,1.423-1.423v-1.817C516.578,286.466,515.941,285.827,515.155,285.827z"/>
		<g>
			<rect x="547.749" y="183.87" fill-rule="evenodd" clip-rule="evenodd" fill="#FFFFFF" width="10.715" height="7.161"/>
			<polygon fill-rule="evenodd" clip-rule="evenodd" fill="#80B4D5" points="557.849,189.708 553.104,190.487 548.364,189.631 
				548.365,185.192 553.108,184.415 557.849,185.192 			"/>
			<text transform="matrix(0.98 0 0 1 549.2891 189.2539)" fill="#FFFFFF" font-family="'BentonSansCond-Bold'" font-size="4.9362">A81</text>
		</g>
		
			<text transform="matrix(0.7071 -0.7071 0.7071 0.7071 511.8691 237.1689)" fill="#FFFFFF" font-family="'HelveticaNeue-Light'" font-size="6.1703">Kreuz Weinsberg</text>
		
			<polyline fill="none" stroke="#1C0E00" stroke-width="0.7" stroke-linecap="round" stroke-linejoin="round" stroke-dasharray="0,1.7" points="
			541.021,210.508 509.161,242.369 509.161,257.608 		"/>
		<text transform="matrix(1 0 0 1 79.6304 158.334)" fill="#FFFFFF" font-family="'HelveticaNeue-Light'" font-size="6.1703">Sinsheim-Steinsfurt</text>
		<path fill="#80B4D5" d="M91.486,115.369H89.67c-0.787,0-1.424,0.638-1.424,1.424v0.561v1.255v1.424h1.424h1.256h0.56
			c0.786,0,1.424-0.638,1.424-1.424v-1.816C92.911,116.007,92.272,115.369,91.486,115.369z"/>
		<text transform="matrix(1 0 0 1 256.4746 166.8779)" fill="#FFFFFF" font-family="'HelveticaNeue-Light'" font-size="6.993">Bad Rappenau</text>
		<path fill="#80B4D5" d="M286.032,173.734h-1.816c-0.787,0-1.425,0.637-1.425,1.422v0.561v1.256v1.424h1.425h1.256h0.561
			c0.785,0,1.423-0.639,1.423-1.424v-1.817C287.455,174.371,286.817,173.734,286.032,173.734z"/>
		<path fill="#FFD800" d="M850.4,203.254h-2.27c-0.984,0-1.78,0.797-1.78,1.778v0.7v1.57v1.78h1.78h1.569h0.7
			c0.983,0,1.779-0.796,1.779-1.78v-2.271C852.18,204.051,851.384,203.254,850.4,203.254z"/>
		<text transform="matrix(1 0 0 1 797.3135 208.8574)" fill="#FFFFFF" font-family="'HelveticaNeue-Light'" font-size="6.993">WALDENBURG</text>
		<g>
			<text transform="matrix(1 0 0 1 516.4814 284.9922)"><tspan x="0" y="0" fill="none" stroke="#FFFFFF" font-family="'BentonSansCond-Book'" font-size="6.993">Weinsberg/ </tspan><tspan x="0" y="6.993" fill="none" stroke="#FFFFFF" font-family="'BentonSansCond-Book'" font-size="6.993">Ellhofen</tspan></text>
			<text transform="matrix(1 0 0 1 516.4814 284.9922)"><tspan x="0" y="0" fill="#4E4842" font-family="'BentonSansCond-Book'" font-size="6.993">Weinsberg/ </tspan><tspan x="0" y="6.993" fill="#4E4842" font-family="'BentonSansCond-Book'" font-size="6.993">Ellhofen</tspan></text>
		</g>
		<text transform="matrix(1 0 0 1 63.7891 135.1016)" fill="#FFFFFF" font-family="'HelveticaNeue-Light'" font-size="6.1703">Sinsheim Süd</text>
		<path fill="#80B4D5" d="M105.344,129.559h-1.814c-0.788,0-1.425,0.638-1.425,1.424v0.561v1.254v1.426h1.425h1.255h0.56
			c0.787,0,1.424-0.638,1.424-1.426v-1.815C106.769,130.197,106.131,129.559,105.344,129.559z"/>
		<circle fill="#1C0E00" cx="509.184" cy="257.514" r="1.059"/>
	</g>
</g>
</svg>
