<?xml version="1.0" encoding="utf-8"?>
<!-- Generator: Adobe Illustrator 16.0.3, SVG Export Plug-In . SVG Version: 6.00 Build 0)  -->
<!DOCTYPE svg PUBLIC "-//W3C//DTD SVG 1.1//EN" "http://www.w3.org/Graphics/SVG/1.1/DTD/svg11.dtd">
<svg version="1.1" id="Ebene_1" xmlns="http://www.w3.org/2000/svg" xmlns:xlink="http://www.w3.org/1999/xlink" x="0px" y="0px"
	 width="640px" height="195px" viewBox="0 0 640 220" xml:space="preserve">
<g transform="translate(-110, -950)">
    <path fill="none" stroke="#FFFFFF" stroke-width="4" d="M-804.808,724.17c19.765,10.939,69.326,43.912,92.622,49.561
        c23.295,5.646,37.767,9.178,51.532,18c13.766,8.824,25.413,22.238,31.766,31.768c6.354,9.529,18.002,16.943,32.473,16.943
        c14.471,0,20.824,2.115,24.354,2.82c3.53,0.707,11.294,2.117,29.295-1.059c10.942-2.471,34.943,10.59,44.472,14.119
        c9.53,3.529,23.648,2.469,36.002,3.529c12.354,1.059,40.59,7.059,87.887,20.471c47.295,13.414,62.826,13.414,76.592,13.414
        s39.883-6.705,49.412-6.705c9.531,0,23.65,0.703,39.533,10.232s31.766,32.472,44.473,42.71
        c12.707,10.232,22.236,15.883,37.061,23.646c14.822,7.766,20.826,13.412,37.41,23.646c16.592,10.238,32.826,15.531,56.123,9.18
        c23.295-6.354,24-4.234,45.883-5.295c21.883-1.059,32.826-3.529,41.297-3.529s24.355,0.705,45.178,5.998
        c20.826,5.295,16.943,5.648,35.65,8.471c18.705,2.826,22.588,3.18,37.412,9.18s26.824,10.941,36,16.941
        c9.18,6,32.121,25.766,41.65,31.766s27.885,15.176,43.061,19.412c15.178,4.234,35.295,15.531,54.355,24.002
        c19.061,8.473,38.117,10.588,49.063,10.588c10.939,0,21.881-4.234,36.354-14.471c14.473-10.234,27.18-9.527,45.885-3.881
        s41.297,5.646,58.592,0.352c17.297-5.295,22.943-13.766,33.178-32.473c8.824-15.176,28.943-15.527,39.18-17.646
        c10.234-2.117,32.469-9.885,41.293-15.885c8.824-5.998,14.471-14.119,17.648-30.002c3.176-15.883,15.18-32.824,47.297-36.002
        c32.119-3.176,44.119-6.705,60.002-14.469c15.883-7.768,31.061-20.117,46.592-22.943c15.527-2.824,35.646-11.646,41.295-15.177
        c5.648-3.531,24.354-13.764,58.238-12.352c33.885,1.41,40.236,6.352,66.004-1.768c25.766-8.117,39.529-20.471,73.768-19.059
        c16.941,0.354,17.648,5.648,49.414,8.117s45.883,5.295,65.297,12.355c19.414,7.057,36.355,18.353,55.061,22.589
        c18.707,4.234,24.705,6,53.297,6.703c28.588,0.709,45.178,5.299,58.236,9.18c0,0,37.063,15.883,47.297,19.764
        c10.236,3.883,35.648,15.531,49.768,22.59c14.121,7.061,25.416,13.766,39.533,22.238c14.117,8.471,36.354,16.588,55.412,16.588
        c19.061,0,34.939,2.119,38.824,3.529"/>
    <path fill="none" stroke="#FFFFFF" stroke-width="4" d="M508.692,723.607c0,0-1.588,15.354-11.117,51.357
        c-4.236,25.941,3.705,43.941,4.764,54.531c0,0,3.707,23.824-3.705,40.236s-13.236,29.119-13.766,46.591
        c-0.529,17.471,9.531,29.119,11.646,33.883c2.119,4.766,7.414,11.648,5.824,20.648c-1.588,9-7.412,15.354-13.234,24.355
        c-5.824,9-9.002,16.939-15.354,28.588c-6.354,11.648-9.002,19.061-19.061,27.002c0,0-14.824,6.354-34.943,8.473
        c-20.117,2.115-30.707,11.117-38.119,21.705s-8.471,28.061-7.941,43.943s10.059,19.059,13.236,38.119
        c3.176,19.061,0.529,24.883-3.705,34.414c-4.236,9.529-6.883,19.059-7.943,27.002l-2.529,14.441"/>
    <path fill="#FFD800" d="M776.181,1010.794h-9.35c-4.047,0-7.328,3.285-7.328,7.33v2.885v6.465v7.334h7.328h6.471h2.879
        c4.049,0,7.332-3.283,7.332-7.334v-9.35C783.513,1014.079,780.229,1010.794,776.181,1010.794z"/>
    <path fill="#FFD800" d="M1357.69,634.543h-9.348c-4.049,0-7.332,3.285-7.332,7.33v2.885v6.465v7.334h7.332h6.467h2.881
        c4.051,0,7.332-3.283,7.332-7.334v-9.35C1365.022,637.828,1361.741,634.543,1357.69,634.543z"/>
    <path fill="#FFD800" d="M-704.345,732.672h-9.349c-4.05,0-7.332,3.283-7.332,7.33v2.883v6.465v7.332h7.332h6.467h2.881
        c4.049,0,7.331-3.277,7.331-7.332v-9.348C-697.015,735.955-700.296,732.672-704.345,732.672z"/>
    <g>
        <text transform="matrix(1 0 0 1 -690.6563 757.3301)" fill="#FFFFFF" font-family="'HelveticaNeue-Light'" font-size="18.0008">SINSHEIM</text>
    </g>
    <text transform="matrix(1 0 0 1 222.3125 986.2227)" fill="#FFFFFF" font-family="'BentonSansCond-Book'" font-size="18.0008">NECKARSULM</text>
    <path fill="#FFD800" d="M900.962,930.675h-9.35c-4.047,0-7.328,3.283-7.328,7.328v2.885v6.465v7.334h7.328h6.471h2.879
        c4.049,0,7.332-3.281,7.332-7.334v-9.35C908.294,933.958,905.011,930.675,900.962,930.675z"/>
    <text transform="matrix(1 0 0 1 788.6768 954.1055)" fill="#FFFFFF" font-family="'HelveticaNeue-Light'" font-size="18.0008">ÖHRINGEN</text>
    <path fill="#FFD800" d="M27.659,812.967h-5.842c-2.533,0-4.584,2.053-4.584,4.58v1.803v4.041v4.582h4.584h4.039h1.803
        c2.529,0,4.582-2.051,4.582-4.582v-5.844C32.241,815.02,30.188,812.967,27.659,812.967z"/>
    <text transform="matrix(1 0 0 1 -106.6475 827.3926)" fill="#FFFFFF" font-family="'HelveticaNeue-Light'" font-size="18.0008">BAD WIMPFEN</text>
    <text transform="matrix(1 0 0 1 1234.4229 657.9727)" fill="#FFFFFF" font-family="'HelveticaNeue-Light'" font-size="18.0008">KÜNZELSAU</text>
    <path fill="#FFD800" d="M1085.472,908.266h-5.842c-2.531,0-4.584,2.053-4.584,4.579v1.803v4.041v4.584h4.584h4.041h1.801
        c2.531,0,4.58-2.053,4.58-4.584v-5.844C1090.052,910.318,1088.003,908.266,1085.472,908.266z"/>
    <text transform="matrix(1 0 0 1 963.7988 922.6914)" fill="#FFFFFF" font-family="'HelveticaNeue-Light'" font-size="18.0008">NEUENSTEIN</text>
    <path fill="#FFD800" d="M1372.071,824.967h-5.842c-2.531,0-4.582,2.051-4.582,4.58v1.805v4.041v4.582h4.582h4.043h1.799
        c2.533,0,4.582-2.051,4.582-4.582v-5.846C1376.653,827.018,1374.604,824.967,1372.071,824.967z"/>
    <text transform="matrix(1 0 0 1 1250.0947 839.3926)" fill="#FFFFFF" font-family="'HelveticaNeue-Light'" font-size="18.0008">KUPFERZELL</text>
    <text transform="matrix(1 0 0 1 223.7393 1135.875)" fill="#FFFFFF" font-family="'HelveticaNeue-Light'" font-size="18.0008">WEINSBERG</text>
    <text transform="matrix(1 0 0 1 582.2695 1025.7109)" fill="#FFFFFF" font-family="'HelveticaNeue-Light'" font-size="18.0009">Bretzfeld</text>
    <path fill="#80B4D5" d="M662.485,1013.45h-4.674c-2.025,0-3.666,1.643-3.666,3.66v1.443v3.234v3.666h3.666h3.232h1.441
        c2.023,0,3.664-1.643,3.664-3.666v-4.678C666.149,1015.093,664.509,1013.45,662.485,1013.45z"/>
    <text transform="matrix(1 0 0 1 1111.1563 876.8242)" fill="#FFFFFF" font-family="'HelveticaNeue-Light'" font-size="18.0009">Neuenstein</text>
    <path fill="#80B4D5" d="M1107.741,878.973h-4.674c-2.027,0-3.668,1.643-3.668,3.66v1.443v3.236v3.664h3.668h3.232h1.441
        c2.021,0,3.664-1.643,3.664-3.664v-4.68C1111.405,880.615,1109.763,878.973,1107.741,878.973z"/>
    <path fill="#80B4D5" d="M-749.52,748.582h-4.674c-2.027,0-3.667,1.643-3.667,3.666v1.443v3.23v3.668h3.667h3.232h1.441
        c2.022,0,3.665-1.643,3.665-3.668v-4.674C-745.854,750.225-747.497,748.582-749.52,748.582z"/>
    <text transform="matrix(1 0 0 1 94.3989 1023.709)"><tspan x="0" y="0" fill="#FFFFFF" font-family="'HelveticaNeue-Light'" font-size="15.8832">Heilbronn/ </tspan><tspan x="-17.201" y="15" fill="#FFFFFF" font-family="'HelveticaNeue-Light'" font-size="15.8832">Untereisesheim</tspan></text>
    <text transform="matrix(1 0 0 1 210.1719 1024.4473)" fill="#FFFFFF" font-family="'HelveticaNeue-Light'" font-size="15.8832">Heilbronn/Neckarsulm</text>
    <path fill="#FFFFFF" stroke="#828282" stroke-miterlimit="10" d="M341.817,1124.183h-4.674c-2.027,0-3.668,1.643-3.668,3.666
        v1.443v3.23v3.668h3.668h3.232h1.441c2.021,0,3.664-1.643,3.664-3.668v-4.674C345.481,1125.825,343.839,1124.183,341.817,1124.183
        z"/>
    <path fill="#FFFFFF" stroke="#828282" stroke-miterlimit="10" d="M214.369,974.81h-4.674c-2.027,0-3.668,1.643-3.668,3.666v1.443
        v3.23v3.668h3.668h3.232h1.441c2.021,0,3.664-1.643,3.664-3.668v-4.674C218.033,976.452,216.391,974.81,214.369,974.81z"/>
    <text transform="matrix(1 0 0 1 844.9102 913.0859)" fill="#FFFFFF" font-family="'HelveticaNeue-Light'" font-size="18.0009">Öhringen</text>
    <path fill="#80B4D5" d="M841.495,915.235h-4.674c-2.027,0-3.668,1.641-3.668,3.664v1.445v3.23v3.668h3.668h3.232h1.441
        c2.021,0,3.664-1.643,3.664-3.668v-4.676C845.159,916.876,843.517,915.235,841.495,915.235z"/>
    <text transform="matrix(1 0 0 1 1358.1387 933.4707)" fill="#FFFFFF" font-family="'HelveticaNeue-Light'" font-size="18.0009">Kupferzell</text>
    <path fill="#80B4D5" d="M1354.722,935.622h-4.672c-2.027,0-3.668,1.643-3.668,3.662v1.443v3.232v3.666h3.668h3.232h1.439
        c2.023,0,3.666-1.643,3.666-3.666v-4.676C1358.388,937.265,1356.745,935.622,1354.722,935.622z"/>
    <text transform="matrix(1 0 0 1 1492.9707 997.3574)" fill="#FFFFFF" font-family="'HelveticaNeue-Light'" font-size="18.0009">Schwäbisch Hall</text>
    <path fill="#80B4D5" d="M1489.554,999.507h-4.674c-2.027,0-3.668,1.643-3.668,3.662v1.443v3.232v3.668h3.668h3.232h1.441
        c2.021,0,3.664-1.643,3.664-3.668v-4.676C1493.218,1001.149,1491.575,999.507,1489.554,999.507z"/>
    <text transform="matrix(1 0 0 1 111.5801 1117.4375)" fill="#FFFFFF" font-family="'HelveticaNeue-Light'" font-size="15.8831">2 km</text>
    <g>
        <line fill="none" stroke="#FFFFFF" stroke-width="0.5" x1="97.618" y1="1121.581" x2="163.964" y2="1121.581"/>
        <line fill="none" stroke="#FFFFFF" stroke-width="0.5" x1="95.991" y1="1125.983" x2="95.991" y2="1117.181"/>
        <line fill="none" stroke="#FFFFFF" stroke-width="0.5" x1="165.593" y1="1125.983" x2="165.593" y2="1117.181"/>
    </g>
    <g>

            <rect x="-452.578" y="852.08" fill-rule="evenodd" clip-rule="evenodd" fill="#FFFFFF" stroke="#828282" width="35.845" height="23.965"/>
        <polygon fill-rule="evenodd" clip-rule="evenodd" fill="#0069AB" points="-418.79,871.615 -434.657,874.221 -450.523,871.355
            -450.52,856.506 -434.653,853.902 -418.786,856.506 			"/>

            <text transform="matrix(0.98 0 0 1 -444.1787 870.0957)" fill="#FFFFFF" font-family="'BentonSansCond-Bold'" font-size="16.5184">A6</text>
    </g>

        <text transform="matrix(0.7071 -0.7071 0.7071 0.7071 433.0693 870.9961)" fill="#FFFFFF" font-family="'HelveticaNeue-Light'" font-size="15.8832">Neuenstadt</text>
    <path fill="#80B4D5" d="M499.333,800.732h-4.674c-2.027,0-3.668,1.643-3.668,3.666v1.441v3.23v3.67h3.668h3.232h1.441
        c2.021,0,3.664-1.643,3.664-3.67v-4.672C502.997,802.375,501.354,800.732,499.333,800.732z"/>
    <g>

            <rect x="473.731" y="922.005" fill-rule="evenodd" clip-rule="evenodd" fill="#FFFFFF" stroke="#828282" width="27.574" height="18.436"/>
        <polygon fill-rule="evenodd" clip-rule="evenodd" fill="#80B4D5" points="499.724,937.032 487.517,939.04 475.313,936.835
            475.315,925.409 487.522,923.409 499.728,925.409 			"/>

            <text transform="matrix(0.98 0 0 1 477.6934 935.8633)" fill="#FFFFFF" font-family="'BentonSansCond-Bold'" font-size="12.7065">A81</text>
    </g>

        <text transform="matrix(0.7071 -0.7071 0.7071 0.7071 381.3682 1059.2031)" fill="#FFFFFF" font-family="'HelveticaNeue-Light'" font-size="15.8832">Kreuz Weinsberg</text>
    <polyline fill="none" stroke="#FFFFFF" stroke-linecap="round" stroke-linejoin="round" stroke-dasharray="0,1.7" points="
        456.411,990.575 374.399,1072.591 374.399,1111.817 		"/>
    <text transform="matrix(1 0 0 1 -731.2671 856.2715)" fill="#FFFFFF" font-family="'HelveticaNeue-Light'" font-size="15.8832">Sinsheim-Steinsfurt</text>
    <path fill="#80B4D5" d="M-587.247,835.674h-4.674c-2.026,0-3.667,1.643-3.667,3.666v1.443v3.232v3.668h3.667h3.233h1.441
        c2.022,0,3.664-1.643,3.664-3.668v-4.676C-583.583,837.316-585.225,835.674-587.247,835.674z"/>
    <text transform="matrix(1 0 0 1 -276.0498 878.2637)" fill="#FFFFFF" font-family="'HelveticaNeue-Light'" font-size="18.0009">Bad Rappenau</text>
    <path fill="#80B4D5" d="M-199.966,895.916h-4.674c-2.025,0-3.666,1.641-3.666,3.66v1.443v3.234v3.664h3.666h3.232h1.441
        c2.023,0,3.666-1.643,3.666-3.664v-4.678C-196.3,897.557-197.942,895.916-199.966,895.916z"/>
    <path fill="#FFD800" d="M1252.788,971.901h-5.842c-2.533,0-4.584,2.053-4.584,4.578v1.803v4.043v4.582h4.584h4.041h1.801
        c2.531,0,4.58-2.051,4.58-4.582v-5.846C1257.368,973.954,1255.319,971.901,1252.788,971.901z"/>
    <text transform="matrix(1 0 0 1 1116.1387 986.3262)" fill="#FFFFFF" font-family="'HelveticaNeue-Light'" font-size="18.0008">WALDENBURG</text>
    <text transform="matrix(1 0 0 1 -772.0469 796.4668)" fill="#FFFFFF" font-family="'HelveticaNeue-Light'" font-size="15.8832">Sinsheim Süd</text>
    <path fill="#80B4D5" d="M-665.075,782.201h-4.673c-2.027,0-3.667,1.643-3.667,3.666v1.443v3.23v3.668h3.667h3.232h1.441
        c2.023,0,3.665-1.641,3.665-3.668v-4.674C-661.41,783.844-663.052,782.201-665.075,782.201z"/>
    <path fill="none" stroke="#FFD800" stroke-width="4" d="M249.269,1059.978c-9.102-5.227-39.769-32.978-52.769-38.145
        c0,0-21-9.083-27.875-11.833c-7.071-2.828-18.75-6.125-28-7c-8.923-0.844-23.125-4-23.125-4"/>
    <path fill="#80B4D5" d="M196.317,1015.683h-4.674c-2.027,0-3.668,1.643-3.668,3.666v1.443v3.23v3.668h3.668h3.232h1.441
        c2.021,0,3.664-1.643,3.664-3.668v-4.674C199.981,1017.325,198.339,1015.683,196.317,1015.683z"/>
    <path fill="#80B4D5" d="M376.984,1103.683h-4.674c-2.027,0-3.668,1.643-3.668,3.666v1.443v3.23v3.668h3.668h3.232h1.441
        c2.021,0,3.664-1.643,3.664-3.668v-4.674C380.648,1105.325,379.006,1103.683,376.984,1103.683z"/>
    <path fill="#80B4D5" d="M119.548,993.446h-4.672c-2.027,0-3.668,1.643-3.668,3.664v1.445v3.23v3.668h3.668h3.232h1.439
        c2.023,0,3.666-1.643,3.666-3.668v-4.676C123.214,995.089,121.571,993.446,119.548,993.446z"/>
</g>
</svg>