<?xml version="1.0" encoding="utf-8"?>
<!-- Generator: Adobe Illustrator 16.0.3, SVG Export Plug-In . SVG Version: 6.00 Build 0)  -->
<!DOCTYPE svg PUBLIC "-//W3C//DTD SVG 1.1//EN" "http://www.w3.org/Graphics/SVG/1.1/DTD/svg11.dtd">
<svg version="1.1" id="Ebene_1" xmlns="http://www.w3.org/2000/svg" xmlns:xlink="http://www.w3.org/1999/xlink" x="0px" y="0px"
	 width="640px" height="195px" viewBox="0 0 640 175" xml:space="preserve">
<g transform="translate(-60, -45)">
	<defs>
		<rect id="SVGID_1_" x="59.326" y="44.637" width="639.666" height="185.917"/>
	</defs>
	<clipPath id="SVGID_2_">
		<use xlink:href="#SVGID_1_"  overflow="visible"/>
	</clipPath>
	<g clip-path="url(#SVGID_2_)">
		<g>
			<g>
				<path fill="none" stroke="#FFFFFF" stroke-width="4" d="M1358.824,41.098c0,0-1.588,15.354-11.117,51.356
					c-4.236,25.941,3.705,43.942,4.764,54.532c0,0,3.707,23.824-3.705,40.236s-13.236,29.118-13.766,46.59
					s9.531,29.12,11.646,33.884c2.119,4.766,7.414,11.647,5.824,20.648c-1.588,9-7.412,15.354-13.234,24.355
					c-5.824,8.999-9.002,16.939-15.354,28.588c-6.354,11.648-9.002,19.06-19.061,27.001c0,0-14.824,6.354-34.943,8.473
					c-20.117,2.116-30.707,11.117-38.119,21.706c-7.412,10.588-8.471,28.06-7.941,43.943c0.529,15.883,10.059,19.059,13.236,38.119
					c3.176,19.06,0.529,24.883-3.705,34.414c-4.236,9.529-6.883,19.059-7.943,27.001l-2.529,14.443"/>
			</g>
		</g>
		<path fill="none" stroke="#FFFFFF" stroke-width="4" d="M45.325,41.659c19.765,10.939,69.326,43.913,92.622,49.562
			c23.295,5.646,37.767,9.177,51.532,18s25.413,22.237,31.766,31.768c6.354,9.529,18.002,16.942,32.473,16.942
			s20.824,2.115,24.354,2.821c3.53,0.706,11.295,2.116,29.295-1.06c10.943-2.47,34.943,10.59,44.473,14.12
			c9.53,3.528,23.648,2.469,36.002,3.528c12.355,1.059,40.59,7.06,87.887,20.471c47.295,13.414,62.826,13.414,76.592,13.414
			s39.883-6.705,49.412-6.705c9.531,0,23.65,0.703,39.533,10.233c15.883,9.529,31.766,32.472,44.473,42.71
			c12.707,10.232,22.236,15.883,37.061,23.646c14.822,7.765,20.826,13.411,37.41,23.646c16.592,10.237,32.826,15.531,56.123,9.179
			c23.295-6.353,24-4.234,45.883-5.294c21.883-1.059,32.826-3.529,41.297-3.529s24.355,0.705,45.178,5.998
			c20.826,5.294,16.943,5.648,35.65,8.471c18.705,2.826,22.588,3.18,37.412,9.179c14.824,6.001,26.824,10.942,36,16.942
			c9.18,6,32.121,25.766,41.65,31.766s27.885,15.176,43.061,19.412c15.178,4.234,35.295,15.531,54.355,24.002
			c19.061,8.472,38.117,10.588,49.063,10.588c10.939,0,21.881-4.234,36.354-14.472c14.473-10.233,27.18-9.527,45.885-3.881
			c18.705,5.647,41.297,5.647,58.592,0.353c17.297-5.295,22.943-13.766,33.178-32.474c8.824-15.176,28.943-15.526,39.18-17.646
			c10.234-2.117,32.469-9.886,41.293-15.885s14.471-14.119,17.648-30.002c3.176-15.883,15.18-32.825,47.297-36.002
			c32.119-3.176,44.119-6.705,60.002-14.47c15.883-7.767,31.061-20.117,46.592-22.942c15.527-2.824,35.646-11.647,41.295-15.178
			s24.354-13.763,58.238-12.352c33.885,1.41,40.236,6.353,66.004-1.767c25.766-8.118,39.529-20.471,73.768-19.06
			c16.941,0.354,17.648,5.649,49.414,8.118s45.883,5.295,65.297,12.355c19.414,7.056,36.355,18.353,55.061,22.589
			c18.707,4.234,24.705,5.999,53.297,6.703c28.588,0.708,45.178,5.298,58.236,9.179c0,0,37.063,15.884,47.297,19.765
			c10.236,3.883,35.648,15.53,49.768,22.59c14.121,7.061,25.416,13.766,39.533,22.237c14.117,8.471,36.354,16.588,55.412,16.588
			c19.061,0,34.939,2.12,38.824,3.53"/>
		<path fill="none" stroke="#FFFFFF" stroke-width="4" d="M1358.824,41.098c0,0-1.588,15.354-11.117,51.356
			c-4.236,25.941,3.705,43.942,4.764,54.532c0,0,3.707,23.824-3.705,40.236s-13.236,29.118-13.766,46.59s9.531,29.12,11.646,33.884
			c2.119,4.766,7.414,11.647,5.824,20.648c-1.588,9-7.412,15.354-13.234,24.355c-5.824,8.999-9.002,16.939-15.354,28.588
			c-6.354,11.648-9.002,19.06-19.061,27.001c0,0-14.824,6.354-34.943,8.473c-20.117,2.116-30.707,11.117-38.119,21.706
			c-7.412,10.588-8.471,28.06-7.941,43.943c0.529,15.883,10.059,19.059,13.236,38.119c3.176,19.06,0.529,24.883-3.705,34.414
			c-4.236,9.529-6.883,19.059-7.943,27.001l-2.529,14.443"/>
		<path fill="#FFD800" d="M1197.117,429.936h-9.348c-4.049,0-7.33,3.285-7.33,7.33v2.885v6.466v7.332h7.33h6.469h2.879
			c4.049,0,7.334-3.281,7.334-7.332v-9.351C1204.451,433.221,1201.166,429.936,1197.117,429.936z"/>
		<path fill="#FFD800" d="M1454.07,492.056h-9.348c-4.051,0-7.33,3.285-7.33,7.33v2.884v6.466v7.333h7.33h6.469h2.879
			c4.049,0,7.332-3.282,7.332-7.333v-9.35C1461.402,495.341,1458.119,492.056,1454.07,492.056z"/>
		<path fill="#FFD800" d="M1626.313,328.284h-9.35c-4.047,0-7.328,3.284-7.328,7.33v2.884v6.466v7.333h7.328h6.471h2.879
			c4.049,0,7.332-3.282,7.332-7.333v-9.35C1633.645,331.568,1630.361,328.284,1626.313,328.284z"/>
		<path fill="#FFD800" d="M2207.822-47.968h-9.348c-4.049,0-7.332,3.285-7.332,7.33v2.885v6.466v7.333h7.332h6.467h2.881
			c4.051,0,7.332-3.282,7.332-7.333v-9.351C2215.154-44.683,2211.873-47.968,2207.822-47.968z"/>
		<path fill="#FFD800" d="M270.287,142.162h-9.349c-4.05,0-7.331,3.283-7.331,7.33v2.883v6.464v7.333h7.331h6.468h2.881
			c4.049,0,7.33-3.278,7.33-7.333v-9.347C277.617,145.445,274.336,142.162,270.287,142.162z"/>
		<g>
			<text transform="matrix(1 0 0 1 158.2261 75.3193)" fill="#FFFFFF" font-family="'HelveticaNeue-Light'" font-size="18.0008">SINSHEIM</text>
		</g>
		<path fill="#FFD800" d="M1060.713,280.283h-9.35c-4.049,0-7.332,3.284-7.332,7.33v2.883v6.464v7.334h7.332h6.467h2.883
			c4.047,0,7.328-3.279,7.328-7.334v-9.347C1068.041,283.567,1064.76,280.283,1060.713,280.283z"/>
		<text transform="matrix(1 0 0 1 935.9453 303.7119)" fill="#1C0E00" font-family="'BentonSansCond-Book'" font-size="18.0008">NECKARSULM</text>
		<path fill="#FFD800" d="M1751.094,248.164h-9.35c-4.047,0-7.328,3.283-7.328,7.329v2.885v6.465v7.334h7.328h6.471h2.879
			c4.049,0,7.332-3.281,7.332-7.334v-9.35C1758.426,251.447,1755.143,248.164,1751.094,248.164z"/>
		<text transform="matrix(1 0 0 1 1638.8086 271.5947)" fill="#FFFFFF" font-family="'HelveticaNeue-Light'" font-size="18.0008">ÖHRINGEN</text>
		<path fill="#FFD800" d="M877.791,130.456h-5.842c-2.533,0-4.584,2.053-4.584,4.58v1.804v4.04v4.583h4.584h4.039h1.803
			c2.529,0,4.582-2.051,4.582-4.583v-5.844C882.373,132.509,880.32,130.456,877.791,130.456z"/>
		<text transform="matrix(1 0 0 1 743.4844 144.8818)" fill="#FFFFFF" font-family="'HelveticaNeue-Light'" font-size="18.0008">BAD WIMPFEN</text>
		<text transform="matrix(1 0 0 1 2084.5547 -24.5381)" fill="#FFFFFF" font-family="'HelveticaNeue-Light'" font-size="18.0008">KÜNZELSAU</text>
		<path fill="#FFD800" d="M1935.604,225.756h-5.842c-2.531,0-4.584,2.052-4.584,4.579v1.803v4.041v4.583h4.584h4.041h1.801
			c2.531,0,4.58-2.052,4.58-4.583v-5.844C1940.184,227.808,1938.135,225.756,1935.604,225.756z"/>
		<text transform="matrix(1 0 0 1 1813.9316 240.1807)" fill="#FFFFFF" font-family="'HelveticaNeue-Light'" font-size="18.0008">NEUENSTEIN</text>
		<path fill="#FFD800" d="M2222.203,142.456h-5.842c-2.531,0-4.582,2.052-4.582,4.581v1.804v4.041v4.582h4.582h4.043h1.799
			c2.533,0,4.582-2.051,4.582-4.582v-5.845C2226.785,144.508,2224.736,142.456,2222.203,142.456z"/>
		<text transform="matrix(1 0 0 1 2100.2266 156.8818)" fill="#FFFFFF" font-family="'HelveticaNeue-Light'" font-size="18.0008">KUPFERZELL</text>
		<text transform="matrix(1 0 0 1 1508.7363 351.7119)" fill="#FFFFFF" font-family="'HelveticaNeue-Light'" font-size="18.0008">BRETZFELD</text>
		<text transform="matrix(1 0 0 1 1337.502 515.4854)" fill="#FFFFFF" font-family="'HelveticaNeue-Light'" font-size="18.0008">OBERSULM</text>
		<text transform="matrix(1 0 0 1 1073.8711 453.3643)" fill="#FFFFFF" font-family="'HelveticaNeue-Light'" font-size="18.0008">WEINSBERG</text>
		<text transform="matrix(1 0 0 1 1474.7354 354.2012)" fill="#FFFFFF" font-family="'HelveticaNeue-Light'" font-size="18.0009">Bretzfeld</text>
		<path fill="#80B4D5" d="M1512.617,330.939h-4.674c-2.025,0-3.666,1.643-3.666,3.661v1.443v3.234v3.665h3.666h3.232h1.441
			c2.023,0,3.664-1.642,3.664-3.665v-4.678C1516.281,332.582,1514.641,330.939,1512.617,330.939z"/>
		<text transform="matrix(1 0 0 1 1961.2881 194.3135)" fill="#FFFFFF" font-family="'HelveticaNeue-Light'" font-size="18.0009">Neuenstein</text>
		<path fill="#80B4D5" d="M1957.873,196.463h-4.674c-2.027,0-3.668,1.643-3.668,3.66v1.443v3.235v3.664h3.668h3.232h1.441
			c2.021,0,3.664-1.643,3.664-3.664v-4.679C1961.537,198.105,1959.895,196.463,1957.873,196.463z"/>
		<path fill="#80B4D5" d="M100.613,66.072h-4.674c-2.027,0-3.667,1.643-3.667,3.665v1.443v3.23v3.669h3.667h3.232h1.441
			c2.022,0,3.665-1.643,3.665-3.669v-4.674C104.278,67.715,102.635,66.072,100.613,66.072z"/>
		<text transform="matrix(1 0 0 1 783.7295 325.1992)" fill="#FFFFFF" font-family="'HelveticaNeue-Light'" font-size="15.8832">Heilbronn/Untereisesheim</text>
		<path fill="#80B4D5" d="M969.68,310.937h-4.672c-2.027,0-3.668,1.643-3.668,3.664v1.444v3.23v3.669h3.668h3.232h1.439
			c2.023,0,3.666-1.643,3.666-3.669v-4.675C973.346,312.579,971.703,310.937,969.68,310.937z"/>
		<text transform="matrix(1 0 0 1 884.3037 347.4365)" fill="#FFFFFF" font-family="'HelveticaNeue-Light'" font-size="15.8832">Heilbronn/Neckarsulm</text>
		<path fill="#80B4D5" d="M1046.449,333.173h-4.674c-2.027,0-3.668,1.643-3.668,3.665v1.443v3.23v3.669h3.668h3.232h1.441
			c2.021,0,3.664-1.643,3.664-3.669v-4.674C1050.113,334.815,1048.471,333.173,1046.449,333.173z"/>
		<text transform="matrix(1 0 0 1 1695.043 230.5752)" fill="#FFFFFF" font-family="'HelveticaNeue-Light'" font-size="18.0009">Öhringen</text>
		<path fill="#80B4D5" d="M1691.627,232.726h-4.674c-2.027,0-3.668,1.641-3.668,3.664v1.444v3.23v3.669h3.668h3.232h1.441
			c2.021,0,3.664-1.643,3.664-3.669v-4.675C1695.291,234.366,1693.648,232.726,1691.627,232.726z"/>
		<text transform="matrix(1 0 0 1 2208.2715 250.96)" fill="#FFFFFF" font-family="'HelveticaNeue-Light'" font-size="18.0009">Kupferzell</text>
		<path fill="#80B4D5" d="M2204.854,253.112h-4.672c-2.027,0-3.668,1.643-3.668,3.661v1.443v3.233v3.666h3.668h3.232h1.439
			c2.023,0,3.666-1.643,3.666-3.666v-4.677C2208.52,254.755,2206.877,253.112,2204.854,253.112z"/>
		<text transform="matrix(1 0 0 1 2343.1035 314.8467)" fill="#FFFFFF" font-family="'HelveticaNeue-Light'" font-size="18.0009">Schwäbisch Hall</text>
		<path fill="#80B4D5" d="M2339.686,316.996h-4.674c-2.027,0-3.668,1.643-3.668,3.663v1.443v3.232v3.667h3.668h3.232h1.441
			c2.021,0,3.664-1.643,3.664-3.667v-4.676C2343.35,318.639,2341.707,316.996,2339.686,316.996z"/>
		<text transform="matrix(1 0 0 1 228.248 209.9385)" fill="#FFFFFF" font-family="'HelveticaNeue-Light'" font-size="15.8831">2 km</text>
		<g>
			<line fill="none" stroke="#FFFFFF" stroke-width="0.5" x1="214.287" y1="214.083" x2="280.633" y2="214.083"/>
			<line fill="none" stroke="#FFFFFF" stroke-width="0.5" x1="212.66" y1="218.484" x2="212.66" y2="209.683"/>
			<line fill="none" stroke="#FFFFFF" stroke-width="0.5" x1="282.262" y1="218.484" x2="282.262" y2="209.683"/>
		</g>
		<path fill="#FFD800" d="M1042.443,498.519h-16.361c-7.086,0-12.828,5.746-12.828,12.83v5.047v11.316v12.83h12.828h11.318h5.043
			c7.084,0,12.83-5.744,12.83-12.83v-16.363C1055.273,504.265,1049.527,498.519,1042.443,498.519z"/>
		<text transform="matrix(1 0 0 1 909.2168 540.9775)" fill="#FFFFFF" font-family="'HelveticaNeue-Light'" font-size="18.0008">HEILBRONN</text>
		<g>
			
				<rect x="397.555" y="169.569" fill-rule="evenodd" clip-rule="evenodd" fill="#FFFFFF" stroke="#828282" width="35.844" height="23.965"/>
			<polygon fill-rule="evenodd" clip-rule="evenodd" fill="#0069AB" points="431.342,189.104 415.475,191.71 399.609,188.846 
				399.613,173.995 415.479,171.392 431.346,173.995 			"/>
			<text transform="matrix(0.98 0 0 1 405.9531 187.585)" fill="#FFFFFF" font-family="'BentonSansCond-Bold'" font-size="16.5184">A6</text>
		</g>
		
			<text transform="matrix(0.7071 -0.7071 0.7071 0.7071 1283.2021 188.4863)" fill="#FFFFFF" font-family="'HelveticaNeue-Light'" font-size="15.8832">Neuenstadt</text>
		<path fill="#80B4D5" d="M1349.465,118.222h-4.674c-2.027,0-3.668,1.643-3.668,3.666v1.442v3.23v3.669h3.668h3.232h1.441
			c2.021,0,3.664-1.643,3.664-3.669v-4.673C1353.129,119.864,1351.486,118.222,1349.465,118.222z"/>
		<path fill="#80B4D5" d="M1239.961,501.948h-4.674c-2.029,0-3.67,1.642-3.67,3.659v1.443v3.235v3.664h3.67h3.23h1.443
			c2.021,0,3.664-1.641,3.664-3.664v-4.679C1243.625,503.59,1241.982,501.948,1239.961,501.948z"/>
		<g>
			
				<rect x="1323.863" y="239.495" fill-rule="evenodd" clip-rule="evenodd" fill="#FFFFFF" stroke="#828282" width="27.574" height="18.436"/>
			<polygon fill-rule="evenodd" clip-rule="evenodd" fill="#80B4D5" points="1349.855,254.522 1337.648,256.529 1325.445,254.324 
				1325.447,242.899 1337.654,240.898 1349.859,242.899 			"/>
			
				<text transform="matrix(0.98 0 0 1 1327.8262 253.3525)" fill="#FFFFFF" font-family="'BentonSansCond-Bold'" font-size="12.7065">A81</text>
		</g>
		
			<text transform="matrix(0.7071 -0.7071 0.7071 0.7071 1231.501 376.6924)" fill="#FFFFFF" font-family="'HelveticaNeue-Light'" font-size="15.8832">Kreuz Weinsberg</text>
		
			<polyline fill="none" stroke="#1C0E00" stroke-width="0.7" stroke-linecap="round" stroke-linejoin="round" stroke-dasharray="0,1.7" points="
			1306.543,308.065 1224.531,390.08 1224.531,429.307 		"/>
		<text transform="matrix(1 0 0 1 118.8647 173.7617)" fill="#FFFFFF" font-family="'HelveticaNeue-Light'" font-size="15.8832">Sinsheim-Steinsfurt</text>
		<path fill="#FFFFFF" stroke="#828282" stroke-miterlimit="10" d="M149.385,63.164h-4.674c-2.026,0-3.667,1.643-3.667,3.666v1.443
			v3.231v3.668h3.667h3.233h1.441c2.022,0,3.664-1.643,3.664-3.668V66.83C153.049,64.807,151.408,63.164,149.385,63.164z"/>
		<text transform="matrix(1 0 0 1 574.082 195.7539)" fill="#FFFFFF" font-family="'HelveticaNeue-Light'" font-size="18.0009">Bad Rappenau</text>
		<path fill="#80B4D5" d="M650.166,213.405h-4.674c-2.025,0-3.666,1.641-3.666,3.66v1.443v3.234v3.665h3.666h3.232h1.441
			c2.023,0,3.666-1.643,3.666-3.665v-4.678C653.832,215.046,652.189,213.405,650.166,213.405z"/>
		<path fill="#FFD800" d="M2102.92,289.392h-5.842c-2.533,0-4.584,2.052-4.584,4.578v1.803v4.042v4.583h4.584h4.041h1.801
			c2.531,0,4.58-2.052,4.58-4.583v-5.845C2107.5,291.443,2105.451,289.392,2102.92,289.392z"/>
		<text transform="matrix(1 0 0 1 1966.2715 303.8154)" fill="#FFFFFF" font-family="'HelveticaNeue-Light'" font-size="18.0008">WALDENBURG</text>
		<g>
			<text transform="matrix(1 0 0 1 1243.3721 499.7969)"><tspan x="0" y="0" fill="none" stroke="#FFFFFF" font-family="'BentonSansCond-Book'" font-size="18.0009">Weinsberg/ </tspan><tspan x="0" y="18.001" fill="none" stroke="#FFFFFF" font-family="'BentonSansCond-Book'" font-size="18.0009">Ellhofen</tspan></text>
			<text transform="matrix(1 0 0 1 1243.3721 499.7969)"><tspan x="0" y="0" fill="#4E4842" font-family="'BentonSansCond-Book'" font-size="18.0009">Weinsberg/ </tspan><tspan x="0" y="18.001" fill="#4E4842" font-family="'BentonSansCond-Book'" font-size="18.0009">Ellhofen</tspan></text>
		</g>
		<text transform="matrix(1 0 0 1 78.0859 113.957)" fill="#FFFFFF" font-family="'HelveticaNeue-Light'" font-size="15.8832">Sinsheim Süd</text>
		<path fill="#80B4D5" d="M185.058,99.691h-4.673c-2.027,0-3.668,1.643-3.668,3.665v1.443v3.23v3.669h3.668h3.231h1.441
			c2.022,0,3.665-1.642,3.665-3.669v-4.674C188.723,101.334,187.08,99.691,185.058,99.691z"/>
		<circle fill="#1C0E00" cx="1224.588" cy="429.063" r="2.725"/>
	</g>
</g>
</svg>