<?xml version="1.0" encoding="utf-8"?>
<!-- Generator: Adobe Illustrator 16.0.3, SVG Export Plug-In . SVG Version: 6.00 Build 0)  -->
<!DOCTYPE svg PUBLIC "-//W3C//DTD SVG 1.1//EN" "http://www.w3.org/Graphics/SVG/1.1/DTD/svg11.dtd">
<svg version="1.1" id="Ebene_1" xmlns="http://www.w3.org/2000/svg" xmlns:xlink="http://www.w3.org/1999/xlink" x="0px" y="0px"
	 width="740px" height="195px" viewBox="0 0 840 115" xml:space="preserve">
<g transform="translate(-90, -676)">
	<defs>
		<rect id="SVGID_3_" x="73.811" y="640.507" width="639.666" height="185.917"/>
	</defs>
	<clipPath id="SVGID_4_">
		<use xlink:href="#SVGID_3_"  overflow="visible"/>
	</clipPath>
	<g clip-path="url(#SVGID_4_)">
		<g>
			<g>
				<path fill="none" stroke="#FFFFFF" stroke-width="4" d="M1049.309,521.968c0,0-1.588,15.354-11.117,51.356
					c-4.236,25.941,3.705,43.942,4.764,54.532c0,0,3.707,23.824-3.705,40.236s-13.236,29.118-13.766,46.59
					s9.531,29.12,11.646,33.884c2.119,4.766,7.414,11.647,5.824,20.648c-1.588,9-7.412,15.354-13.234,24.355
					c-5.824,8.999-9.002,16.939-15.354,28.588c-6.354,11.648-9.002,19.06-19.061,27.001c0,0-14.824,6.354-34.943,8.473
					c-20.117,2.116-30.707,11.117-38.119,21.706c-7.412,10.588-8.471,28.06-7.941,43.943c0.529,15.883,10.059,19.059,13.236,38.119
					c3.176,19.06,0.529,24.883-3.705,34.414c-4.236,9.529-6.883,19.059-7.943,27.001l-2.529,14.443"/>
			</g>
		</g>
		<path fill="none" stroke="#FFFFFF" stroke-width="4" d="M-264.191,522.529c19.766,10.939,69.326,43.913,92.622,49.562
			c23.295,5.646,37.767,9.177,51.532,18s25.413,22.237,31.766,31.768c6.354,9.529,18.002,16.942,32.473,16.942
			s20.824,2.115,24.354,2.821c3.53,0.706,11.295,2.116,29.295-1.06c10.943-2.47,34.943,10.59,44.473,14.12
			c9.53,3.528,23.648,2.469,36.002,3.528c12.355,1.059,40.59,7.06,87.887,20.471c47.295,13.414,62.826,13.414,76.592,13.414
			s39.883-6.705,49.412-6.705c9.531,0,23.65,0.703,39.533,10.233c15.883,9.529,31.766,32.472,44.473,42.71
			c12.707,10.232,22.236,15.883,37.061,23.646c14.822,7.765,20.826,13.411,37.41,23.646c16.592,10.237,32.826,15.531,56.123,9.179
			c23.295-6.353,24-4.234,45.883-5.294c21.883-1.059,32.826-3.529,41.297-3.529s24.355,0.705,45.178,5.998
			c20.826,5.294,16.943,5.648,35.65,8.471c18.705,2.826,22.588,3.18,37.412,9.179c14.824,6.001,26.824,10.942,36,16.942
			c9.18,6,32.121,25.766,41.65,31.766s27.885,15.176,43.061,19.412c15.178,4.234,35.295,15.531,54.355,24.002
			c19.061,8.472,38.117,10.588,49.063,10.588c10.939,0,21.881-4.234,36.354-14.472c14.473-10.233,27.18-9.527,45.885-3.881
			c18.705,5.647,41.297,5.647,58.592,0.353c17.297-5.295,22.943-13.766,33.178-32.474c8.824-15.176,28.943-15.526,39.18-17.646
			c10.234-2.117,32.469-9.886,41.293-15.885s14.471-14.119,17.648-30.002c3.176-15.883,15.18-32.825,47.297-36.002
			c32.119-3.176,44.119-6.705,60.002-14.47c15.883-7.767,31.061-20.117,46.592-22.942c15.527-2.824,35.646-11.647,41.295-15.178
			s24.354-13.763,58.238-12.352c33.885,1.41,40.236,6.353,66.004-1.767c25.766-8.118,39.529-20.471,73.768-19.06
			c16.941,0.354,17.648,5.649,49.414,8.118s45.883,5.295,65.297,12.355c19.414,7.056,36.355,18.353,55.061,22.589
			c18.707,4.234,24.705,5.999,53.297,6.703c28.588,0.708,45.178,5.298,58.236,9.179c0,0,37.063,15.884,47.297,19.765
			c10.236,3.883,35.648,15.53,49.768,22.59c14.121,7.061,25.416,13.766,39.533,22.237c14.117,8.471,36.354,16.588,55.412,16.588
			c19.061,0,34.939,2.12,38.824,3.53"/>
		<path fill="none" stroke="#FFFFFF" stroke-width="4" d="M1049.309,521.968c0,0-1.588,15.354-11.117,51.356
			c-4.236,25.941,3.705,43.942,4.764,54.532c0,0,3.707,23.824-3.705,40.236s-13.236,29.118-13.766,46.59s9.531,29.12,11.646,33.884
			c2.119,4.766,7.414,11.647,5.824,20.648c-1.588,9-7.412,15.354-13.234,24.355c-5.824,8.999-9.002,16.939-15.354,28.588
			c-6.354,11.648-9.002,19.06-19.061,27.001c0,0-14.824,6.354-34.943,8.473c-20.117,2.116-30.707,11.117-38.119,21.706
			c-7.412,10.588-8.471,28.06-7.941,43.943c0.529,15.883,10.059,19.059,13.236,38.119c3.176,19.06,0.529,24.883-3.705,34.414
			c-4.236,9.529-6.883,19.059-7.943,27.001l-2.529,14.443"/>
		<path fill="#FFD800" d="M887.602,910.806h-9.348c-4.049,0-7.33,3.285-7.33,7.33v2.885v6.466v7.332h7.33h6.469h2.879
			c4.049,0,7.334-3.281,7.334-7.332v-9.351C894.936,914.091,891.65,910.806,887.602,910.806z"/>
		<path fill="#FFD800" d="M1144.555,972.926h-9.348c-4.051,0-7.33,3.285-7.33,7.33v2.884v6.466v7.333h7.33h6.469h2.879
			c4.049,0,7.332-3.282,7.332-7.333v-9.35C1151.887,976.211,1148.604,972.926,1144.555,972.926z"/>
		<path fill="#FFD800" d="M1316.797,809.154h-9.35c-4.047,0-7.328,3.284-7.328,7.33v2.884v6.466v7.333h7.328h6.471h2.879
			c4.049,0,7.332-3.282,7.332-7.333v-9.35C1324.129,812.438,1320.846,809.154,1316.797,809.154z"/>
		<path fill="#FFD800" d="M1898.307,432.902h-9.348c-4.049,0-7.332,3.285-7.332,7.33v2.885v6.466v7.333h7.332h6.467h2.881
			c4.051,0,7.332-3.282,7.332-7.333v-9.351C1905.639,436.188,1902.357,432.902,1898.307,432.902z"/>
		<path fill="#FFD800" d="M-39.229,623.032h-9.349c-4.05,0-7.331,3.283-7.331,7.33v2.883v6.464v7.333h7.331h6.468h2.881
			c4.049,0,7.33-3.278,7.33-7.333v-9.347C-31.898,626.315-35.18,623.032-39.229,623.032z"/>
		<path fill="#FFD800" d="M342.771,689.032h-9.349c-4.05,0-7.331,3.283-7.331,7.33v2.883v6.464v7.333h7.331h6.468h2.881
			c4.049,0,7.33-3.278,7.33-7.333v-9.347C350.102,692.315,346.82,689.032,342.771,689.032z"/>
		<g>
			<text transform="matrix(1 0 0 1 -151.2896 556.1895)" fill="#FFFFFF" font-family="'HelveticaNeue-Light'" font-size="18.0008">SINSHEIM</text>
		</g>
		<path fill="#FFD800" d="M1441.578,729.034h-9.35c-4.047,0-7.328,3.283-7.328,7.329v2.885v6.465v7.334h7.328h6.471h2.879
			c4.049,0,7.332-3.281,7.332-7.334v-9.35C1448.91,732.317,1445.627,729.034,1441.578,729.034z"/>
		<text transform="matrix(1 0 0 1 1329.2939 752.4648)" fill="#FFFFFF" font-family="'HelveticaNeue-Light'" font-size="18.0008">ÖHRINGEN</text>
		<path fill="#FFD800" d="M568.275,611.326h-5.842c-2.533,0-4.584,2.053-4.584,4.58v1.804v4.04v4.583h4.584h4.039h1.803
			c2.529,0,4.582-2.051,4.582-4.583v-5.844C572.857,613.379,570.805,611.326,568.275,611.326z"/>
		<text transform="matrix(1 0 0 1 433.9697 625.752)" fill="#FFFFFF" font-family="'HelveticaNeue-Light'" font-size="18.0008">BAD WIMPFEN</text>
		<text transform="matrix(1 0 0 1 1775.04 456.332)" fill="#FFFFFF" font-family="'HelveticaNeue-Light'" font-size="18.0008">KÜNZELSAU</text>
		<path fill="#FFD800" d="M1626.088,706.626h-5.842c-2.531,0-4.584,2.052-4.584,4.579v1.803v4.041v4.583h4.584h4.041h1.801
			c2.531,0,4.58-2.052,4.58-4.583v-5.844C1630.668,708.678,1628.619,706.626,1626.088,706.626z"/>
		<text transform="matrix(1 0 0 1 1504.416 721.0508)" fill="#FFFFFF" font-family="'HelveticaNeue-Light'" font-size="18.0008">NEUENSTEIN</text>
		<path fill="#FFD800" d="M1912.688,623.326h-5.842c-2.531,0-4.582,2.052-4.582,4.581v1.804v4.041v4.582h4.582h4.043h1.799
			c2.533,0,4.582-2.051,4.582-4.582v-5.845C1917.27,625.378,1915.221,623.326,1912.688,623.326z"/>
		<text transform="matrix(1 0 0 1 1790.7119 637.752)" fill="#FFFFFF" font-family="'HelveticaNeue-Light'" font-size="18.0008">KUPFERZELL</text>
		<text transform="matrix(1 0 0 1 1199.2217 832.582)" fill="#FFFFFF" font-family="'HelveticaNeue-Light'" font-size="18.0008">BRETZFELD</text>
		<text transform="matrix(1 0 0 1 1027.9873 996.3555)" fill="#FFFFFF" font-family="'HelveticaNeue-Light'" font-size="18.0008">OBERSULM</text>
		<text transform="matrix(1 0 0 1 764.3564 934.2344)" fill="#FFFFFF" font-family="'HelveticaNeue-Light'" font-size="18.0008">WEINSBERG</text>
		<text transform="matrix(1 0 0 1 1165.2197 835.0713)" fill="#FFFFFF" font-family="'HelveticaNeue-Light'" font-size="18.0009">Bretzfeld</text>
		<path fill="#80B4D5" d="M1203.102,811.81h-4.674c-2.025,0-3.666,1.643-3.666,3.661v1.443v3.234v3.665h3.666h3.232h1.441
			c2.023,0,3.664-1.642,3.664-3.665v-4.678C1206.766,813.452,1205.125,811.81,1203.102,811.81z"/>
		<text transform="matrix(1 0 0 1 1651.7725 675.1836)" fill="#FFFFFF" font-family="'HelveticaNeue-Light'" font-size="18.0009">Neuenstein</text>
		<path fill="#80B4D5" d="M1648.357,677.333h-4.674c-2.027,0-3.668,1.643-3.668,3.66v1.443v3.235v3.664h3.668h3.232h1.441
			c2.021,0,3.664-1.643,3.664-3.664v-4.679C1652.021,678.976,1650.379,677.333,1648.357,677.333z"/>
		<path fill="#80B4D5" d="M-208.902,546.942h-4.674c-2.027,0-3.668,1.643-3.668,3.665v1.443v3.23v3.669h3.668h3.232h1.441
			c2.021,0,3.664-1.643,3.664-3.669v-4.674C-205.238,548.585-206.881,546.942-208.902,546.942z"/>
		<text transform="matrix(1 0 0 1 597.7158 760.0693)"><tspan x="0" y="0" fill="#FFFFFF" font-family="'HelveticaNeue-Light'" font-size="15.8832">Heilbronn/ </tspan><tspan x="-34.403" y="15" fill="#FFFFFF" font-family="'HelveticaNeue-Light'" font-size="15.8832">Untereisesheim</tspan></text>
		<path fill="#80B4D5" d="M660.164,791.807h-4.672c-2.027,0-3.668,1.643-3.668,3.664v1.444v3.23v3.669h3.668h3.232h1.439
			c2.023,0,3.666-1.643,3.666-3.669v-4.675C663.83,793.449,662.188,791.807,660.164,791.807z"/>
		<text transform="matrix(1 0 0 1 1385.5273 711.4453)" fill="#FFFFFF" font-family="'HelveticaNeue-Light'" font-size="18.0009">Öhringen</text>
		<path fill="#80B4D5" d="M1382.111,713.596h-4.674c-2.027,0-3.668,1.641-3.668,3.664v1.444v3.23v3.669h3.668h3.232h1.441
			c2.021,0,3.664-1.643,3.664-3.669v-4.675C1385.775,715.236,1384.133,713.596,1382.111,713.596z"/>
		<text transform="matrix(1 0 0 1 1898.7559 731.8301)" fill="#FFFFFF" font-family="'HelveticaNeue-Light'" font-size="18.0009">Kupferzell</text>
		<path fill="#80B4D5" d="M1895.338,733.982h-4.672c-2.027,0-3.668,1.643-3.668,3.661v1.443v3.233v3.666h3.668h3.232h1.439
			c2.023,0,3.666-1.643,3.666-3.666v-4.677C1899.004,735.625,1897.361,733.982,1895.338,733.982z"/>
		<text transform="matrix(1 0 0 1 2033.5879 795.7168)" fill="#FFFFFF" font-family="'HelveticaNeue-Light'" font-size="18.0009">Schwäbisch Hall</text>
		<path fill="#80B4D5" d="M2030.17,797.866h-4.674c-2.027,0-3.668,1.643-3.668,3.663v1.443v3.232v3.667h3.668h3.232h1.441
			c2.021,0,3.664-1.643,3.664-3.667v-4.676C2033.834,799.509,2032.191,797.866,2030.17,797.866z"/>
		<g>
			<text transform="matrix(1 0 0 1 334.7324 784.8086)" fill="#FFFFFF" font-family="'HelveticaNeue-Light'" font-size="15.8831">2 km</text>
			<g>
				<line fill="none" stroke="#FFFFFF" stroke-width="0.5" x1="320.771" y1="788.953" x2="387.117" y2="788.953"/>
				<line fill="none" stroke="#FFFFFF" stroke-width="0.5" x1="319.145" y1="793.354" x2="319.145" y2="784.553"/>
				<line fill="none" stroke="#FFFFFF" stroke-width="0.5" x1="388.746" y1="793.354" x2="388.746" y2="784.553"/>
			</g>
		</g>
		<path fill="#FFD800" d="M732.928,979.389h-16.361c-7.086,0-12.828,5.746-12.828,12.83v5.047v11.316v12.83h12.828h11.318h5.043
			c7.084,0,12.83-5.744,12.83-12.83v-16.363C745.758,985.135,740.012,979.389,732.928,979.389z"/>
		<text transform="matrix(1 0 0 1 599.7021 1021.8477)" fill="#FFFFFF" font-family="'HelveticaNeue-Light'" font-size="18.0008">HEILBRONN</text>
		<g>

				<rect x="238.039" y="678.439" fill-rule="evenodd" clip-rule="evenodd" fill="#FFFFFF" stroke="#828282" width="35.844" height="23.965"/>
			<polygon fill-rule="evenodd" clip-rule="evenodd" fill="#0069AB" points="271.826,697.975 255.959,700.58 240.094,697.716
				240.098,682.865 255.963,680.262 271.83,682.865 			"/>

				<text transform="matrix(0.98 0 0 1 246.4385 696.4551)" fill="#FFFFFF" font-family="'BentonSansCond-Bold'" font-size="16.5184">A6</text>
		</g>

			<text transform="matrix(0.7071 -0.7071 0.7071 0.7071 973.6865 669.3564)" fill="#FFFFFF" font-family="'HelveticaNeue-Light'" font-size="15.8832">Neuenstadt</text>
		<path fill="#80B4D5" d="M1039.949,599.092h-4.674c-2.027,0-3.668,1.643-3.668,3.666v1.442v3.23v3.669h3.668h3.232h1.441
			c2.021,0,3.664-1.643,3.664-3.669v-4.673C1043.613,600.734,1041.971,599.092,1039.949,599.092z"/>
		<path fill="#80B4D5" d="M930.445,982.818h-4.674c-2.029,0-3.67,1.642-3.67,3.659v1.443v3.235v3.664h3.67h3.23h1.443
			c2.021,0,3.664-1.641,3.664-3.664v-4.679C934.109,984.46,932.467,982.818,930.445,982.818z"/>
		<g>

				<rect x="1014.348" y="720.365" fill-rule="evenodd" clip-rule="evenodd" fill="#FFFFFF" stroke="#828282" width="27.574" height="18.436"/>
			<polygon fill-rule="evenodd" clip-rule="evenodd" fill="#80B4D5" points="1040.34,735.393 1028.133,737.399 1015.93,735.194
				1015.932,723.77 1028.139,721.769 1040.344,723.77 			"/>

				<text transform="matrix(0.98 0 0 1 1018.3105 734.2227)" fill="#FFFFFF" font-family="'BentonSansCond-Bold'" font-size="12.7065">A81</text>
		</g>

			<text transform="matrix(0.7071 -0.7071 0.7071 0.7071 921.9854 857.5625)" fill="#FFFFFF" font-family="'HelveticaNeue-Light'" font-size="15.8832">Kreuz Weinsberg</text>

			<polyline fill="none" stroke="#1C0E00" stroke-width="0.7" stroke-linecap="round" stroke-linejoin="round" stroke-dasharray="0,1.7" points="
			997.027,788.936 915.016,870.95 915.016,910.177 		"/>
		<text transform="matrix(1 0 0 1 -190.6509 654.6318)" fill="#FFFFFF" font-family="'HelveticaNeue-Light'" font-size="15.8832">Sinsheim-Steinsfurt</text>
		<path fill="#FFFFFF" stroke="#828282" stroke-miterlimit="10" d="M-160.131,544.034h-4.674c-2.026,0-3.666,1.643-3.666,3.666
			v1.443v3.231v3.668h3.666h3.232h1.441c2.023,0,3.664-1.643,3.664-3.668V547.7C-156.467,545.677-158.107,544.034-160.131,544.034z"
			/>
		<text transform="matrix(1 0 0 1 325.5654 682.624)" fill="#FFFFFF" font-family="'HelveticaNeue-Light'" font-size="18.0009">Fürfeld</text>
		<path fill="#FFD800" d="M1793.404,770.262h-5.842c-2.533,0-4.584,2.052-4.584,4.578v1.803v4.042v4.583h4.584h4.041h1.801
			c2.531,0,4.58-2.052,4.58-4.583v-5.845C1797.984,772.313,1795.936,770.262,1793.404,770.262z"/>
		<text transform="matrix(1 0 0 1 1656.7559 784.6855)" fill="#FFFFFF" font-family="'HelveticaNeue-Light'" font-size="18.0008">WALDENBURG</text>
		<g>
			<text transform="matrix(1 0 0 1 933.8564 980.667)"><tspan x="0" y="0" fill="none" stroke="#FFFFFF" font-family="'BentonSansCond-Book'" font-size="18.0009">Weinsberg/ </tspan><tspan x="0" y="18.001" fill="none" stroke="#FFFFFF" font-family="'BentonSansCond-Book'" font-size="18.0009">Ellhofen</tspan></text>
			<text transform="matrix(1 0 0 1 933.8564 980.667)"><tspan x="0" y="0" fill="#4E4842" font-family="'BentonSansCond-Book'" font-size="18.0009">Weinsberg/ </tspan><tspan x="0" y="18.001" fill="#4E4842" font-family="'BentonSansCond-Book'" font-size="18.0009">Ellhofen</tspan></text>
		</g>
		<text transform="matrix(1 0 0 1 -231.4297 594.8271)" fill="#FFFFFF" font-family="'HelveticaNeue-Light'" font-size="15.8832">Sinsheim Süd</text>
		<path fill="#80B4D5" d="M-124.458,580.562h-4.673c-2.027,0-3.668,1.643-3.668,3.665v1.443v3.23v3.669h3.668h3.231h1.441
			c2.022,0,3.665-1.642,3.665-3.669v-4.674C-120.793,582.204-122.436,580.562-124.458,580.562z"/>
		<circle fill="#1C0E00" cx="915.072" cy="909.933" r="2.725"/>
	</g>
</g>
</svg>