<?xml version="1.0" encoding="utf-8"?>
<!-- Generator: Adobe Illustrator 16.0.3, SVG Export Plug-In . SVG Version: 6.00 Build 0)  -->
<!DOCTYPE svg PUBLIC "-//W3C//DTD SVG 1.1//EN" "http://www.w3.org/Graphics/SVG/1.1/DTD/svg11.dtd">
<svg version="1.1" id="Ebene_1" xmlns="http://www.w3.org/2000/svg" xmlns:xlink="http://www.w3.org/1999/xlink" x="0px" y="0px"
	 width="640px" height="195px" viewBox="0 0 450 195" xml:space="preserve">
<g transform="translate(-195, -1305)">
 	<defs>
 		<rect id="SVGID_9_" x="79.237" y="1305.073" width="639.667" height="194.416"/>
 	</defs>
 	<clipPath id="SVGID_10_">
 		<use xlink:href="#SVGID_9_"  overflow="visible"/>
 	</clipPath>
 	<g clip-path="url(#SVGID_10_)">
 		<path fill="none" stroke="#FFD800" stroke-width="4" d="M-1265.777,1176.096c19.765,10.939,69.326,43.912,92.622,49.561
 			c23.295,5.646,37.767,9.178,51.532,18c13.766,8.824,25.413,22.238,31.766,31.768c6.354,9.529,18.002,16.943,32.473,16.943
 			c14.471,0,20.824,2.115,24.354,2.82c3.53,0.707,11.294,2.117,29.295-1.059c10.942-2.471,34.943,10.59,44.472,14.119
 			c9.53,3.529,23.648,2.469,36.002,3.529c12.354,1.059,40.59,7.059,87.887,20.471c47.295,13.414,62.826,13.414,76.592,13.414
 			s39.883-6.705,49.412-6.705c9.531,0,23.65,0.703,39.533,10.232s31.766,32.472,44.473,42.71
 			c12.707,10.232,22.236,15.883,37.061,23.646c14.822,7.766,20.826,13.412,37.41,23.646c16.592,10.238,32.826,15.531,56.123,9.18
 			c23.295-6.354,24-4.234,45.883-5.295c21.883-1.059,32.826-3.529,41.297-3.529s24.355,0.705,45.178,5.998
 			c20.826,5.295,16.943,5.648,35.65,8.471c18.705,2.826,22.588,3.18,37.412,9.18s26.824,10.941,36,16.941
 			c9.18,6,32.121,25.766,41.65,31.766s27.885,15.176,43.061,19.412c15.178,4.234,35.295,15.531,54.355,24.002
 			c19.061,8.473,38.117,10.588,49.063,10.588c10.939,0,21.881-4.234,36.354-14.471c14.473-10.234,27.18-9.527,45.885-3.881
 			s41.297,5.646,58.592,0.352c17.297-5.295,22.943-13.766,33.178-32.473c8.824-15.176,28.943-15.527,39.18-17.646
 			c10.234-2.117,32.468-9.885,41.292-15.885c8.824-5.998,14.471-14.119,17.648-30.002c3.176-15.883,15.18-32.824,47.297-36.002
 			c32.119-3.176,44.119-6.705,60.002-14.469c15.883-7.768,31.061-20.117,46.592-22.943c15.527-2.824,35.646-11.646,41.295-15.177
 			c5.648-3.531,24.354-13.764,58.238-12.352c33.885,1.41,40.236,6.352,66.004-1.768c25.766-8.117,39.529-20.471,73.768-19.059
 			c16.941,0.354,17.648,5.648,49.414,8.117s45.883,5.295,65.297,12.355c19.414,7.057,36.355,18.353,55.061,22.589
 			c18.707,4.234,24.705,6,53.297,6.703c28.588,0.709,45.178,5.299,58.236,9.18c0,0,37.063,15.883,47.297,19.764
 			c10.236,3.883,35.648,15.531,49.768,22.59c14.121,7.061,25.416,13.766,39.533,22.238c14.117,8.471,36.354,16.588,55.412,16.588
 			c19.061,0,34.939,2.119,38.824,3.529"/>
 		<path fill="none" stroke="#FFFFFF" stroke-width="4" d="M47.723,1175.533c0,0-1.588,15.354-11.117,51.357
 			c-4.236,25.941,3.705,43.941,4.764,54.531c0,0,3.707,23.824-3.705,40.236s-13.236,29.119-13.766,46.591
 			c-0.529,17.471,9.531,29.119,11.646,33.883c2.119,4.766,7.414,11.648,5.824,20.648c-1.588,9-7.412,15.354-13.234,24.355
 			c-5.824,9-9.002,16.939-15.354,28.588c-6.354,11.648-9.002,19.061-19.061,27.002c0,0-14.824,6.354-34.943,8.473
 			c-20.117,2.115-30.707,11.117-38.119,21.705s-8.471,28.061-7.941,43.943s10.059,19.059,13.236,38.119
 			c3.176,19.061,0.529,24.883-3.705,34.414c-4.236,9.529-6.883,19.059-7.943,27.002l-2.529,14.441"/>
 		<path fill="#FFD800" d="M896.721,1086.469h-9.348c-4.049,0-7.332,3.285-7.332,7.33v2.885v6.465v7.334h7.332h6.467h2.881
 			c4.051,0,7.332-3.283,7.332-7.334v-9.35C904.053,1089.754,900.771,1086.469,896.721,1086.469z"/>
 		<path fill="#FFD800" d="M-1165.314,1184.598h-9.349c-4.05,0-7.332,3.283-7.332,7.33v2.883v6.465v7.332h7.332h6.467h2.881
 			c4.049,0,7.331-3.277,7.331-7.332v-9.348C-1157.984,1187.881-1161.266,1184.598-1165.314,1184.598z"/>
 		<g>

 				<text transform="matrix(1 0 0 1 -1151.6255 1209.2559)" fill="#FFFFFF" font-family="'HelveticaNeue-Light'" font-size="18.0008">SINSHEIM</text>
 		</g>
 		<text transform="matrix(1 0 0 1 -238.6567 1438.1484)" fill="#FFFFFF" font-family="'BentonSansCond-Book'" font-size="18.0008">NECKARSULM</text>
 		<text transform="matrix(1 0 0 1 337.709 1407.0313)" fill="#FFFFFF" font-family="'HelveticaNeue-Light'" font-size="18.0008">ÖHRINGEN</text>
 		<path fill="#FFD800" d="M-433.31,1264.893h-5.842c-2.533,0-4.584,2.053-4.584,4.58v1.803v4.041v4.582h4.584h4.039h1.803
 			c2.529,0,4.582-2.051,4.582-4.582v-5.844C-428.728,1266.945-430.781,1264.893-433.31,1264.893z"/>
 		<text transform="matrix(1 0 0 1 -567.6167 1279.3184)" fill="#FFFFFF" font-family="'HelveticaNeue-Light'" font-size="18.0008">BAD WIMPFEN</text>
 		<text transform="matrix(1 0 0 1 773.4531 1109.8984)" fill="#FFFFFF" font-family="'HelveticaNeue-Light'" font-size="18.0008">KÜNZELSAU</text>
 		<text transform="matrix(1 0 0 1 502.8301 1374.6172)" fill="#FFFFFF" font-family="'HelveticaNeue-Light'" font-size="18.0008">NEUENSTEIN</text>
 		<path fill="#FFD800" d="M911.102,1276.893h-5.842c-2.531,0-4.582,2.051-4.582,4.58v1.805v4.041v4.582h4.582h4.043h1.799
 			c2.533,0,4.582-2.051,4.582-4.582v-5.846C915.684,1278.943,913.635,1276.893,911.102,1276.893z"/>
 		<text transform="matrix(1 0 0 1 789.125 1291.3184)" fill="#FFFFFF" font-family="'HelveticaNeue-Light'" font-size="18.0008">KUPFERZELL</text>
 		<text transform="matrix(1 0 0 1 -237.23 1587.8008)" fill="#FFFFFF" font-family="'HelveticaNeue-Light'" font-size="18.0008">WEINSBERG</text>
 		<text transform="matrix(1 0 0 1 121.2998 1477.6367)" fill="#FFFFFF" font-family="'HelveticaNeue-Light'" font-size="18.0009">Bretzfeld</text>
 		<path fill="#80B4D5" d="M201.516,1465.376h-4.674c-2.025,0-3.666,1.643-3.666,3.66v1.443v3.234v3.666h3.666h3.232h1.441
 			c2.023,0,3.664-1.643,3.664-3.666v-4.678C205.18,1467.019,203.539,1465.376,201.516,1465.376z"/>
 		<text transform="matrix(1 0 0 1 597.1865 1323.25)" fill="#FFFFFF" font-family="'HelveticaNeue-Light'" font-size="18.0009">Neuenstein</text>
 		<path fill="#80B4D5" d="M646.771,1330.898h-4.674c-2.027,0-3.668,1.643-3.668,3.66v1.443v3.236v3.664h3.668h3.232h1.441
 			c2.021,0,3.664-1.643,3.664-3.664v-4.68C650.436,1332.541,648.793,1330.898,646.771,1330.898z"/>
 		<path fill="#80B4D5" d="M-1210.489,1200.508h-4.674c-2.027,0-3.667,1.643-3.667,3.666v1.443v3.23v3.668h3.667h3.232h1.441
 			c2.022,0,3.665-1.643,3.665-3.668v-4.674C-1206.824,1202.15-1208.466,1200.508-1210.489,1200.508z"/>
 		<text transform="matrix(1 0 0 1 -366.5708 1475.6348)"><tspan x="0" y="0" fill="#FFFFFF" font-family="'HelveticaNeue-Light'" font-size="15.8832">Heilbronn/ </tspan><tspan x="-17.201" y="15" fill="#FFFFFF" font-family="'HelveticaNeue-Light'" font-size="15.8832">Untereisesheim</tspan></text>
 		<path fill="#80B4D5" d="M-341.421,1445.372h-4.672c-2.027,0-3.668,1.643-3.668,3.664v1.445v3.23v3.668h3.668h3.232h1.439
 			c2.023,0,3.666-1.643,3.666-3.668v-4.676C-337.755,1447.015-339.398,1445.372-341.421,1445.372z"/>
 		<text transform="matrix(1 0 0 1 -250.7979 1476.373)" fill="#FFFFFF" font-family="'HelveticaNeue-Light'" font-size="15.8832">Heilbronn/Neckarsulm</text>
 		<path fill="#FFFFFF" stroke="#828282" stroke-miterlimit="10" d="M-119.152,1576.108h-4.674c-2.027,0-3.668,1.643-3.668,3.666
 			v1.443v3.23v3.668h3.668h3.232h1.441c2.021,0,3.664-1.643,3.664-3.668v-4.674C-115.488,1577.751-117.13,1576.108-119.152,1576.108
 			z"/>
 		<path fill="#FFFFFF" stroke="#828282" stroke-miterlimit="10" d="M-246.6,1426.735h-4.674c-2.027,0-3.668,1.643-3.668,3.666v1.443
 			v3.23v3.668h3.668h3.232h1.441c2.021,0,3.664-1.643,3.664-3.668v-4.674C-242.936,1428.378-244.579,1426.735-246.6,1426.735z"/>
 		<text transform="matrix(1 0 0 1 343.9414 1348.3438)" fill="#FFFFFF" font-family="'HelveticaNeue-Light'" font-size="18.0009">Öhringen</text>
 		<path fill="#80B4D5" d="M380.525,1367.161h-4.674c-2.027,0-3.668,1.641-3.668,3.664v1.445v3.23v3.668h3.668h3.232h1.441
 			c2.021,0,3.664-1.643,3.664-3.668v-4.676C384.189,1368.802,382.547,1367.161,380.525,1367.161z"/>
 		<path fill="#FFFFFF" stroke="#828282" stroke-miterlimit="10" d="M440.525,1395.494h-4.674c-2.027,0-3.668,1.641-3.668,3.664
 			v1.445v3.23v3.668h3.668h3.232h1.441c2.021,0,3.664-1.643,3.664-3.668v-4.676C444.189,1397.135,442.547,1395.494,440.525,1395.494
 			z"/>
 		<path fill="#FFFFFF" stroke="#828282" stroke-miterlimit="10" d="M621.705,1362.581h-4.674c-2.027,0-3.668,1.641-3.668,3.664
 			v1.445v3.23v3.668h3.668h3.232h1.441c2.021,0,3.664-1.643,3.664-3.668v-4.676C625.369,1364.222,623.727,1362.581,621.705,1362.581
 			z"/>
 		<text transform="matrix(1 0 0 1 887.168 1377.3965)" fill="#FFFFFF" font-family="'HelveticaNeue-Light'" font-size="18.0009">Kupferzell</text>
 		<path fill="#80B4D5" d="M893.752,1387.548h-4.672c-2.027,0-3.668,1.643-3.668,3.662v1.443v3.232v3.666h3.668h3.232h1.439
 			c2.023,0,3.666-1.643,3.666-3.666v-4.676C897.418,1389.19,895.775,1387.548,893.752,1387.548z"/>
 		<text transform="matrix(1 0 0 1 1032.002 1449.2832)" fill="#FFFFFF" font-family="'HelveticaNeue-Light'" font-size="18.0009">Schwäbisch Hall</text>
 		<path fill="#80B4D5" d="M1028.584,1451.433h-4.674c-2.027,0-3.668,1.643-3.668,3.662v1.443v3.232v3.668h3.668h3.232h1.441
 			c2.021,0,3.664-1.643,3.664-3.668v-4.676C1032.248,1453.075,1030.605,1451.433,1028.584,1451.433z"/>
 		<text transform="matrix(1 0 0 1 526.5664 1465.8672)" fill="#FFFFFF" font-family="'HelveticaNeue-Light'" font-size="15.8831">2 km</text>
 		<g>
 			<line fill="none" stroke="#FFFFFF" stroke-width="0.5" x1="512.605" y1="1470.012" x2="578.951" y2="1470.012"/>
 			<line fill="none" stroke="#FFFFFF" stroke-width="0.5" x1="510.979" y1="1474.414" x2="510.979" y2="1465.611"/>
 			<line fill="none" stroke="#FFFFFF" stroke-width="0.5" x1="580.58" y1="1474.414" x2="580.58" y2="1465.611"/>
 		</g>
 		<g>

 				<rect x="-913.547" y="1304.006" fill-rule="evenodd" clip-rule="evenodd" fill="#FFFFFF" stroke="#828282" width="35.845" height="23.965"/>
 			<polygon fill-rule="evenodd" clip-rule="evenodd" fill="#0069AB" points="-879.759,1323.541 -895.626,1326.146
 				-911.493,1323.281 -911.489,1308.432 -895.623,1305.828 -879.755,1308.432 			"/>

 				<text transform="matrix(0.98 0 0 1 -905.1479 1322.0215)" fill="#FFFFFF" font-family="'BentonSansCond-Bold'" font-size="16.5184">A6</text>
 		</g>

 			<text transform="matrix(0.7071 -0.7071 0.7071 0.7071 -27.8999 1322.9219)" fill="#FFFFFF" font-family="'HelveticaNeue-Light'" font-size="15.8832">Neuenstadt</text>
 		<path fill="#80B4D5" d="M38.364,1252.658H33.69c-2.027,0-3.668,1.643-3.668,3.666v1.441v3.23v3.67h3.668h3.232h1.441
 			c2.021,0,3.664-1.643,3.664-3.67v-4.672C42.028,1254.301,40.385,1252.658,38.364,1252.658z"/>
 		<g>

 				<rect x="12.762" y="1373.931" fill-rule="evenodd" clip-rule="evenodd" fill="#FFFFFF" stroke="#828282" width="27.574" height="18.436"/>
 			<polygon fill-rule="evenodd" clip-rule="evenodd" fill="#80B4D5" points="38.754,1388.958 26.547,1390.966 14.344,1388.761
 				14.346,1377.335 26.553,1375.335 38.758,1377.335 			"/>

 				<text transform="matrix(0.98 0 0 1 16.7241 1387.7891)" fill="#FFFFFF" font-family="'BentonSansCond-Bold'" font-size="12.7065">A81</text>
 		</g>

 			<text transform="matrix(0.7071 -0.7071 0.7071 0.7071 -79.6011 1511.1289)" fill="#FFFFFF" font-family="'HelveticaNeue-Light'" font-size="15.8832">Kreuz Weinsberg</text>
 		<polyline fill="none" stroke="#FFFFFF" stroke-linecap="round" stroke-linejoin="round" stroke-dasharray="0,1.7" points="
 			-4.558,1442.501 -86.57,1524.517 -86.57,1563.743 		"/>
 		<text transform="matrix(1 0 0 1 -1192.2368 1308.1973)" fill="#FFFFFF" font-family="'HelveticaNeue-Light'" font-size="15.8832">Sinsheim-Steinsfurt</text>
 		<path fill="#80B4D5" d="M-1048.216,1287.6h-4.674c-2.026,0-3.667,1.643-3.667,3.666v1.443v3.232v3.668h3.667h3.233h1.441
 			c2.022,0,3.664-1.643,3.664-3.668v-4.676C-1044.552,1289.242-1046.194,1287.6-1048.216,1287.6z"/>
 		<text transform="matrix(1 0 0 1 -737.0195 1330.1895)" fill="#FFFFFF" font-family="'HelveticaNeue-Light'" font-size="18.0009">Bad Rappenau</text>
 		<path fill="#80B4D5" d="M-660.935,1347.842h-4.674c-2.025,0-3.666,1.641-3.666,3.66v1.443v3.234v3.664h3.666h3.232h1.441
 			c2.023,0,3.666-1.643,3.666-3.664v-4.678C-657.269,1349.482-658.912,1347.842-660.935,1347.842z"/>
 		<text transform="matrix(1 0 0 1 -1233.0156 1248.3926)" fill="#FFFFFF" font-family="'HelveticaNeue-Light'" font-size="15.8832">Sinsheim Süd</text>
 		<path fill="#80B4D5" d="M-1126.044,1234.127h-4.673c-2.027,0-3.667,1.643-3.667,3.666v1.443v3.23v3.668h3.667h3.232h1.441
 			c2.023,0,3.665-1.641,3.665-3.668v-4.674C-1122.379,1235.77-1124.021,1234.127-1126.044,1234.127z"/>
 		<path fill="none" stroke="#FFD800" stroke-width="4" d="M-326.763,1454.017c18.705,2.826,22.588,3.18,37.412,9.18
 			s26.824,10.941,36,16.941c9.18,6,32.121,25.766,41.65,31.766s27.885,15.176,43.061,19.412
 			c15.178,4.234,35.295,15.531,54.355,24.002c19.061,8.473,38.117,10.588,49.063,10.588"/>
 		<path fill="#80B4D5" d="M-264.652,1467.608h-4.674c-2.027,0-3.668,1.643-3.668,3.666v1.443v3.23v3.668h3.668h3.232h1.441
 			c2.021,0,3.664-1.643,3.664-3.668v-4.674C-260.988,1469.251-262.63,1467.608-264.652,1467.608z"/>
 		<path fill="#80B4D5" d="M-83.985,1555.608h-4.674c-2.027,0-3.668,1.643-3.668,3.666v1.443v3.23v3.668h3.668h3.232h1.441
 			c2.021,0,3.664-1.643,3.664-3.668v-4.674C-80.321,1557.251-81.963,1555.608-83.985,1555.608z"/>
 	</g>
 </g>
</svg>