<?xml version="1.0" encoding="utf-8"?>
<!-- Generator: Adobe Illustrator 16.0.3, SVG Export Plug-In . SVG Version: 6.00 Build 0)  -->
<!DOCTYPE svg PUBLIC "-//W3C//DTD SVG 1.1//EN" "http://www.w3.org/Graphics/SVG/1.1/DTD/svg11.dtd">
<svg version="1.1" id="Ebene_1" xmlns="http://www.w3.org/2000/svg" xmlns:xlink="http://www.w3.org/1999/xlink" x="0px" y="0px"
	 width="640px" height="195px" viewBox="0 0 500 225" xml:space="preserve">
	 <defs>
     		<rect id="SVGID_5_" x="71.194" y="324.322" width="639.667" height="194.416"/>
     	</defs>
     	<clipPath id="SVGID_6_">
     		<use xlink:href="#SVGID_5_"  overflow="visible"/>
     	</clipPath>
<g transform="translate(-135, -310)">
     	<g clip-path="url(#SVGID_6_)">
		<path fill="none" stroke="#FFFFFF" stroke-width="4" d="M-806.807,93.344c19.765,10.939,69.326,43.913,92.622,49.562
			c23.295,5.646,37.767,9.177,51.532,18s25.413,22.237,31.766,31.768c6.354,9.529,18.002,16.942,32.473,16.942
			c14.471,0,20.824,2.115,24.354,2.821c3.53,0.706,11.294,2.116,29.295-1.06c10.942-2.47,34.943,10.59,44.472,14.12
			c9.53,3.528,23.648,2.469,36.002,3.528c12.354,1.059,40.59,7.06,87.887,20.471c47.295,13.414,62.826,13.414,76.592,13.414
			s39.883-6.705,49.412-6.705c9.531,0,23.65,0.703,39.533,10.233c15.883,9.529,31.766,32.471,44.473,42.709
			c12.707,10.232,22.236,15.883,37.061,23.646c14.822,7.766,20.826,13.412,37.41,23.646c16.592,10.238,32.826,15.531,56.123,9.18
			c23.295-6.354,24-4.234,45.883-5.295c21.883-1.059,32.826-3.529,41.297-3.529s24.355,0.705,45.178,5.998
			c20.826,5.295,16.943,5.648,35.65,8.471c18.705,2.826,22.588,3.18,37.412,9.18s26.824,10.941,36,16.941
			c9.18,6,32.121,25.766,41.65,31.766s27.885,15.176,43.061,19.412c15.178,4.234,35.295,15.531,54.355,24.002
			c19.061,8.473,38.117,10.588,49.063,10.588c10.939,0,21.881-4.234,36.354-14.471c14.473-10.234,27.18-9.527,45.885-3.881
			s41.297,5.646,58.592,0.352c17.297-5.295,22.943-13.766,33.178-32.473c8.824-15.176,28.943-15.527,39.18-17.646
			c10.234-2.117,32.469-9.885,41.293-15.885c8.824-5.998,14.471-14.119,17.648-30.002c3.176-15.883,15.18-32.824,47.297-36.002
			c32.119-3.176,44.119-6.705,60.002-14.469c15.883-7.768,31.061-20.117,46.592-22.943c15.527-2.824,35.646-11.646,41.295-15.177
			s24.354-13.763,58.238-12.352c33.885,1.41,40.236,6.353,66.004-1.767c25.766-8.118,39.529-20.471,73.768-19.06
			c16.941,0.354,17.648,5.649,49.414,8.118s45.883,5.295,65.297,12.355c19.414,7.056,36.355,18.352,55.061,22.588
			c18.707,4.234,24.705,6,53.297,6.703c28.588,0.709,45.178,5.299,58.236,9.18c0,0,37.063,15.883,47.297,19.764
			c10.236,3.883,35.648,15.531,49.768,22.59c14.121,7.061,25.416,13.766,39.533,22.238c14.117,8.471,36.354,16.588,55.412,16.588
			c19.061,0,34.939,2.119,38.824,3.529"/>
		<path fill="none" stroke="#FFFFFF" stroke-width="4" d="M506.693,92.783c0,0-1.588,15.354-11.117,51.356
			c-4.236,25.941,3.705,43.942,4.764,54.532c0,0,3.707,23.824-3.705,40.236c-7.412,16.413-13.236,29.119-13.766,46.59
			c-0.529,17.471,9.531,29.119,11.646,33.883c2.119,4.766,7.414,11.648,5.824,20.648c-1.588,9-7.412,15.354-13.234,24.355
			c-5.824,9-9.002,16.939-15.354,28.588c-6.354,11.648-9.002,19.061-19.061,27.002c0,0-14.824,6.354-34.943,8.473
			c-20.117,2.115-30.707,11.117-38.119,21.705s-8.471,28.061-7.941,43.943s10.059,19.059,13.236,38.119
			c3.176,19.061,0.529,24.883-3.705,34.414c-4.236,9.529-6.883,19.059-7.943,27.002l-2.529,14.441"/>
		<path fill="#FFD800" d="M774.182,379.969h-9.35c-4.047,0-7.328,3.285-7.328,7.33v2.885v6.465v7.334h7.328h6.471h2.879
			c4.049,0,7.332-3.283,7.332-7.334v-9.35C781.514,383.254,778.23,379.969,774.182,379.969z"/>
		<path fill="#FFD800" d="M1355.691,3.717h-9.348c-4.049,0-7.332,3.285-7.332,7.33v2.885v6.466v7.333h7.332h6.467h2.881
			c4.051,0,7.332-3.282,7.332-7.333v-9.351C1363.023,7.002,1359.742,3.717,1355.691,3.717z"/>
		<path fill="#FFD800" d="M-706.344,101.847h-9.349c-4.05,0-7.332,3.283-7.332,7.33v2.883v6.464v7.333h7.332h6.467h2.881
			c4.049,0,7.331-3.278,7.331-7.333v-9.347C-699.014,105.13-702.295,101.847-706.344,101.847z"/>
		<g>
			<text transform="matrix(1 0 0 1 -692.6553 126.5044)" fill="#FFFFFF" font-family="'HelveticaNeue-Light'" font-size="18.0008">SINSHEIM</text>
		</g>
		<text transform="matrix(1 0 0 1 220.3135 355.3965)" fill="#FFFFFF" font-family="'BentonSansCond-Book'" font-size="18.0008">NECKARSULM</text>
		<path fill="#FFD800" d="M898.963,299.85h-9.35c-4.047,0-7.328,3.283-7.328,7.328v2.885v6.465v7.334h7.328h6.471h2.879
			c4.049,0,7.332-3.281,7.332-7.334v-9.35C906.295,303.133,903.012,299.85,898.963,299.85z"/>
		<text transform="matrix(1 0 0 1 786.6777 323.2793)" fill="#FFFFFF" font-family="'HelveticaNeue-Light'" font-size="18.0008">ÖHRINGEN</text>
		<path fill="#FFD800" d="M25.66,182.141h-5.842c-2.533,0-4.584,2.053-4.584,4.58v1.804v4.04v4.583h4.584h4.039h1.803
			c2.529,0,4.582-2.051,4.582-4.583v-5.844C30.242,184.194,28.189,182.141,25.66,182.141z"/>
		<text transform="matrix(1 0 0 1 -108.6465 196.5669)" fill="#FFFFFF" font-family="'HelveticaNeue-Light'" font-size="18.0008">BAD WIMPFEN</text>
		<text transform="matrix(1 0 0 1 1232.4238 27.147)" fill="#FFFFFF" font-family="'HelveticaNeue-Light'" font-size="18.0008">KÜNZELSAU</text>
		<path fill="#FFD800" d="M1083.473,277.441h-5.842c-2.531,0-4.584,2.052-4.584,4.578v1.803v4.041v4.584h4.584h4.041h1.801
			c2.531,0,4.58-2.053,4.58-4.584v-5.844C1088.053,279.493,1086.004,277.441,1083.473,277.441z"/>
		<text transform="matrix(1 0 0 1 961.7998 291.8652)" fill="#FFFFFF" font-family="'HelveticaNeue-Light'" font-size="18.0008">NEUENSTEIN</text>
		<path fill="#FFD800" d="M1370.072,194.141h-5.842c-2.531,0-4.582,2.052-4.582,4.581v1.804v4.041v4.582h4.582h4.043h1.799
			c2.533,0,4.582-2.051,4.582-4.582v-5.845C1374.654,196.193,1372.605,194.141,1370.072,194.141z"/>
		<text transform="matrix(1 0 0 1 1248.0957 208.5669)" fill="#FFFFFF" font-family="'HelveticaNeue-Light'" font-size="18.0008">KUPFERZELL</text>
		<text transform="matrix(1 0 0 1 221.7402 505.0488)" fill="#FFFFFF" font-family="'HelveticaNeue-Light'" font-size="18.0008">WEINSBERG</text>
		<text transform="matrix(1 0 0 1 580.2705 394.8867)" fill="#FFFFFF" font-family="'HelveticaNeue-Light'" font-size="18.0009">Bretzfeld</text>
		<path fill="#80B4D5" d="M660.486,382.625h-4.674c-2.025,0-3.666,1.643-3.666,3.66v1.443v3.234v3.666h3.666h3.232h1.441
			c2.023,0,3.664-1.643,3.664-3.666v-4.678C664.15,384.268,662.51,382.625,660.486,382.625z"/>
		<text transform="matrix(1 0 0 1 1109.1572 245.998)" fill="#FFFFFF" font-family="'HelveticaNeue-Light'" font-size="18.0009">Neuenstein</text>
		<path fill="#80B4D5" d="M1105.742,248.148h-4.674c-2.027,0-3.668,1.643-3.668,3.66v1.443v3.235v3.664h3.668h3.232h1.441
			c2.021,0,3.664-1.643,3.664-3.664v-4.679C1109.406,249.791,1107.764,248.148,1105.742,248.148z"/>
		<path fill="#80B4D5" d="M-751.519,117.757h-4.674c-2.027,0-3.667,1.643-3.667,3.665v1.443v3.23v3.669h3.667h3.232h1.441
			c2.022,0,3.665-1.643,3.665-3.669v-4.674C-747.854,119.4-749.496,117.757-751.519,117.757z"/>
		<text transform="matrix(1 0 0 1 92.3999 392.8848)"><tspan x="0" y="0" fill="#FFFFFF" font-family="'HelveticaNeue-Light'" font-size="15.8832">Heilbronn/ </tspan><tspan x="-17.201" y="15" fill="#FFFFFF" font-family="'HelveticaNeue-Light'" font-size="15.8832">Untereisesheim</tspan></text>
		<path fill="#80B4D5" d="M117.549,362.621h-4.672c-2.027,0-3.668,1.643-3.668,3.664v1.445v3.23v3.668h3.668h3.232h1.439
			c2.023,0,3.666-1.643,3.666-3.668v-4.676C121.215,364.264,119.572,362.621,117.549,362.621z"/>
		<text transform="matrix(1 0 0 1 208.1729 393.6211)" fill="#FFFFFF" font-family="'HelveticaNeue-Light'" font-size="15.8832">Heilbronn/Neckarsulm</text>
		<path fill="#80B4D5" d="M194.318,384.857h-4.674c-2.027,0-3.668,1.643-3.668,3.666v1.443v3.23v3.668h3.668h3.232h1.441
			c2.021,0,3.664-1.643,3.664-3.668v-4.674C197.982,386.5,196.34,384.857,194.318,384.857z"/>
		<path fill="#FFFFFF" stroke="#828282" stroke-miterlimit="10" d="M339.818,493.357h-4.674c-2.027,0-3.668,1.643-3.668,3.666v1.443
			v3.23v3.668h3.668h3.232h1.441c2.021,0,3.664-1.643,3.664-3.668v-4.674C343.482,495,341.84,493.357,339.818,493.357z"/>
		<path fill="#FFFFFF" stroke="#828282" stroke-miterlimit="10" d="M212.37,343.984h-4.674c-2.027,0-3.668,1.643-3.668,3.666v1.443
			v3.23v3.668h3.668h3.232h1.441c2.021,0,3.664-1.643,3.664-3.668v-4.674C216.034,345.627,214.392,343.984,212.37,343.984z"/>
		<text transform="matrix(1 0 0 1 842.9111 282.2598)" fill="#FFFFFF" font-family="'HelveticaNeue-Light'" font-size="18.0009">Öhringen</text>
		<path fill="#80B4D5" d="M839.496,284.41h-4.674c-2.027,0-3.668,1.641-3.668,3.664v1.445v3.23v3.668h3.668h3.232h1.441
			c2.021,0,3.664-1.643,3.664-3.668v-4.676C843.16,286.051,841.518,284.41,839.496,284.41z"/>
		<text transform="matrix(1 0 0 1 1356.1396 302.6445)" fill="#FFFFFF" font-family="'HelveticaNeue-Light'" font-size="18.0009">Kupferzell</text>
		<path fill="#80B4D5" d="M1352.723,304.797h-4.672c-2.027,0-3.668,1.643-3.668,3.662v1.443v3.232v3.666h3.668h3.232h1.439
			c2.023,0,3.666-1.643,3.666-3.666v-4.676C1356.389,306.439,1354.746,304.797,1352.723,304.797z"/>
		<text transform="matrix(1 0 0 1 1490.9717 366.5313)" fill="#FFFFFF" font-family="'HelveticaNeue-Light'" font-size="18.0009">Schwäbisch Hall</text>
		<path fill="#80B4D5" d="M1487.555,368.682h-4.674c-2.027,0-3.668,1.643-3.668,3.662v1.443v3.232v3.668h3.668h3.232h1.441
			c2.021,0,3.664-1.643,3.664-3.668v-4.676C1491.219,370.324,1489.576,368.682,1487.555,368.682z"/>
		<text transform="matrix(1 0 0 1 109.5811 486.6113)" fill="#FFFFFF" font-family="'HelveticaNeue-Light'" font-size="15.8831">2 km</text>
		<g>
			<line fill="none" stroke="#FFFFFF" stroke-width="0.5" x1="95.619" y1="490.756" x2="161.965" y2="490.756"/>
			<line fill="none" stroke="#FFFFFF" stroke-width="0.5" x1="93.992" y1="495.158" x2="93.992" y2="486.355"/>
			<line fill="none" stroke="#FFFFFF" stroke-width="0.5" x1="163.594" y1="495.158" x2="163.594" y2="486.355"/>
		</g>
		<g>

				<rect x="-454.577" y="221.254" fill-rule="evenodd" clip-rule="evenodd" fill="#FFFFFF" stroke="#828282" width="35.845" height="23.965"/>
			<polygon fill-rule="evenodd" clip-rule="evenodd" fill="#0069AB" points="-420.789,240.79 -436.656,243.396 -452.522,240.531
				-452.519,225.68 -436.652,223.077 -420.785,225.68 			"/>
			<text transform="matrix(0.98 0 0 1 -446.1777 239.27)" fill="#FFFFFF" font-family="'BentonSansCond-Bold'" font-size="16.5184">A6</text>
		</g>

			<text transform="matrix(0.7071 -0.7071 0.7071 0.7071 431.0703 240.1714)" fill="#FFFFFF" font-family="'HelveticaNeue-Light'" font-size="15.8832">Neuenstadt</text>
		<path fill="#80B4D5" d="M497.334,169.907h-4.674c-2.027,0-3.668,1.643-3.668,3.666v1.442v3.23v3.669h3.668h3.232h1.441
			c2.021,0,3.664-1.643,3.664-3.669v-4.673C500.998,171.549,499.355,169.907,497.334,169.907z"/>
		<g>

				<rect x="471.732" y="291.18" fill-rule="evenodd" clip-rule="evenodd" fill="#FFFFFF" stroke="#828282" width="27.574" height="18.436"/>
			<polygon fill-rule="evenodd" clip-rule="evenodd" fill="#80B4D5" points="497.725,306.207 485.518,308.215 473.314,306.01
				473.316,294.584 485.523,292.584 497.729,294.584 			"/>

				<text transform="matrix(0.98 0 0 1 475.6943 305.0371)" fill="#FFFFFF" font-family="'BentonSansCond-Bold'" font-size="12.7065">A81</text>
		</g>

			<text transform="matrix(0.7071 -0.7071 0.7071 0.7071 379.3691 428.3779)" fill="#FFFFFF" font-family="'HelveticaNeue-Light'" font-size="15.8832">Kreuz Weinsberg</text>
		<polyline fill="none" stroke="#FFFFFF" stroke-linecap="round" stroke-linejoin="round" stroke-dasharray="0,1.7" points="
			454.412,359.75 372.4,441.766 372.4,480.992 		"/>
		<text transform="matrix(1 0 0 1 -733.2661 225.4468)" fill="#FFFFFF" font-family="'HelveticaNeue-Light'" font-size="15.8832">Sinsheim-Steinsfurt</text>
		<path fill="#80B4D5" d="M-589.246,204.849h-4.674c-2.026,0-3.667,1.643-3.667,3.666v1.443v3.231v3.668h3.667h3.233h1.441
			c2.022,0,3.664-1.643,3.664-3.668v-4.675C-585.582,206.492-587.224,204.849-589.246,204.849z"/>
		<text transform="matrix(1 0 0 1 -278.0488 247.4395)" fill="#FFFFFF" font-family="'HelveticaNeue-Light'" font-size="18.0009">Bad Rappenau</text>
		<path fill="#80B4D5" d="M-201.965,265.091h-4.674c-2.025,0-3.666,1.641-3.666,3.66v1.443v3.234v3.665h3.666h3.232h1.441
			c2.023,0,3.666-1.643,3.666-3.665v-4.678C-198.299,266.731-199.941,265.091-201.965,265.091z"/>
		<path fill="#FFD800" d="M1250.789,341.076h-5.842c-2.533,0-4.584,2.053-4.584,4.578v1.803v4.043v4.582h4.584h4.041h1.801
			c2.531,0,4.58-2.051,4.58-4.582v-5.846C1255.369,343.129,1253.32,341.076,1250.789,341.076z"/>
		<text transform="matrix(1 0 0 1 1114.1396 355.5)" fill="#FFFFFF" font-family="'HelveticaNeue-Light'" font-size="18.0008">WALDENBURG</text>
		<text transform="matrix(1 0 0 1 -774.0459 165.6421)" fill="#FFFFFF" font-family="'HelveticaNeue-Light'" font-size="15.8832">Sinsheim Süd</text>
		<path fill="#80B4D5" d="M-667.074,151.376h-4.673c-2.027,0-3.667,1.643-3.667,3.665v1.443v3.23v3.669h3.667h3.232h1.441
			c2.023,0,3.665-1.642,3.665-3.669v-4.674C-663.409,153.019-665.051,151.376-667.074,151.376z"/>
		<path fill="#FFD800" d="M376.156,466.16h-9.35c-4.049,0-7.331,3.283-7.331,7.33v2.883v6.464v7.333h7.331h6.468h2.882
			c4.049,0,7.33-3.278,7.33-7.333v-9.347C383.486,469.443,380.205,466.16,376.156,466.16z"/>
			</g>
</g>
</svg>